<svg width="138" height="36" viewBox="0 0 138 36" fill="none" xmlns="http://www.w3.org/2000/svg">
<g id="Component 33">
<path id="Vector" d="M73.292 3.02372C73.31 2.99361 73.3307 2.99361 73.3556 3.02372L73.3183 3.05384L73.292 3.02372Z" fill="#6F6F6F"/>
<path id="Vector_2" d="M41.5878 13.5417C41.9867 12.3454 42.3648 11.2148 42.7346 10.0937C42.7802 9.95681 42.8726 9.92532 42.9927 9.90342C44.9895 9.53384 46.9947 9.21901 49.0343 9.31893C50.4737 9.38601 51.8578 9.67757 53.097 10.4441C54.7779 11.4817 55.5465 13.0449 55.6556 14.9612C55.719 16.0631 55.5383 17.1513 55.3796 18.23C55.0497 20.4283 54.7103 22.6239 54.3915 24.8222C54.3828 24.9144 54.3492 25.0026 54.2944 25.0775C54.2395 25.1524 54.1653 25.2112 54.0796 25.2479C52.7796 25.9556 51.3693 26.343 49.9203 26.5784C48.1271 26.8866 46.298 26.9327 44.4914 26.7153C42.9858 26.5278 41.5823 26.0637 40.4894 24.9659C40.015 24.4842 39.6468 23.9099 39.4081 23.2796C39.1694 22.6492 39.0654 21.9766 39.1026 21.3042C39.1398 20.6319 39.3175 19.9745 39.6244 19.3739C39.9314 18.7733 40.3608 18.2425 40.8854 17.8152C42.006 16.9008 43.3308 16.4464 44.726 16.1521C46.8387 15.7086 48.9708 15.7688 51.1043 15.9303C51.3707 15.9495 51.4286 15.8687 51.441 15.6333C51.5363 13.9825 50.5371 12.7971 48.7832 12.4782C47.566 12.2564 46.3709 12.4481 45.1758 12.6424C43.9564 12.8414 42.7562 13.1423 41.5878 13.5417ZM49.0509 18.5215C48.2914 18.5166 47.5327 18.572 46.7822 18.6871C45.9707 18.824 45.1827 19.0362 44.5286 19.57C43.7889 20.1737 43.5916 20.984 43.7379 21.8765C43.8759 22.691 44.45 23.1372 45.1938 23.4C45.5347 23.519 45.8894 23.5948 46.2495 23.6259C47.5798 23.7532 48.8715 23.5232 50.1549 23.2084C50.2419 23.197 50.3218 23.1543 50.3792 23.0885C50.4367 23.0227 50.4678 22.9382 50.4668 22.8511C50.642 21.5576 50.8159 20.2627 51.0091 18.9719C51.0422 18.7487 50.9677 18.7063 50.78 18.6707C50.2083 18.5771 49.6303 18.5272 49.0509 18.5215Z" fill="#4B4B4B"/>
<path id="Vector_3" d="M103.196 22.5568C102.976 23.222 102.782 23.8175 102.578 24.4129C102.415 24.9016 102.241 25.3862 102.087 25.8789C102.072 25.9544 102.035 26.0237 101.98 26.0783C101.926 26.1329 101.856 26.1702 101.78 26.1855C99.669 26.744 97.53 27.0465 95.3496 26.7741C92.8656 26.4634 90.8122 25.4053 89.5536 23.1454C88.7795 21.7465 88.5338 20.223 88.6387 18.6529C88.8388 15.6662 90.0932 13.19 92.4254 11.2722C93.8427 10.106 95.4959 9.50646 97.3148 9.32852C98.5692 9.20669 99.8167 9.22996 101.041 9.56806C103.533 10.2525 105.195 12.1757 105.513 14.7217C105.697 16.1849 105.513 17.6222 105.275 19.0608C105.246 19.2402 105.155 19.2456 105.017 19.2456C104.347 19.2456 103.677 19.2456 103.007 19.2456C99.7873 19.2456 96.5673 19.2456 93.3473 19.2456C93.0878 19.2456 93.0119 19.3086 93.0078 19.5728C92.9719 21.7246 94.1697 23.1454 96.3018 23.5081C97.8778 23.7819 99.411 23.5451 100.941 23.2138C101.707 23.0441 102.46 22.8246 103.196 22.5568ZM97.5659 16.4519H100.657C101.601 16.4519 101.601 16.4519 101.633 15.5156C101.698 13.6198 100.529 12.3837 98.6285 12.2783C96.3557 12.151 94.2125 13.784 93.6605 16.2068C93.615 16.4081 93.6605 16.4573 93.8675 16.456C95.0971 16.4464 96.3239 16.4519 97.5659 16.4519Z" fill="#4B4B4B"/>
<path id="Vector_4" d="M111.131 26.8289C109.105 26.8155 107.093 26.4829 105.172 25.8433C104.981 25.7776 104.93 25.7229 104.999 25.5162C105.314 24.5681 105.616 23.6154 105.905 22.6581C105.977 22.4227 106.061 22.4418 106.252 22.5322C108.097 23.4274 110.181 23.7188 112.203 23.3644C112.678 23.2927 113.128 23.1097 113.517 22.8306C113.697 22.7069 113.847 22.5448 113.955 22.3561C114.064 22.1675 114.128 21.9572 114.144 21.7407C114.159 21.5241 114.126 21.3068 114.045 21.1048C113.965 20.9028 113.84 20.7212 113.68 20.5734C113.329 20.2513 112.936 19.9786 112.51 19.763C111.454 19.1772 110.381 18.6283 109.377 17.9494C106.682 16.1192 107.011 12.3098 109.664 10.6385C110.84 9.89795 112.128 9.527 113.495 9.38601C115.775 9.15194 117.979 9.53932 120.151 10.1881C120.35 10.247 120.401 10.3004 120.325 10.5098C119.998 11.4091 119.682 12.3139 119.385 13.2242C119.306 13.4637 119.213 13.4459 119.026 13.3611C117.668 12.7252 116.18 12.4068 114.678 12.4303C113.949 12.4481 113.238 12.5672 112.622 12.9942C112.359 13.1601 112.159 13.4067 112.052 13.6963C111.945 13.9859 111.937 14.3024 112.028 14.5971C112.147 14.9277 112.371 15.2107 112.667 15.4034C113.306 15.8797 114.038 16.2014 114.737 16.5819C115.593 17.0252 116.41 17.539 117.18 18.1177C119.454 19.9081 119.224 23.3192 117.042 25.0522C115.634 26.1678 113.986 26.614 112.234 26.7728C111.794 26.8111 111.356 26.818 111.131 26.8289Z" fill="#4B4B4B"/>
<path id="Vector_5" d="M126.017 26.8289C124.018 26.8097 122.034 26.4804 120.137 25.8529C119.918 25.7804 119.861 25.716 119.943 25.4861C120.255 24.558 120.55 23.6245 120.837 22.6882C120.906 22.461 120.975 22.4281 121.198 22.5349C123.036 23.4218 125.108 23.7139 127.121 23.3699C127.553 23.3027 127.966 23.15 128.337 22.9209C129.252 22.3419 129.364 21.2783 128.591 20.5337C128.267 20.2448 127.907 19.9986 127.519 19.8014C126.415 19.1799 125.268 18.6242 124.229 17.885C121.832 16.1671 122.13 13.0586 123.595 11.4981C124.584 10.4482 125.831 9.88426 127.215 9.58175C129.052 9.1711 130.887 9.26966 132.721 9.60639C133.494 9.74327 134.25 9.95133 135.007 10.1539C135.258 10.2237 135.349 10.2976 135.243 10.5824C134.924 11.4406 134.634 12.3084 134.353 13.1831C134.274 13.4227 134.195 13.4569 133.958 13.3542C132.617 12.7299 131.153 12.4122 129.672 12.4248C128.982 12.4371 128.315 12.5384 127.713 12.897C127.143 13.2351 126.855 13.7265 126.941 14.4027C126.994 14.8325 127.255 15.1323 127.584 15.3787C128.274 15.8975 129.067 16.2397 129.818 16.6503C130.674 17.1198 131.518 17.6085 132.265 18.2395C134.357 20.019 134.121 23.3179 132.022 25.0152C130.894 25.9282 129.586 26.4018 128.174 26.6468C127.461 26.7618 126.74 26.8226 126.017 26.8289Z" fill="#4B4B4B"/>
<path id="Vector_6" d="M71.346 22.7991C71.2756 23.2097 71.0976 23.5779 70.9665 23.9653C70.7167 24.7031 70.4504 25.4341 70.2033 26.1732C70.1852 26.2471 70.1439 26.3134 70.0854 26.3626C70.0269 26.4118 69.9541 26.4413 69.8777 26.447C68.2217 26.7208 66.5477 26.8946 64.8655 26.7687C62.3553 26.5811 60.2025 25.6736 58.7231 23.5519C57.6798 22.0572 57.3114 20.3585 57.4038 18.5694C57.5584 15.5854 58.8335 13.1434 61.1837 11.2736C62.5305 10.2032 64.1148 9.67756 65.8025 9.45855C67.8917 9.16484 70.0191 9.29099 72.0581 9.8295C72.4472 9.9349 72.8226 10.0827 73.2048 10.2059C73.3428 10.2497 73.3787 10.3086 73.3277 10.4578C73.002 11.4023 72.6791 12.3495 72.3741 13.3008C72.3065 13.5103 72.2112 13.4678 72.0746 13.4144C71.1002 13.0181 70.0684 12.7783 69.0179 12.704C66.7451 12.5767 64.7689 13.1968 63.3503 15.0735C62.0213 16.8324 61.8157 19.7535 63.2385 21.5192C64.1231 22.6143 65.2905 23.1947 66.6761 23.3548C68.1706 23.5273 69.6155 23.2412 71.0424 22.8347C71.1335 22.8087 71.2259 22.7909 71.3184 22.769L71.346 22.7991Z" fill="#4B4B4B"/>
<path id="Vector_7" d="M87.0781 22.7799C86.7607 23.6861 86.3964 24.5827 86.1356 25.508C85.9465 26.1828 85.6277 26.5031 84.8853 26.577C82.8153 26.7824 80.7453 27.0123 78.6753 26.4689C75.4199 25.6106 73.2933 23.0345 73.1166 19.6864C72.9234 16.0481 74.3283 13.1407 77.2829 10.9903C78.5249 10.0882 79.9739 9.66114 81.4863 9.4654C83.575 9.17266 85.7017 9.29833 87.7405 9.83498C88.1186 9.93765 88.4816 10.091 88.8583 10.1991C89.0557 10.2566 89.0612 10.3456 88.9963 10.5167C88.6803 11.4324 88.367 12.3481 88.0731 13.2707C88.0027 13.4911 87.9185 13.4829 87.7378 13.4145C86.2915 12.8669 84.8122 12.5699 83.2514 12.73C80.6004 13.012 78.5828 14.7504 78.0736 17.3087C77.7065 19.1553 78.0433 20.8444 79.5268 22.1516C80.7094 23.1919 82.1487 23.4821 83.6819 23.3932C84.7636 23.3225 85.8323 23.1202 86.8642 22.7909C86.9263 22.7799 86.9815 22.7293 87.0781 22.7799Z" fill="#4B4B4B"/>
<path id="Vector_8" d="M34.5055 19.0129L17.3149 1.96152V4.57871L31.867 19.0129L31.8725 19.0184L19.2676 31.5212L19.2524 31.5062L6.65574 19.0129L6.6447 19.002L12.8285 12.8683H10.1444L3.95508 19.0075L3.9606 19.0129L19.2469 34.1754L19.2524 34.1699L34.5193 19.0266L34.5055 19.0129Z" fill="#848484"/>
<path id="Vector_9" d="M17.3093 6.38007V8.99726L27.4123 19.0184L19.2731 27.0917L11.1269 19.0129L11.1159 19.002L17.2997 12.8683H14.6156L8.42627 19.0075L8.43179 19.0129L17.9248 28.429L19.2524 29.7459L20.602 28.4085L30.0592 19.0266L17.3093 6.38007Z" fill="#848484"/>
<path id="Vector_10" d="M25.6031 19.0129L20.562 14.0071L19.2206 12.6767L17.9013 13.9852L12.834 19.0075L17.9041 24.0365L19.2317 25.3533L20.5785 24.016L25.6169 19.0266L25.6031 19.0129ZM19.2551 22.7088L15.5291 19.0129L15.5181 19.002L19.2344 15.3157L22.9604 19.0116L19.2551 22.7088Z" fill="#848484"/>
</g>
</svg>
