<svg width="64" height="64" viewBox="0 0 64 64" fill="none" xmlns="http://www.w3.org/2000/svg">
<rect width="64" height="64" rx="32" fill="#FDEDED"/>
<path d="M28.1467 34.88C28.0134 34.7333 27.8267 34.6533 27.6267 34.6533H24.1734H22.7467C22.5467 34.6533 22.3601 34.7333 22.2267 34.88L21.4134 35.7733C21.1734 36.04 21.1734 36.44 21.4134 36.6933L25.2667 41.0533L25.6267 40.6266L28.9734 36.6933C29.2001 36.4267 29.1867 36.04 28.9601 35.7733L28.1467 34.88Z" fill="#F43F3E"/>
<path d="M41.1867 23.1067H41.08C40.52 23.1067 40.0267 23.4 39.7467 23.84C39.6267 24.04 39.5467 24.2667 39.52 24.52C39.5067 24.5733 39.5067 24.6267 39.5067 24.68V32.8133C39.48 33.32 39.0533 33.7333 38.52 33.7333C37.9733 33.7333 37.52 33.28 37.52 32.7333V29.5733C37.52 29.56 37.52 29.56 37.52 29.5467V21.36C37.52 20.52 36.84 19.84 36 19.84C35.1867 19.84 34.5333 20.48 34.4933 21.2933V21.3067C34.4933 21.3333 34.48 21.3467 34.48 21.36V29.5467C34.48 29.5467 34.48 29.5467 34.48 29.56V31.3333C34.48 31.8933 34.04 32.3333 33.48 32.3333C32.9333 32.3333 32.48 31.8933 32.48 31.3333V28.48V20.2933C32.48 19.4533 31.8 18.76 30.96 18.76C30.8933 18.76 30.8133 18.76 30.7467 18.7733C30.6133 18.8 30.4933 18.8267 30.3733 18.88C30.36 18.88 30.3467 18.8933 30.3467 18.8933C29.8133 19.1333 29.44 19.68 29.44 20.2933V28.48V29.3867C29.44 29.9467 28.9867 30.3867 28.44 30.3867C27.8933 30.3867 27.44 29.9467 27.44 29.3867V28.3867V24.7333C27.44 24.1867 27.16 23.7067 26.7467 23.4133C26.48 23.2133 26.16 23.1067 25.8133 23.1067H25.8C24.9067 23.1067 24.1733 23.84 24.1733 24.7333V26.5733V28.3867V32.6533H28.3733C28.6533 32.6533 28.92 32.7733 29.1067 32.9867L31.44 35.5467C31.7733 35.92 31.7867 36.48 31.4533 36.8667L26.8533 42.2933C28.5467 44.12 30.8933 45.24 33.4667 45.24C38.6 45.24 42.76 40.8 42.76 35.3467V32.7733V27.0667V24.68C42.76 23.8133 42.0533 23.1067 41.1867 23.1067Z" fill="#F43F3E"/>
</svg>
