<svg width="86" height="24" viewBox="0 0 86 24" fill="none" xmlns="http://www.w3.org/2000/svg">
<g id="Group 1551">
<path id="Fill 2" d="M14.0295 11.3572C14.0084 8.88163 16.0879 7.67843 16.1792 7.62311C14.999 5.93586 13.1724 5.70076 12.5332 5.68001C11.0017 5.52097 9.51235 6.58587 8.73256 6.58587C7.93871 6.58587 6.73039 5.70076 5.43776 5.7215C3.7728 5.74916 2.2062 6.69651 1.35616 8.17631C-0.407156 11.1843 0.906546 15.6099 2.59961 18.0439C3.44965 19.2333 4.43317 20.5679 5.73282 20.5195C6.99735 20.4711 7.47505 19.7243 8.99951 19.7243C10.5169 19.7243 10.9595 20.5195 12.2803 20.4918C13.6431 20.4711 14.4932 19.2955 15.3151 18.0923C16.2916 16.7301 16.685 15.3817 16.6991 15.3125C16.6639 15.2987 14.0576 14.3168 14.0295 11.3572Z" fill="white"/>
<path id="Fill 3" d="M11.5342 4.08153C12.2158 3.24482 12.6796 2.10385 12.5531 0.942139C11.5694 0.983628 10.3327 1.61289 9.62296 2.43577C8.99758 3.16184 8.43543 4.34429 8.57597 5.4576C9.6862 5.54058 10.8245 4.9044 11.5342 4.08153Z" fill="white"/>
<path id="Fill 4" d="M32.3822 20.3457H30.6119L29.6424 17.3446H26.2704L25.3501 20.3457H23.6289L26.9659 10.1323H29.0312L32.3822 20.3457ZM29.3544 16.0861L28.4763 13.4238C28.3849 13.1472 28.2093 12.5111 27.9564 11.5015H27.9213C27.8159 11.9371 27.6543 12.5802 27.4295 13.4238L26.5654 16.0861H29.3544Z" fill="white"/>
<path id="Fill 5" d="M40.9568 16.5758C40.9568 17.8274 40.6126 18.8162 39.9171 19.5423C39.2989 20.1923 38.5261 20.5104 37.6129 20.5104C36.6223 20.5104 35.9128 20.1646 35.4772 19.4662V23.3317H33.8122V15.4002C33.8122 14.6119 33.7912 13.8098 33.749 12.98H35.2103L35.3016 14.1486H35.3297C35.8847 13.2704 36.7277 12.8279 37.8517 12.8279C38.7369 12.8279 39.4675 13.1736 40.0576 13.8582C40.6618 14.5497 40.9568 15.4486 40.9568 16.5758ZM39.2638 16.6311C39.2638 15.9119 39.1022 15.3242 38.772 14.8609C38.4137 14.3768 37.929 14.1348 37.3248 14.1348C36.9174 14.1348 36.545 14.2731 36.2078 14.5359C35.8776 14.8056 35.6528 15.1513 35.5545 15.5869C35.5053 15.7875 35.4772 15.9534 35.4772 16.0848V17.3157C35.4772 17.8481 35.6458 18.3045 35.976 18.671C36.3062 19.0375 36.7417 19.2242 37.2756 19.2242C37.9009 19.2242 38.3856 18.9822 38.7369 18.512C39.0881 18.0348 39.2638 17.4125 39.2638 16.6311Z" fill="white"/>
<path id="Fill 6" d="M49.5579 16.5758C49.5579 17.8274 49.2137 18.8162 48.5182 19.5423C47.9 20.1923 47.1272 20.5104 46.2139 20.5104C45.2234 20.5104 44.5138 20.1646 44.0783 19.4662V23.3317H42.4133V15.4002C42.4133 14.6119 42.3922 13.8098 42.3501 12.98H43.8113L43.9027 14.1486H43.9308C44.4857 13.2704 45.3288 12.8279 46.4528 12.8279C47.338 12.8279 48.0686 13.1736 48.6587 13.8582C49.2628 14.5497 49.5579 15.4486 49.5579 16.5758ZM47.8648 16.6311C47.8648 15.9119 47.7033 15.3242 47.3731 14.8609C47.0148 14.3768 46.5301 14.1348 45.9259 14.1348C45.5184 14.1348 45.1461 14.2731 44.8089 14.5359C44.4787 14.8056 44.2609 15.1513 44.1556 15.5869C44.1064 15.7875 44.0783 15.9534 44.0783 16.0848V17.3157C44.0783 17.8481 44.2469 18.3045 44.5771 18.671C44.9073 19.0375 45.3428 19.2242 45.8767 19.2242C46.502 19.2242 46.9937 18.9822 47.338 18.512C47.6962 18.0348 47.8648 17.4125 47.8648 16.6311Z" fill="white"/>
<path id="Fill 7" d="M59.1858 17.4834C59.1858 18.3546 58.8767 19.06 58.2655 19.6062C57.5911 20.2009 56.6497 20.4983 55.4414 20.4983C54.3244 20.4983 53.4322 20.2839 52.7578 19.8621L53.1442 18.4999C53.8748 18.9217 54.6757 19.136 55.5468 19.136C56.172 19.136 56.6638 18.9977 57.008 18.7211C57.3593 18.4445 57.5349 18.0711 57.5349 17.6078C57.5349 17.1929 57.3874 16.8472 57.1064 16.5637C56.8183 16.2802 56.3406 16.0174 55.6732 15.7754C53.8397 15.1046 52.9334 14.1296 52.9334 12.8503C52.9334 12.0136 53.2566 11.329 53.8959 10.7897C54.5352 10.2572 55.3852 9.98755 56.446 9.98755C57.3874 9.98755 58.1742 10.1466 58.7994 10.4716L58.3779 11.7993C57.7878 11.4881 57.1275 11.329 56.3828 11.329C55.7997 11.329 55.336 11.4743 55.0059 11.7509C54.7319 12.0067 54.5914 12.311 54.5914 12.6775C54.5914 13.0785 54.753 13.4174 55.0691 13.6732C55.3431 13.9152 55.8489 14.178 56.5795 14.4615C57.4717 14.8142 58.125 15.2291 58.5465 15.7062C58.9751 16.1833 59.1858 16.778 59.1858 17.4834Z" fill="white"/>
<path id="Fill 8" d="M64.6842 14.2132H62.8502V17.7883C62.8502 18.6941 63.1735 19.1505 63.8199 19.1505C64.115 19.1505 64.361 19.1228 64.5577 19.0744L64.6069 20.3191C64.2767 20.4367 63.848 20.4989 63.314 20.4989C62.6535 20.4989 62.1475 20.2984 61.7751 19.9042C61.4027 19.5101 61.22 18.8462 61.22 17.9196V14.2063H60.1309V12.9824H61.22V11.6339L62.8502 11.1499V12.9824H64.6842V14.2132Z" fill="white"/>
<path id="Fill 9" d="M72.9405 16.6053C72.9405 17.7394 72.6103 18.666 71.957 19.392C71.2685 20.1389 70.3553 20.5123 69.2172 20.5123C68.1213 20.5123 67.2431 20.1527 66.5898 19.4404C65.9364 18.7282 65.6133 17.8223 65.6133 16.7298C65.6133 15.5888 65.9505 14.6553 66.6179 13.9292C67.2923 13.2032 68.1985 12.8367 69.3366 12.8367C70.4325 12.8367 71.3177 13.1962 71.9851 13.9154C72.6244 14.6069 72.9405 15.5058 72.9405 16.6053ZM71.2193 16.6399C71.2193 15.9622 71.0718 15.3883 70.7768 14.9042C70.4255 14.3165 69.9267 14.026 69.2804 14.026C68.613 14.026 68.1002 14.3165 67.756 14.9042C67.4539 15.3883 67.3134 15.9761 67.3134 16.6745C67.3134 17.3521 67.4609 17.933 67.756 18.4101C68.1142 18.9979 68.62 19.2883 69.2664 19.2883C69.8986 19.2883 70.3974 18.991 70.7627 18.3963C71.0648 17.8984 71.2193 17.3176 71.2193 16.6399Z" fill="white"/>
<path id="Fill 10" d="M78.3473 14.4183C78.1856 14.3907 78.01 14.3768 77.8202 14.3768C77.237 14.3768 76.7803 14.5912 76.4641 15.0268C76.19 15.4072 76.0495 15.8981 76.0495 16.479V20.3444H74.3841V15.2965C74.3841 14.446 74.3701 13.6715 74.335 12.98H75.7825L75.8457 14.3907H75.8949C76.0706 13.9066 76.3446 13.5125 76.7241 13.222C77.0965 12.9593 77.497 12.8279 77.9256 12.8279C78.0802 12.8279 78.2208 12.8417 78.3402 12.8555L78.3473 14.4183Z" fill="white"/>
<path id="Fill 11" d="M85.7744 16.3111C85.7744 16.6015 85.7533 16.8504 85.7112 17.051H80.7233C80.7444 17.777 80.9832 18.3371 81.4469 18.7175C81.8684 19.0563 82.4093 19.2292 83.0767 19.2292C83.8144 19.2292 84.4888 19.1116 85.093 18.8834L85.3529 20.0175C84.6433 20.3217 83.8074 20.4739 82.8449 20.4739C81.6858 20.4739 80.7725 20.135 80.1121 19.4643C79.4518 18.7935 79.1216 17.8877 79.1216 16.7605C79.1216 15.6541 79.4307 14.7275 80.0489 13.9876C80.6952 13.1993 81.5663 12.8052 82.6623 12.8052C83.7371 12.8052 84.559 13.1993 85.107 13.9876C85.5496 14.6238 85.7744 15.3914 85.7744 16.3111ZM84.1867 15.8892C84.2008 15.4052 84.0884 14.9834 83.8636 14.6307C83.5755 14.1743 83.1329 13.9461 82.5428 13.9461C82.0019 13.9461 81.5593 14.1674 81.2221 14.61C80.9481 14.9626 80.7795 15.3914 80.7303 15.8823L84.1867 15.8892Z" fill="white"/>
<path id="Fill 12" d="M28.553 6.47802H27.6817L27.2039 5.00513H25.5456L25.0888 6.47802H24.2456L25.8828 1.45776H26.8947L28.553 6.47802ZM27.0563 4.38279L26.6277 3.06895C26.5855 2.93756 26.5012 2.61948 26.3677 2.1216H26.3536C26.2974 2.33596 26.2272 2.64714 26.1077 3.06895L25.6861 4.38279H27.0563Z" fill="white"/>
<path id="Fill 13" d="M32.6556 2.85083L31.2643 6.47426H30.4702L29.1211 2.85083H29.9994L30.6248 4.76627C30.7302 5.08436 30.8216 5.38862 30.8918 5.67904H30.9129C30.9762 5.41628 31.0675 5.11202 31.1799 4.76627L31.7983 2.85083H32.6556Z" fill="white"/>
<path id="Fill 14" d="M35.6167 6.47742L35.5535 6.06252H35.5324C35.2794 6.39444 34.9211 6.5604 34.4573 6.5604C33.7968 6.5604 33.333 6.10401 33.333 5.49549C33.333 4.60346 34.12 4.14016 35.4832 4.14016V4.07101C35.4832 3.59388 35.2232 3.35877 34.7173 3.35877C34.3519 3.35877 34.0357 3.44867 33.7546 3.62846L33.586 3.10292C33.9233 2.89547 34.3519 2.79175 34.8508 2.79175C35.8135 2.79175 36.2983 3.28962 36.2983 4.29229V5.62688C36.2983 5.99337 36.3124 6.27688 36.3545 6.49125L35.6167 6.47742ZM35.5043 4.67261C34.5978 4.67261 34.1411 4.88698 34.1411 5.4056C34.1411 5.78592 34.373 5.97263 34.7032 5.97263C35.1178 5.97263 35.5043 5.66145 35.5043 5.23273V4.67261Z" fill="white"/>
<path id="Fill 15" d="M38.1213 2.26049C37.8474 2.26049 37.6367 2.05305 37.6367 1.77645C37.6367 1.49985 37.8544 1.29932 38.1353 1.29932C38.4162 1.29932 38.641 1.49985 38.6339 1.77645C38.6339 2.06688 38.4233 2.26049 38.1213 2.26049ZM37.728 2.85518H38.5426V6.4717H37.728V2.85518Z" fill="white"/>
<path id="Fill 16" d="M39.9937 1.19995H40.8083V6.47606H39.9937V1.19995Z" fill="white"/>
<path id="Fill 17" d="M44.2778 6.47994L44.2146 6.06504H44.1935C43.9406 6.39696 43.5822 6.56292 43.1184 6.56292C42.4579 6.56292 41.9941 6.10653 41.9941 5.49801C41.9941 4.60599 42.7811 4.14268 44.1443 4.14268V4.07353C44.1443 3.5964 43.8843 3.36129 43.3784 3.36129C43.013 3.36129 42.6968 3.45119 42.4157 3.63098L42.2471 3.09853C42.5844 2.89108 43.013 2.78735 43.5119 2.78735C44.4746 2.78735 44.9594 3.28523 44.9594 4.2879V5.62248C44.9594 5.98898 44.9735 6.27249 45.0086 6.48685H44.2778V6.47994ZM44.1654 4.67513C43.259 4.67513 42.8022 4.8895 42.8022 5.40812C42.8022 5.78844 43.0341 5.97515 43.3644 5.97515C43.7789 5.97515 44.1654 5.66397 44.1654 5.23525V4.67513Z" fill="white"/>
<path id="Fill 18" d="M48.2757 6.56595C47.7558 6.56595 47.3693 6.35159 47.1163 5.92286H47.1023L47.0531 6.48297H46.3574C46.3785 6.19255 46.3855 5.86754 46.3855 5.50797V1.19995H47.2077V3.39199H47.2217C47.4677 2.99092 47.8541 2.79039 48.3952 2.79039C49.2806 2.79039 49.8989 3.5372 49.8989 4.62285C49.8989 5.74307 49.2103 6.56595 48.2757 6.56595ZM48.1071 3.41965C47.6363 3.41965 47.2077 3.82072 47.2077 4.38083V5.017C47.2077 5.51488 47.5941 5.92286 48.093 5.92286C48.7044 5.92286 49.0698 5.4319 49.0698 4.65051C49.0698 3.91753 48.6903 3.41965 48.1071 3.41965Z" fill="white"/>
<path id="Fill 19" d="M51.1084 1.19995H51.923V6.47606H51.1084V1.19995Z" fill="white"/>
<path id="Fill 20" d="M56.3717 4.86664H53.9193C53.9334 5.55122 54.3971 5.93845 55.0787 5.93845C55.4441 5.93845 55.7744 5.87622 56.0695 5.76558L56.196 6.32569C55.8517 6.47782 55.4441 6.54697 54.9663 6.54697C53.8139 6.54697 53.1323 5.83473 53.1323 4.72142C53.1323 3.61503 53.828 2.77832 54.875 2.77832C55.8095 2.77832 56.4068 3.4629 56.4068 4.50014C56.4068 4.64536 56.3998 4.76983 56.3717 4.86664ZM55.6268 4.29269C55.6268 3.73258 55.3387 3.33843 54.8188 3.33843C54.348 3.33843 53.9826 3.7395 53.9264 4.29269H55.6268Z" fill="white"/>
<path id="Fill 21" d="M61.3215 6.56292C60.2464 6.56292 59.5508 5.77461 59.5508 4.70279C59.5508 3.58257 60.2605 2.78735 61.3848 2.78735C62.4458 2.78735 63.1555 3.54108 63.1555 4.64056C63.1555 5.7677 62.4247 6.56292 61.3215 6.56292ZM61.3567 3.37512C60.7664 3.37512 60.387 3.92141 60.387 4.67513C60.387 5.42195 60.7734 5.96132 61.3496 5.96132C61.9258 5.96132 62.3123 5.38046 62.3123 4.65439C62.3053 3.92141 61.9329 3.37512 61.3567 3.37512Z" fill="white"/>
<path id="Fill 22" d="M67.5523 6.47782H66.7371V4.39642C66.7371 3.75333 66.4842 3.43524 65.9923 3.43524C65.5075 3.43524 65.1772 3.84322 65.1772 4.32035V6.4709H64.3621V3.89163C64.3621 3.57354 64.3551 3.22779 64.334 2.85438H65.0507L65.0859 3.4145H65.1069C65.3248 3.02726 65.7745 2.77832 66.2734 2.77832C67.0463 2.77832 67.5523 3.35918 67.5523 4.30652V6.47782Z" fill="white"/>
<path id="Fill 23" d="M72.893 3.46718H71.9936V5.22357C71.9936 5.67305 72.1552 5.89432 72.4714 5.89432C72.6119 5.89432 72.7384 5.88049 72.8368 5.85975L72.8579 6.46827C72.6963 6.5305 72.4855 6.55816 72.2255 6.55816C71.579 6.55816 71.1996 6.2055 71.1996 5.29272V3.46718H70.6655V2.86558H71.1996V2.20174L72.0006 1.95972V2.85866H72.9V3.46718" fill="white"/>
<path id="Fill 24" d="M77.2146 6.48297H76.3995V4.4154C76.3995 3.7654 76.1465 3.4404 75.6546 3.4404C75.233 3.4404 74.8395 3.72391 74.8395 4.29785V6.47606H74.0244V1.19995H74.8395V3.37125H74.8536C75.1136 2.97709 75.479 2.78347 75.9568 2.78347C76.7368 2.78347 77.2146 3.37816 77.2146 4.32551V6.48297Z" fill="white"/>
<path id="Fill 25" d="M81.3927 4.86664H78.9403C78.9544 5.55122 79.4181 5.93845 80.0997 5.93845C80.4651 5.93845 80.7954 5.87622 81.0905 5.76558L81.217 6.32569C80.8727 6.47782 80.4651 6.54697 79.9873 6.54697C78.8349 6.54697 78.1533 5.83473 78.1533 4.72142C78.1533 3.61503 78.849 2.77832 79.896 2.77832C80.8305 2.77832 81.4278 3.4629 81.4278 4.50014C81.4278 4.64536 81.4208 4.76983 81.3927 4.86664ZM80.6478 4.29269C80.6478 3.73258 80.3597 3.33843 79.8397 3.33843C79.369 3.33843 78.9965 3.7395 78.9474 4.29269H80.6478Z" fill="white"/>
</g>
</svg>
