<svg width="64" height="64" viewBox="0 0 64 64" fill="none" xmlns="http://www.w3.org/2000/svg">
<rect width="64" height="64" rx="32" fill="#FDEDED"/>
<path d="M23.0798 30.8134C23.0798 30.2667 22.6265 29.8134 22.0798 29.8134H19.6665C19.1198 29.8134 18.6665 30.2667 18.6665 30.8134C18.6665 31.36 19.1198 31.8134 19.6665 31.8134H22.0798C22.6398 31.8134 23.0798 31.36 23.0798 30.8134Z" fill="#F43F3E"/>
<path d="M23.6667 22.2667C23.28 21.88 22.64 21.88 22.2534 22.2667C21.8667 22.6534 21.8667 23.2933 22.2534 23.68L23.96 25.3867C24.16 25.5867 24.4134 25.68 24.6667 25.68C24.92 25.68 25.1734 25.5867 25.3734 25.3867C25.76 25 25.76 24.36 25.3734 23.9733L23.6667 22.2667Z" fill="#F43F3E"/>
<path d="M23.88 36.2667L22.1733 37.9867C21.7866 38.3733 21.7866 39 22.1733 39.4C22.3733 39.5867 22.6266 39.6933 22.88 39.6933C23.1466 39.6933 23.4 39.5867 23.5866 39.4L25.2933 37.6933C25.44 37.5467 25.5466 37.36 25.5866 37.1733V36.7867C25.5466 36.6 25.44 36.4134 25.2933 36.2667C24.9066 35.88 24.28 35.88 23.88 36.2667Z" fill="#F43F3E"/>
<path d="M30.8135 23.08C31.3601 23.08 31.8135 22.6266 31.8135 22.08V19.6666C31.8135 19.12 31.3601 18.6666 30.8135 18.6666C30.2668 18.6666 29.8135 19.12 29.8135 19.6666V22.08C29.8135 22.64 30.2535 23.08 30.8135 23.08Z" fill="#F43F3E"/>
<path d="M36.9732 25.5866C37.2266 25.5866 37.4799 25.4933 37.6799 25.2933L39.3866 23.5866C39.7732 23.2 39.7732 22.56 39.3866 22.1733C38.9999 21.7866 38.3599 21.7866 37.9732 22.1733L36.2666 23.88C35.8799 24.2666 35.8799 24.9066 36.2666 25.2933C36.4666 25.4933 36.7199 25.5866 36.9732 25.5866Z" fill="#F43F3E"/>
<path d="M40.9335 39.52L44.1735 37.52C45.0001 37.0134 45.4401 36.0933 45.3201 35.1467C45.2001 34.1867 44.5601 33.4 43.6401 33.1067L32.6134 29.52C31.7201 29.24 30.7735 29.4667 30.1201 30.12C29.4668 30.7733 29.2401 31.7334 29.5201 32.6L33.1068 43.64C33.4001 44.56 34.1868 45.2 35.1335 45.32C35.2401 45.3333 35.3468 45.3333 35.4401 45.3333C36.2934 45.3333 37.0668 44.9067 37.5201 44.1733L39.5201 40.9334L43.5601 44.9734C43.7601 45.1734 44.0135 45.2667 44.2668 45.2667C44.5201 45.2667 44.7735 45.1734 44.9735 44.9734C45.3601 44.5867 45.3601 43.9467 44.9735 43.56L40.9335 39.52Z" fill="#F43F3E"/>
</svg>
