<svg width="130" height="36" viewBox="0 0 130 36" fill="none" xmlns="http://www.w3.org/2000/svg">
<g id="Component 33" clip-path="url(#clip0_759_11179)">
<path id="Vector" fill-rule="evenodd" clip-rule="evenodd" d="M36.3237 30.5728L39.5125 0.59868H44.8387L43.4897 13.0729C44.2956 11.9516 45.1746 11.074 46.1265 10.4399C47.0784 9.80584 48.0859 9.48883 49.1487 9.48883C49.8965 9.48883 50.5797 9.63899 51.1988 9.93935C51.8178 10.2397 52.3521 10.7102 52.8019 11.3509C53.2515 11.9917 53.602 12.8093 53.853 13.8037C54.1043 14.7982 54.2298 15.9829 54.2298 17.3578C54.2298 19.1732 53.9875 20.8985 53.5026 22.5337C53.0179 24.1689 52.3667 25.6072 51.549 26.8487C50.7316 28.09 49.7884 29.0746 48.7197 29.802C47.6509 30.5295 46.5325 30.8934 45.3644 30.8934C44.465 30.8934 43.6737 30.6963 42.9905 30.3025C42.307 29.9088 41.726 29.3915 41.247 28.7508L41.1945 28.9511C40.9119 29.9197 40.1203 30.5728 39.2287 30.5728H36.3237ZM46.9762 14.1942C46.5909 14.1942 46.1908 14.361 45.776 14.6948C45.3616 15.0285 44.9614 15.4857 44.5759 16.0663C44.1906 16.647 43.8315 17.3278 43.4985 18.1087C43.1655 18.8896 42.8883 19.7205 42.6662 20.6015L42.1405 25.447C42.4794 25.7673 42.8591 25.9943 43.2794 26.1278C43.7001 26.2612 44.103 26.3281 44.4883 26.3281C45.1192 26.3281 45.7002 26.0877 46.2318 25.6072C46.7631 25.1266 47.2216 24.496 47.6071 23.7151C47.9924 22.9342 48.2932 22.0432 48.5093 21.042C48.7253 20.0409 48.8334 19.0197 48.8334 17.9785C48.8334 16.657 48.6641 15.6959 48.3254 15.0952C47.9865 14.4945 47.5369 14.1942 46.9762 14.1942ZM70.5589 30.5728H68.519C67.0581 30.5728 65.8738 29.2163 65.8738 27.5428C65.8738 27.4043 65.882 27.266 65.8985 27.1289C65.151 28.3036 64.3215 29.2248 63.4106 29.8922C62.4994 30.5597 61.495 30.8934 60.397 30.8934C59.7428 30.8934 59.1121 30.7432 58.5047 30.4427C57.8974 30.1423 57.3602 29.6885 56.8929 29.0811C56.4257 28.4738 56.0519 27.6996 55.7717 26.7585C55.4912 25.8174 55.3511 24.7062 55.3511 23.4247C55.3511 21.5426 55.6518 19.7572 56.2533 18.0686C56.855 16.38 57.696 14.9017 58.7763 13.6336C59.8568 12.3654 61.1387 11.3576 62.6221 10.6101C64.1056 9.86257 65.7348 9.48883 67.5103 9.48883C68.3746 9.48883 69.2507 9.55557 70.1383 9.68906C71.0262 9.82254 71.902 10.0628 72.7666 10.4099L70.5589 30.5728ZM62.5696 25.9878C62.9667 25.9878 63.3522 25.8174 63.7259 25.4771C64.0997 25.1366 64.453 24.6728 64.786 24.0855C65.1187 23.4981 65.4254 22.8107 65.7056 22.0231C65.9861 21.2356 66.2256 20.3946 66.4241 19.5003L67.0548 13.7537H66.7395C65.8516 13.7537 65.0429 13.9806 64.3128 14.4345C63.5828 14.8883 62.9551 15.5057 62.4295 16.2866C61.9038 17.0675 61.4978 17.9752 61.2117 19.0097C60.9255 20.0442 60.7826 21.1488 60.7826 22.3235C60.7826 22.9909 60.8292 23.5582 60.9227 24.0254C61.016 24.4926 61.1417 24.8697 61.2993 25.1568C61.4571 25.4438 61.6438 25.6541 61.86 25.7875C62.076 25.9209 62.3127 25.9878 62.5696 25.9878ZM73.9929 30.5728L76.2005 9.8092H77.387C79.2753 9.8092 80.8061 11.5627 80.8061 13.7257C80.8061 13.8487 80.8009 13.9716 80.7908 14.0941C81.4917 12.6791 82.2509 11.5912 83.0686 10.8303C83.8863 10.0695 84.733 9.68906 85.609 9.68906C86.0996 9.68906 86.5843 9.81586 87.0633 10.0695L86.0822 15.816C85.4863 15.5224 84.9199 15.3755 84.3825 15.3755C83.4831 15.3755 82.6862 15.8394 81.9912 16.7671C81.2962 17.6949 80.7326 19.1866 80.3002 21.2422L79.3191 30.5728H73.9929ZM88.8854 26.0877V25.7474C88.8854 25.614 88.8941 25.4236 88.9116 25.1767C88.9292 24.9298 88.9584 24.6028 88.9992 24.1956C89.0401 23.7885 89.0957 23.2512 89.1657 22.5838L90.0943 14.0941H88.64C88.4182 14.0941 88.2314 14.0107 88.0795 13.8438C87.9276 13.6769 87.8518 13.4267 87.8518 13.093C87.8518 13.0796 87.8633 12.9628 87.8866 12.7425C87.9102 12.5223 87.9335 12.2887 87.9568 12.0417C87.9801 11.7948 88.0034 11.5645 88.027 11.3509C88.0503 11.1374 88.0618 11.0172 88.0618 10.9905L88.1909 9.84923L90.8653 9.8092L91.3432 6.1552C91.5217 4.79136 92.5443 3.78232 93.7484 3.78232H96.5243L95.8585 9.84923H99.9234L99.8878 10.1808C99.6479 12.4152 97.9911 14.0941 96.0258 14.0941H95.4031L94.527 22.2434C94.4686 22.7907 94.4248 23.2212 94.3956 23.5349C94.3664 23.8486 94.3431 24.0888 94.3256 24.2557C94.3135 24.3691 94.3018 24.4826 94.2905 24.5961C94.2846 24.6562 94.2818 24.6929 94.2818 24.7062C94.2818 25.0933 94.3605 25.4171 94.5183 25.6774C94.6758 25.9377 94.9241 26.0677 95.263 26.0677C95.4497 26.0677 95.6044 26.0444 95.7271 25.9977C95.8089 25.9666 96.0981 25.8364 96.5945 25.6072L98.3815 29.0911C97.6573 29.6919 96.8806 30.1423 96.0512 30.4427C95.222 30.7432 94.3869 30.8934 93.5459 30.8934C92.845 30.8934 92.2143 30.783 91.6536 30.5628C91.0931 30.3426 90.6112 30.0223 90.2083 29.6018C89.8053 29.1813 89.49 28.6774 89.262 28.09C89.0343 27.5027 88.9087 26.8353 88.8854 26.0877ZM115.972 14.915C115.972 15.8628 115.809 16.7304 115.481 17.518C115.155 18.3056 114.585 19.003 113.773 19.6104C112.962 20.2177 111.87 20.735 110.497 21.1622C109.124 21.5893 107.399 21.923 105.32 22.1633C105.343 23.5782 105.615 24.6127 106.134 25.2669C106.654 25.9209 107.422 26.2478 108.438 26.2478C108.917 26.2478 109.332 26.2012 109.682 26.1078C110.033 26.0143 110.339 25.8942 110.602 25.7474C112.177 24.8675 114.06 25.1663 115.367 26.5038L115.587 26.7286C114.944 27.4493 114.316 28.0734 113.703 28.6006C113.09 29.1278 112.459 29.5617 111.811 29.9022C111.163 30.2425 110.474 30.4928 109.744 30.653C109.014 30.8132 108.216 30.8934 107.352 30.8934C106.277 30.8934 105.29 30.6831 104.391 30.2626C103.492 29.8422 102.718 29.2481 102.07 28.4806C101.421 27.713 100.919 26.7886 100.563 25.7073C100.206 24.6261 100.028 23.4247 100.028 22.1032C100.028 20.9953 100.137 19.9141 100.353 18.8595C100.569 17.805 100.878 16.8139 101.281 15.8861C101.684 14.9584 102.178 14.1041 102.762 13.3232C103.346 12.5423 104.003 11.8715 104.733 11.3109C105.463 10.7503 106.263 10.3131 107.133 9.99941C108.003 9.68573 108.929 9.52888 109.91 9.52888C110.879 9.52888 111.741 9.68906 112.494 10.0094C113.248 10.3298 113.881 10.7469 114.395 11.2608C114.909 11.7748 115.301 12.3521 115.569 12.9928C115.838 13.6336 115.972 14.2743 115.972 14.915ZM109.595 13.7136C108.695 13.7136 107.907 14.1241 107.229 14.9451C106.552 15.766 106.044 16.8906 105.705 18.3189C106.838 18.1187 107.755 17.9084 108.456 17.6882C109.157 17.4679 109.7 17.2277 110.085 16.9674C110.471 16.7071 110.731 16.4268 110.865 16.1264C110.999 15.8261 111.066 15.5024 111.066 15.1553C111.066 14.8082 110.95 14.4812 110.716 14.1742C110.482 13.8672 110.109 13.7136 109.595 13.7136ZM116.883 30.5728L119.091 9.8092H119.94C122.006 9.8092 123.681 11.7276 123.681 14.0941C124.382 12.6791 125.141 11.5912 125.959 10.8303C126.776 10.0695 127.623 9.68906 128.499 9.68906C128.99 9.68906 129.475 9.81586 129.953 10.0695L128.972 15.816C128.377 15.5224 127.81 15.3755 127.273 15.3755C126.373 15.3755 125.576 15.8394 124.881 16.7671C124.186 17.6949 123.623 19.1866 123.191 21.2422L122.209 30.5728H116.883Z" fill="black"/>
<path id="Vector_2" d="M22.5362 15.4143C26.7846 11.7273 35.524 -1.45048 21.8686 0.870996C15.9208 1.82688 8.5477 7.41337 6.78766 14.3778C5.86942 12.5155 4.85619 10.7145 3.75308 8.98378C2.11442 6.59403 -1.13344 8.92787 0.687292 11.3859C5.84608 18.4186 9.42685 26.8851 9.42685 35.42C9.8517 31.1867 10.5505 25.5072 8.97256 20.4546C9.54997 20.9018 9.5918 20.9353 9.99374 21.4806C12.7855 26.2602 17.074 30.2307 21.8686 32.1426C26.2385 33.9862 32.0647 32.8937 29.6978 25.5196C28.4233 21.4911 25.4493 17.9407 22.5362 15.4143Z" fill="#8C8C8C"/>
</g>
<defs>
<clipPath id="clip0_759_11179">
<rect width="130" height="35" fill="white" transform="translate(0 0.5)"/>
</clipPath>
</defs>
</svg>
