<svg width="196" height="61" viewBox="0 0 196 61" fill="none" xmlns="http://www.w3.org/2000/svg">
<path d="M54.375 41.6731C54.375 41.6731 70.4037 52.3343 82.3886 38.8028C94.3736 25.33 96.0788 5.29642 109.964 6.9366C109.964 6.9366 104.702 17.0705 99.7815 26.3258C94.8608 35.5811 74.6423 62.9954 54.4237 41.6731L54.375 41.6731Z" fill="#F1A142"/>
<path d="M20.1665 8.24293C23.0225 10.8152 25.977 14.1474 29.03 18.415C47.1511 43.7284 58.526 52.2052 72.9046 48.9314C72.9046 48.9314 58.2305 48.9899 37.155 16.8951C31.2952 7.95062 25.4846 2.8061 20.1665 0L20.1665 8.30139L20.1665 8.24293Z" fill="#FFB154"/>
<path d="M125.231 38.745C125.231 38.745 131.417 41.163 136.154 23.6469C140.89 6.18973 152.248 9.19755 152.248 9.19755L148.237 12.7362L152.2 16.9235C152.2 16.9235 146.642 15.5671 143.984 25.1213C140.455 37.7424 136.154 42.5785 130.402 43.1682C124.603 43.699 125.183 38.804 125.183 38.804L125.231 38.745Z" fill="#F1A142"/>
<path d="M135.45 41.3743C135.45 41.3743 128.403 45.6802 123.606 34.2787C118.808 22.8771 119.008 1.34764 102.667 8.38263C102.667 8.38263 110.413 12.1427 113.211 26.3946C115.96 40.6465 125.705 49.8648 135.45 41.3743Z" fill="#FFB154"/>
<path d="M0 48C0 48 5.22152 53.314 9.64989 52.9175C9.64989 52.9175 10.8396 63.3869 16.5899 70.6045C16.5899 70.6045 12.1615 72.3494 6.34513 67.8285C6.34513 67.8285 -0.660951 57.6763 0.0660951 48.0793L0 48Z" fill="#7065F0"/>
<path d="M179 40C179 40 184.222 34.686 188.65 35.0825C188.65 35.0825 189.84 24.6131 195.59 17.3955C195.59 17.3955 191.162 15.6506 185.345 20.1715C185.345 20.1715 178.339 30.3237 179.066 39.9207L179 40Z" fill="#B38FFF"/>
</svg>
