<svg width="132" height="40" viewBox="0 0 132 40" fill="none" xmlns="http://www.w3.org/2000/svg">
<path d="M4.2592 15.0793C4.2592 15.0793 6.17595 23.0107 11.5297 28.8799C11.5297 28.8799 7.96052 35.2251 8.75366 39.0321C8.75366 39.0321 -5.52287 30.5455 4.2592 15V15.0793Z" fill="#9F97F5"/>
<path d="M131.59 38C131.59 38 126.368 32.686 121.94 33.0825C121.94 33.0825 120.75 22.6131 115 15.3955C115 15.3955 119.428 13.6506 125.245 18.1715C125.245 18.1715 132.251 28.3237 131.524 37.9207L131.59 38Z" fill="#4D92DF"/>
<path d="M59.1665 22.9355C59.1665 22.9355 64.388 17.6215 68.8164 18.0181C68.8164 18.0181 70.0061 7.54863 75.7564 0.331051C75.7564 0.331051 71.328 -1.41386 65.5116 3.10704C65.5116 3.10704 58.5056 13.2592 59.2326 22.8562L59.1665 22.9355Z" fill="#FFB154"/>
</svg>
