<svg width="64" height="64" viewBox="0 0 64 64" fill="none" xmlns="http://www.w3.org/2000/svg">
<rect width="64" height="64" rx="32" fill="#FDEDED"/>
<path d="M34.5469 35.9333C35.7069 34.96 36.9336 33.64 37.9336 31.9066C39.4536 29.28 39.8935 26.6666 39.9602 24.7733C39.9735 24.4933 39.9736 24.24 39.9736 24.0133C39.7469 24.0133 39.4935 24.0266 39.2135 24.0266C37.3202 24.0933 34.7069 24.5333 32.0802 26.0533C30.3469 27.0533 29.0269 28.28 28.0535 29.44C27.8269 29.7066 27.6135 29.9733 27.4269 30.2266C27.2135 30.52 27.0269 30.8 26.8535 31.0666L29.1869 33.4L21.4135 41.1733C21.0269 41.56 21.0269 42.2 21.4135 42.5866C21.8002 42.9733 22.4402 42.9733 22.8269 42.5866L30.6002 34.8133L32.9335 37.1466C33.2002 36.9733 33.4802 36.7866 33.7735 36.5733C34.0269 36.3733 34.2802 36.16 34.5469 35.9333Z" fill="#F43F3E"/>
<path d="M26.6536 28.04C27.7336 26.7734 29.1869 25.4534 31.0936 24.3334C33.0936 23.1867 35.0669 22.5734 36.8136 22.2934C37.3603 22.2 37.8803 22.1334 38.3736 22.0934C38.9603 22.04 39.4936 22.0267 39.9736 22.0267C34.2003 17.2667 25.6269 17.5734 20.2136 22.9734C20.2136 22.9734 20.2003 22.9867 20.1869 22.9867L18.9736 24.2C18.5869 24.5867 18.5869 25.2267 18.9736 25.6134C19.3603 26 20.0003 26 20.3869 25.6134L20.8936 25.1067L25.4269 29.64C25.6136 29.3734 25.8136 29.1067 26.0269 28.8267C26.2003 28.56 26.4136 28.2934 26.6536 28.04Z" fill="#F43F3E"/>
<path d="M24.8801 30.4533C24.6401 30.8533 24.7067 31.36 25.0267 31.68C25.0801 31.7333 25.1467 31.7867 25.2267 31.8267C25.6934 32.1067 26.3067 31.96 26.6001 31.48C26.6801 31.3467 26.7734 31.2134 26.8534 31.08L25.4134 29.64C25.2134 29.92 25.0401 30.2 24.8801 30.4533Z" fill="#F43F3E"/>
<path d="M32.5202 37.4001C32.0402 37.6934 31.8935 38.2934 32.1735 38.7734C32.2135 38.8534 32.2535 38.9201 32.3202 38.9734C32.6402 39.2934 33.1469 39.3734 33.5469 39.1201C33.8135 38.9734 34.0802 38.7867 34.3735 38.5867L32.9335 37.1467C32.7869 37.2267 32.6535 37.3201 32.5202 37.4001Z" fill="#F43F3E"/>
<path d="M41.0402 43.8C46.4402 38.3867 46.7469 29.8134 41.9869 24.04C41.9869 24.5067 41.9735 25.0534 41.9202 25.64C41.8802 26.1334 41.8135 26.6534 41.7202 27.2C41.4269 28.9467 40.8269 30.92 39.6802 32.92C38.5735 34.8267 37.2535 36.28 35.9735 37.36C35.7202 37.6 35.4535 37.8 35.1869 37.9867C34.9069 38.2 34.6402 38.4 34.3735 38.5867L38.9069 43.12L38.4002 43.6267C38.0135 44.0134 38.0135 44.6534 38.4002 45.04C38.7869 45.4267 39.4269 45.4267 39.8135 45.04L41.0269 43.8267C41.0269 43.8134 41.0269 43.8 41.0402 43.8Z" fill="#F43F3E"/>
</svg>
