<svg width="192" height="36" viewBox="0 0 192 36" fill="none" xmlns="http://www.w3.org/2000/svg">
<g id="Component 33" clip-path="url(#clip0_759_11178)">
<path id="Vector" d="M17.7527 0.534792H7.82296L7.80393 0.568887L6.43351 3.0342H17.7527C26.1373 3.0342 32.9387 9.74891 32.9387 18.032C32.9387 26.3151 26.1394 33.0298 17.7527 33.0298C9.366 33.0298 2.56603 26.3144 2.56603 18.032C2.56535 16.4652 2.8138 14.908 3.30233 13.4173H6.2017C4.14637 18.4332 5.64996 24.1864 9.9066 27.5934C14.1632 31.0005 20.174 31.2617 24.7173 28.2372C29.2606 25.2128 31.2703 19.6122 29.6691 14.4374C28.068 9.2626 23.2318 5.72786 17.7527 5.72773H4.93697L3.54823 8.22644H17.7527C22.2148 8.22734 26.1281 11.1681 27.3185 15.4151C28.5089 19.662 26.6839 24.1715 22.8574 26.4382C19.0309 28.705 14.1431 28.172 10.9096 25.1354C7.67601 22.0988 6.89121 17.3047 8.99116 13.4166H12.2759C10.0834 15.9584 9.97737 19.6646 12.021 22.3246C14.0647 24.9847 17.7074 25.882 20.7766 24.4813C23.8458 23.0806 25.5146 19.7594 24.7876 16.4984C24.0606 13.2374 21.1338 10.9154 17.7527 10.9172H2.05168L0.662239 13.4173C0.246332 14.9211 0.035444 16.4731 0.0351562 18.032C0.0351562 27.6949 7.9674 35.5292 17.7527 35.5292C27.538 35.5292 35.4703 27.6949 35.4703 18.032C35.4703 8.36909 27.5373 0.534792 17.7527 0.534792ZM17.7527 13.4173C20.3334 13.4173 22.4255 15.4834 22.4255 18.032C22.4255 20.5806 20.3334 22.6467 17.7527 22.6467C15.172 22.6467 13.0799 20.5806 13.0799 18.032C13.0799 15.4834 15.172 13.4173 17.7527 13.4173ZM43.2581 18.4015C43.2581 13.5405 46.5605 10.1253 51.513 10.1253C54.566 10.1253 57.0581 11.4474 58.3665 13.6636L55.501 15.6634C54.597 14.2474 53.2266 13.5711 51.6067 13.5711C48.9293 13.5711 47.1523 15.4498 47.1523 18.4015C47.1523 21.324 48.9279 23.2312 51.6067 23.2312C53.2273 23.2312 54.597 22.5236 55.501 21.1083L58.3665 23.1081C57.0581 25.3542 54.566 26.6463 51.513 26.6463C46.5605 26.6463 43.2581 23.2312 43.2581 18.4015ZM58.9048 18.4015C58.9048 13.848 62.1762 10.1253 67.2542 10.1253C72.3631 10.1253 75.6028 13.848 75.6028 18.4015C75.6028 22.9244 72.3617 26.6463 67.2542 26.6463C62.1797 26.6463 58.9048 22.9237 58.9048 18.4015ZM71.7086 18.4015C71.7086 15.5403 69.995 13.5405 67.2542 13.5405C64.5133 13.5405 62.7991 15.5403 62.7991 18.4015C62.7991 21.2314 64.5126 23.2312 67.2542 23.2312C69.9957 23.2312 71.7086 21.2314 71.7086 18.4015ZM100.549 10.5547L95.6878 26.2142H91.5829L88.1466 15.1694L84.68 26.2142H80.5695L75.736 10.5547H79.507L82.791 21.8451L86.3182 10.5547H89.9673L93.4951 21.8451L96.7482 10.5547H100.549ZM153.953 10.5547L149.087 26.2142H144.982L141.546 15.1694L138.079 26.2142H133.977L129.142 10.5582H132.913L136.197 21.8486L139.721 10.5547H143.37L146.898 21.8451L150.152 10.5547H153.953ZM111.924 10.4948V14.0018C111.347 13.9074 110.764 13.856 110.179 13.848C107.406 13.848 105.942 15.2327 105.942 18.4933V26.217H102.144V10.5547H105.878V13.171C106.658 11.3563 108.37 10.2791 110.551 10.2791C111.018 10.2701 111.483 10.3432 111.924 10.4948ZM127.692 10.5547V24.6451C127.692 29.9063 124.732 32.7974 119.498 32.7974C116.788 32.7974 114.296 31.9979 112.8 30.6132L114.514 27.8752C115.852 28.9189 117.598 29.4442 119.28 29.4442C122.208 29.4442 123.953 27.8139 123.953 24.643V23.2924C123.05 25.0153 121.118 26.0611 118.781 26.0611C115.417 26.0611 113.299 23.9695 113.299 20.1543V10.5547H117.099V19.201C117.099 21.6009 118.096 22.6467 120.09 22.6467C122.395 22.6467 123.922 21.2627 123.922 18.9853V10.5547H127.692ZM154.953 5.60318C154.953 4.24911 155.919 3.26451 157.383 3.26451C158.815 3.26451 159.778 4.24911 159.778 5.60318C159.778 6.95726 158.812 7.94115 157.383 7.94115C155.919 7.94115 154.953 6.95656 154.953 5.60318ZM155.483 10.5561H159.283V26.2156H155.483V10.5561ZM161.195 23.6619L163.251 21.2926C164.497 22.6467 166.429 23.4462 168.454 23.4462C170.261 23.4462 171.258 22.7699 171.258 21.7853C171.258 20.9545 170.634 20.4319 169.046 20.0624L166.46 19.4779C163.158 18.709 161.756 17.2012 161.756 15.0476C161.756 12.1558 164.186 10.1253 168.298 10.1253C171.102 10.1253 173.438 11.0786 174.809 12.6178L172.784 15.0476C171.413 13.8786 169.855 13.3248 168.204 13.3248C166.428 13.3248 165.556 13.9712 165.556 14.9251C165.556 15.6634 166.085 16.1248 167.768 16.4935L170.509 17.14C173.842 17.8782 175.057 19.3854 175.057 21.539C175.057 24.6465 172.627 26.6463 168.422 26.6463C165.276 26.6463 162.629 25.4773 161.195 23.6619ZM191.936 19.5085H180.128C180.533 22.0316 182.215 23.385 184.8 23.385C186.576 23.385 188.071 22.7393 189.224 21.4158L191.498 23.6313C190.003 25.5386 187.604 26.6463 184.676 26.6463C179.629 26.6463 176.264 23.385 176.264 18.4627C176.264 13.6017 179.505 10.1253 184.302 10.1253C188.912 10.1253 192.027 13.2941 192.027 18.0626C192.027 18.546 191.996 19.0289 191.936 19.5085ZM180.128 16.9563H188.23C188.044 14.6482 186.61 13.3874 184.337 13.3874C181.998 13.3867 180.534 14.7094 180.128 16.9563Z" fill="#7B7B7B"/>
</g>
<defs>
<clipPath id="clip0_759_11178">
<rect width="192" height="35" fill="white" transform="translate(0 0.5)"/>
</clipPath>
</defs>
</svg>
