<svg width="64" height="64" viewBox="0 0 64 64" fill="none" xmlns="http://www.w3.org/2000/svg">
<rect width="64" height="64" rx="32" fill="#FDEDED"/>
<path d="M37.8799 42.1866C33.9999 40.3066 31.5066 36.3066 31.5066 32C31.5066 27.6933 33.9999 23.6933 37.8799 21.8133C38.2132 21.6533 38.4399 21.2933 38.4399 20.92C38.4399 20.5333 38.2265 20.1866 37.8799 20.0133C36.0532 19.12 34.0932 18.6666 32.0399 18.6666C24.6932 18.6666 18.7065 24.6533 18.7065 32C18.7065 39.3466 24.6932 45.3333 32.0399 45.3333C34.0932 45.3333 36.0532 44.88 37.8799 43.9866C38.2265 43.8133 38.4399 43.4666 38.4399 43.08C38.4399 42.7066 38.2132 42.3466 37.8799 42.1866Z" fill="#F43F3E"/>
<path d="M38.1067 31.0266C38.1067 31.0266 38.0934 31.0266 38.0934 31.0133L37.6133 30.84C37.5067 30.8133 37.4267 30.72 37.3867 30.6266L37.2267 30.1733C37.08 29.7733 36.6667 29.48 36.24 29.48C35.8133 29.48 35.4 29.76 35.2534 30.16L35.08 30.6266C35.04 30.72 34.96 30.8133 34.8534 30.84L34.3867 31.0133C34 31.16 33.6934 31.5733 33.6934 32C33.6934 32.4133 33.9867 32.84 34.3867 32.9866L34.8534 33.1466C34.96 33.1866 35.04 33.28 35.08 33.3733L35.2667 33.8533C35.4133 34.24 35.8267 34.52 36.24 34.52C36.6533 34.52 37.0667 34.24 37.2134 33.84L37.3867 33.3733C37.4267 33.2666 37.5067 33.1866 37.6133 33.16L38.1067 32.9733C38.4933 32.8266 38.7733 32.4133 38.7733 32C38.7733 31.5866 38.4933 31.1733 38.1067 31.0266Z" fill="#F43F3E"/>
<path d="M44.6001 38.08L44.1334 37.9066C44.0267 37.88 43.9467 37.7866 43.9067 37.6933L43.7334 37.24C43.6 36.84 43.1734 36.5466 42.7467 36.5466C42.3334 36.5466 41.92 36.8266 41.7734 37.2266L41.6001 37.6933C41.5601 37.7866 41.48 37.88 41.3734 37.9066L40.88 38.0933C40.4934 38.24 40.2134 38.6533 40.2134 39.0666C40.2134 39.4933 40.5067 39.9066 40.8934 40.0533L41.3734 40.2133C41.48 40.2533 41.5601 40.3333 41.6001 40.44L41.7734 40.92C41.92 41.3066 42.3334 41.5866 42.7467 41.5866C43.1734 41.5866 43.5867 41.3066 43.7334 40.9066L43.9067 40.44C43.9467 40.3333 44.0267 40.2533 44.1334 40.2133L44.6001 40.0533C45.0001 39.9066 45.2934 39.4933 45.2934 39.0666C45.2934 38.64 45.0001 38.2266 44.6001 38.08Z" fill="#F43F3E"/>
<path d="M44.6001 24.32L44.1334 24.1466C44.0267 24.1066 43.9467 24.0266 43.9067 23.92L43.7334 23.4666C43.6 23.0666 43.1734 22.7733 42.7467 22.7733C42.3334 22.7733 41.92 23.0666 41.7734 23.4533L41.6001 23.92C41.5601 24.0266 41.48 24.1066 41.3734 24.1466L40.88 24.3333C40.4934 24.48 40.2134 24.8933 40.2134 25.3066C40.2134 25.72 40.5067 26.1466 40.8934 26.28L41.3734 26.4533C41.48 26.4933 41.5601 26.5733 41.6001 26.68L41.7734 27.16C41.92 27.5466 42.3334 27.8266 42.7467 27.8266C43.1734 27.8266 43.5867 27.5333 43.7334 27.1466L43.9067 26.68C43.9467 26.5733 44.0267 26.4933 44.1334 26.4533L44.6001 26.28C45.0001 26.1466 45.2934 25.72 45.2934 25.3066C45.2934 24.88 45.0001 24.4666 44.6001 24.32Z" fill="#F43F3E"/>
</svg>
