<svg width="110" height="92" viewBox="0 0 110 92" fill="none" xmlns="http://www.w3.org/2000/svg">
<g id="Group 76">
<g id="Oval Copy" filter="url(#filter0_d_736_12476)">
<path d="M54.9941 49.7008C68.798 49.7008 79.9883 38.5749 79.9883 24.8504C79.9883 11.1259 68.798 0 54.9941 0C41.1903 0 30 11.1259 30 24.8504C30 38.5749 41.1903 49.7008 54.9941 49.7008Z" fill="white"/>
<path d="M54.9941 49.7008C68.798 49.7008 79.9883 38.5749 79.9883 24.8504C79.9883 11.1259 68.798 0 54.9941 0C41.1903 0 30 11.1259 30 24.8504C30 38.5749 41.1903 49.7008 54.9941 49.7008Z" stroke="white"/>
</g>
<path id="Shape" d="M53.6945 32.1975L53.674 25.9382H50.9961V23.2557H53.674V21.4673C53.674 19.0538 55.1661 17.8906 57.3155 17.8906C58.3451 17.8906 59.2299 17.9674 59.4878 18.0017V20.524L57.9971 20.5247C56.8281 20.5247 56.6018 21.0811 56.6018 21.8977V23.2557H59.9226L59.0299 25.9382H56.6018V32.1975H53.6945Z" fill="#2E2F35"/>
</g>
<defs>
<filter id="filter0_d_736_12476" x="0" y="-18" width="109.988" height="109.701" filterUnits="userSpaceOnUse" color-interpolation-filters="sRGB">
<feFlood flood-opacity="0" result="BackgroundImageFix"/>
<feColorMatrix in="SourceAlpha" type="matrix" values="0 0 0 0 0 0 0 0 0 0 0 0 0 0 0 0 0 0 127 0" result="hardAlpha"/>
<feOffset dy="12"/>
<feGaussianBlur stdDeviation="15"/>
<feColorMatrix type="matrix" values="0 0 0 0 0 0 0 0 0 0 0 0 0 0 0 0 0 0 0.08 0"/>
<feBlend mode="normal" in2="BackgroundImageFix" result="effect1_dropShadow_736_12476"/>
<feBlend mode="normal" in="SourceGraphic" in2="effect1_dropShadow_736_12476" result="shape"/>
</filter>
</defs>
</svg>
