<svg width="95" height="28" viewBox="0 0 95 28" fill="none" xmlns="http://www.w3.org/2000/svg">
<g id="Group 1554">
<path id="Vector" d="M40.9419 6.39521C40.9419 7.12934 40.7557 7.7717 40.2902 8.23053C39.7315 8.78112 39.0798 9.05642 38.2418 9.05642C37.4038 9.05642 36.7521 8.78112 36.1934 8.23053C35.6348 7.67993 35.3555 7.03757 35.3555 6.21168C35.3555 5.38579 35.6348 4.74343 36.1934 4.19283C36.7521 3.64224 37.4038 3.36694 38.2418 3.36694C38.6142 3.36694 38.9867 3.45871 39.3591 3.64224C39.7315 3.82577 40.0109 4.0093 40.1971 4.2846L39.7315 4.74343C39.3591 4.2846 38.8936 4.10107 38.2418 4.10107C37.6832 4.10107 37.1245 4.2846 36.7521 4.74343C36.2865 5.11049 36.1003 5.66109 36.1003 6.30345C36.1003 6.94581 36.2865 7.4964 36.7521 7.86346C37.2176 8.23053 37.6832 8.50582 38.2418 8.50582C38.8936 8.50582 39.3591 8.32229 39.8246 7.86346C40.104 7.58817 40.2902 7.2211 40.2902 6.76227H38.2418V6.02815H40.9419V6.39521ZM45.2249 4.10107H42.711V5.84462H45.0387V6.48698H42.711V8.23053H45.2249V8.96465H41.9661V3.45871H45.2249V4.10107ZM48.2975 8.96465H47.5526V4.10107H45.9698V3.45871H49.8803V4.10107H48.2975V8.96465ZM52.5804 8.96465V3.45871H53.3253V8.96465H52.5804ZM56.491 8.96465H55.7461V4.10107H54.1633V3.45871H57.9807V4.10107H56.3979V8.96465H56.491ZM65.3362 8.23053C64.7776 8.78112 64.1258 9.05642 63.2878 9.05642C62.4499 9.05642 61.7981 8.78112 61.2395 8.23053C60.6808 7.67993 60.4015 7.03757 60.4015 6.21168C60.4015 5.38579 60.6808 4.74343 61.2395 4.19283C61.7981 3.64224 62.4499 3.36694 63.2878 3.36694C64.1258 3.36694 64.7776 3.64224 65.3362 4.19283C65.8949 4.74343 66.1742 5.38579 66.1742 6.21168C66.1742 7.03757 65.8949 7.67993 65.3362 8.23053ZM61.7981 7.7717C62.1705 8.13876 62.7292 8.41406 63.2878 8.41406C63.8465 8.41406 64.4051 8.23053 64.7776 7.7717C65.15 7.40463 65.4293 6.85404 65.4293 6.21168C65.4293 5.56932 65.2431 5.01873 64.7776 4.65166C64.4051 4.2846 63.8465 4.0093 63.2878 4.0093C62.7292 4.0093 62.1705 4.19283 61.7981 4.65166C61.4257 5.01873 61.1464 5.56932 61.1464 6.21168C61.1464 6.85404 61.3326 7.40463 61.7981 7.7717ZM67.1984 8.96465V3.45871H68.0363L70.7365 7.7717V3.45871H71.4813V8.96465H70.7365L67.8501 4.46813V8.96465H67.1984Z" fill="white" stroke="white" stroke-width="0.370767" stroke-miterlimit="10"/>
<path id="Vector_2" d="M54.2639 16.4856C52.5832 16.4856 51.2526 17.6976 51.2526 19.3808C51.2526 20.9968 52.5832 22.2761 54.2639 22.2761C55.9447 22.2761 57.2752 21.0641 57.2752 19.3808C57.2752 17.6302 55.9447 16.4856 54.2639 16.4856ZM54.2639 21.0641C53.3535 21.0641 52.5832 20.3235 52.5832 19.3135C52.5832 18.3035 53.3535 17.5629 54.2639 17.5629C55.1743 17.5629 55.9447 18.2362 55.9447 19.3135C55.9447 20.3235 55.1743 21.0641 54.2639 21.0641ZM47.751 16.4856C46.0702 16.4856 44.7397 17.6976 44.7397 19.3808C44.7397 20.9968 46.0702 22.2761 47.751 22.2761C49.4317 22.2761 50.7623 21.0641 50.7623 19.3808C50.7623 17.6302 49.4317 16.4856 47.751 16.4856ZM47.751 21.0641C46.8406 21.0641 46.0702 20.3235 46.0702 19.3135C46.0702 18.3035 46.8406 17.5629 47.751 17.5629C48.6614 17.5629 49.4317 18.2362 49.4317 19.3135C49.4317 20.3235 48.6614 21.0641 47.751 21.0641ZM39.9775 17.3609V18.5729H42.9889C42.9188 19.2462 42.6387 19.7848 42.2886 20.1215C41.8684 20.5255 41.1681 20.9968 39.9775 20.9968C38.0867 20.9968 36.6861 19.5828 36.6861 17.7649C36.6861 15.947 38.1567 14.533 39.9775 14.533C40.958 14.533 41.7283 14.937 42.2886 15.4083L43.199 14.533C42.4286 13.8597 41.4482 13.321 40.0476 13.321C37.5264 13.321 35.3555 15.341 35.3555 17.7649C35.3555 20.1888 37.5264 22.2087 40.0476 22.2087C41.4482 22.2087 42.4286 21.8048 43.269 20.9295C44.1094 20.1215 44.3895 18.9769 44.3895 18.1015C44.3895 17.8322 44.3895 17.5629 44.3195 17.3609H39.9775ZM71.7717 18.3035C71.4916 17.6302 70.7913 16.4856 69.2506 16.4856C67.7099 16.4856 66.4493 17.6302 66.4493 19.3808C66.4493 20.9968 67.7099 22.2761 69.3906 22.2761C70.7212 22.2761 71.5616 21.4681 71.8417 20.9968L70.8613 20.3235C70.5112 20.7948 70.091 21.1314 69.3906 21.1314C68.6903 21.1314 68.2701 20.8621 67.92 20.2561L71.9118 18.6402L71.7717 18.3035ZM67.7099 19.2462C67.7099 18.1689 68.6203 17.5629 69.2506 17.5629C69.7408 17.5629 70.231 17.8322 70.3711 18.1689L67.7099 19.2462ZM64.4184 22.0068H65.749V13.5904H64.4184V22.0068ZM62.3175 17.0916C61.9673 16.7549 61.4071 16.4183 60.7068 16.4183C59.2361 16.4183 57.8355 17.6976 57.8355 19.3135C57.8355 20.9295 59.1661 22.1414 60.7068 22.1414C61.4071 22.1414 61.9673 21.8048 62.2475 21.4681H62.3175V21.8721C62.3175 22.9494 61.6872 23.5554 60.7068 23.5554C59.9364 23.5554 59.3762 23.0167 59.2361 22.5454L58.1156 23.0167C58.4658 23.7574 59.3062 24.7 60.7768 24.7C62.3175 24.7 63.5781 23.8247 63.5781 21.7374V16.6203H62.3175V17.0916ZM60.7768 21.0641C59.8664 21.0641 59.0961 20.3235 59.0961 19.3135C59.0961 18.3035 59.8664 17.5629 60.7768 17.5629C61.6872 17.5629 62.3875 18.3035 62.3875 19.3135C62.3875 20.3235 61.6872 21.0641 60.7768 21.0641ZM77.8644 13.5904H74.713V22.0068H76.0436V18.8422H77.8644C79.3351 18.8422 80.7357 17.8322 80.7357 16.2163C80.7357 14.6003 79.3351 13.5904 77.8644 13.5904ZM77.9345 17.6302H76.0436V14.735H77.9345C78.9149 14.735 79.4751 15.543 79.4751 16.1489C79.4051 16.8896 78.8449 17.6302 77.9345 17.6302ZM85.9881 16.4183C85.0076 16.4183 84.0272 16.8223 83.677 17.6976L84.8676 18.1689C85.1477 17.6976 85.5679 17.5629 86.0581 17.5629C86.7584 17.5629 87.3887 17.9669 87.4587 18.6402V18.7075C87.2486 18.5729 86.6884 18.3709 86.1281 18.3709C84.8675 18.3709 83.607 19.0442 83.607 20.2561C83.607 21.4008 84.6575 22.1414 85.778 22.1414C86.6884 22.1414 87.1086 21.7374 87.4587 21.3334H87.5287V22.0068H88.7893V18.7749C88.6492 17.2936 87.4587 16.4183 85.9881 16.4183ZM85.848 21.0641C85.4278 21.0641 84.7975 20.8621 84.7975 20.3235C84.7975 19.6502 85.5679 19.4482 86.1981 19.4482C86.7584 19.4482 87.0385 19.5828 87.3887 19.7175C87.2486 20.5255 86.5483 21.0641 85.848 21.0641ZM93.2013 16.6203L91.7306 20.2561H91.6606L90.1199 16.6203H88.7193L91.0303 21.7374L89.6997 24.5653H91.0303L94.6019 16.6203H93.2013ZM81.436 22.0068H82.7666V13.5904H81.436V22.0068Z" fill="white"/>
<g id="Group">
<path id="Vector_3" d="M1.09729 0.883789C0.781158 1.19496 0.675781 1.71358 0.675781 2.33593V25.259C0.675781 25.8813 0.886536 26.4 1.20267 26.7111L1.30804 26.8149L14.3748 13.953V13.7456L1.09729 0.883789Z" fill="url(#paint0_linear_736_12521)"/>
<path id="Vector_4" d="M18.592 18.3161L14.2715 14.0634V13.7522L18.592 9.49951L18.6973 9.60324L23.8608 12.5075C25.3361 13.3373 25.3361 14.6857 23.8608 15.5155L18.592 18.3161Z" fill="url(#paint1_linear_736_12521)"/>
<path id="Vector_5" d="M18.6991 18.2075L14.2732 13.8511L1.10107 26.8166C1.62796 27.3352 2.3656 27.3352 3.314 26.9203L18.6991 18.2075Z" fill="url(#paint2_linear_736_12521)"/>
<path id="Vector_6" d="M18.6991 9.49476L3.314 0.885646C2.3656 0.367024 1.62796 0.470749 1.10107 0.98937L14.2732 13.8512L18.6991 9.49476Z" fill="url(#paint3_linear_736_12521)"/>
<path id="Vector_7" opacity="0.2" d="M18.5932 18.1016L3.31351 26.607C2.47049 27.1256 1.73285 27.0219 1.20596 26.607L1.10059 26.7107L1.20596 26.8144C1.73285 27.2293 2.47049 27.333 3.31351 26.8144L18.5932 18.1016Z" fill="#050410"/>
<path id="Vector_8" opacity="0.2" d="M1.09778 26.6092C0.781646 26.298 0.67627 25.7794 0.67627 25.157V25.2607C0.67627 25.8831 0.887024 26.4017 1.20316 26.7129V26.6092H1.09778ZM23.8593 15.1995L18.5904 18.1038L18.6958 18.2075L23.8593 15.3032C24.5969 14.8883 24.913 14.3697 24.913 13.8511C24.913 14.3697 24.4915 14.7846 23.8593 15.1995Z" fill="#050410"/>
<path id="Vector_9" opacity="0.2" d="M3.31021 0.991646L23.8588 12.505C24.491 12.9199 24.9125 13.3348 24.9125 13.8535C24.9125 13.3348 24.5964 12.8162 23.8588 12.4013L3.31021 0.887922C1.83493 0.0581273 0.675781 0.680473 0.675781 2.34006V2.44379C0.675781 0.887922 1.83493 0.161851 3.31021 0.991646Z" fill="white"/>
</g>
</g>
<defs>
<linearGradient id="paint0_linear_736_12521" x1="13.1103" y1="2.13885" x2="-4.2956" y2="19.8211" gradientUnits="userSpaceOnUse">
<stop stop-color="#00A0FF"/>
<stop offset="0.007" stop-color="#00A1FF"/>
<stop offset="0.26" stop-color="#00BEFF"/>
<stop offset="0.512" stop-color="#00D2FF"/>
<stop offset="0.76" stop-color="#00DFFF"/>
<stop offset="1" stop-color="#00E3FF"/>
</linearGradient>
<linearGradient id="paint1_linear_736_12521" x1="25.7934" y1="13.857" x2="0.295303" y2="13.857" gradientUnits="userSpaceOnUse">
<stop stop-color="#FFE000"/>
<stop offset="0.409" stop-color="#FFBD00"/>
<stop offset="0.775" stop-color="#FFA500"/>
<stop offset="1" stop-color="#FF9C00"/>
</linearGradient>
<linearGradient id="paint2_linear_736_12521" x1="16.3038" y1="16.2326" x2="-7.29879" y2="40.2113" gradientUnits="userSpaceOnUse">
<stop stop-color="#FF3A44"/>
<stop offset="1" stop-color="#C31162"/>
</linearGradient>
<linearGradient id="paint3_linear_736_12521" x1="-2.16878" y1="-6.71112" x2="8.3714" y2="3.99703" gradientUnits="userSpaceOnUse">
<stop stop-color="#32A071"/>
<stop offset="0.069" stop-color="#2DA771"/>
<stop offset="0.476" stop-color="#15CF74"/>
<stop offset="0.801" stop-color="#06E775"/>
<stop offset="1" stop-color="#00F076"/>
</linearGradient>
</defs>
</svg>
