<svg width="111" height="92" viewBox="0 0 111 92" fill="none" xmlns="http://www.w3.org/2000/svg">
<g filter="url(#filter0_d_736_12479)">
<path d="M55.9824 49.7008C69.7863 49.7008 80.9766 38.5749 80.9766 24.8504C80.9766 11.1259 69.7863 0 55.9824 0C42.1785 0 30.9883 11.1259 30.9883 24.8504C30.9883 38.5749 42.1785 49.7008 55.9824 49.7008Z" fill="white"/>
<path d="M55.9824 49.7008C69.7863 49.7008 80.9766 38.5749 80.9766 24.8504C80.9766 11.1259 69.7863 0 55.9824 0C42.1785 0 30.9883 11.1259 30.9883 24.8504C30.9883 38.5749 42.1785 49.7008 55.9824 49.7008Z" stroke="white"/>
</g>
<path d="M55.9529 27.115C57.1154 27.115 58.0679 26.1625 58.0679 25C58.0679 23.8375 57.1154 22.885 55.9529 22.885C54.7904 22.885 53.8379 23.8375 53.8379 25C53.8379 26.1625 54.7904 27.115 55.9529 27.115Z" fill="#2E2F35"/>
<path d="M59.8081 17.5H52.0981C50.0881 17.5 48.4531 19.135 48.4531 21.145V28.855C48.4531 30.865 50.0881 32.5 52.0981 32.5H59.8081C61.8181 32.5 63.4531 30.865 63.4531 28.855V21.145C63.4531 19.135 61.8181 17.5 59.8081 17.5ZM59.8156 21.9325C59.3881 21.9325 59.0431 21.5875 59.0431 21.1675C59.0431 20.74 59.3881 20.395 59.8156 20.395C60.2356 20.395 60.5806 20.74 60.5806 21.1675C60.5806 21.5875 60.2356 21.9325 59.8156 21.9325ZM55.9531 21.76C57.7381 21.76 59.1931 23.215 59.1931 25C59.1931 26.785 57.7381 28.24 55.9531 28.24C54.1681 28.24 52.7131 26.785 52.7131 25C52.7131 23.215 54.1681 21.76 55.9531 21.76Z" fill="#2E2F35"/>
<defs>
<filter id="filter0_d_736_12479" x="0.988281" y="-18" width="109.988" height="109.701" filterUnits="userSpaceOnUse" color-interpolation-filters="sRGB">
<feFlood flood-opacity="0" result="BackgroundImageFix"/>
<feColorMatrix in="SourceAlpha" type="matrix" values="0 0 0 0 0 0 0 0 0 0 0 0 0 0 0 0 0 0 127 0" result="hardAlpha"/>
<feOffset dy="12"/>
<feGaussianBlur stdDeviation="15"/>
<feColorMatrix type="matrix" values="0 0 0 0 0 0 0 0 0 0 0 0 0 0 0 0 0 0 0.08 0"/>
<feBlend mode="normal" in2="BackgroundImageFix" result="effect1_dropShadow_736_12479"/>
<feBlend mode="normal" in="SourceGraphic" in2="effect1_dropShadow_736_12479" result="shape"/>
</filter>
</defs>
</svg>
