<svg width="276" height="47" viewBox="0 0 276 47" fill="none" xmlns="http://www.w3.org/2000/svg">
<rect y="0.562988" width="137.278" height="46" rx="23" fill="#050410"/>
<rect x="148.837" y="1" width="127.163" height="45.5158" rx="22.7579" fill="#050410"/>
<path d="M184.03 22.3572C184.008 19.8816 186.088 18.6784 186.179 18.6231C184.999 16.9359 183.172 16.7008 182.533 16.68C181.002 16.521 179.512 17.5859 178.733 17.5859C177.939 17.5859 176.73 16.7008 175.438 16.7215C173.773 16.7492 172.206 17.6965 171.356 19.1763C169.593 22.1843 170.907 26.6099 172.6 29.0439C173.45 30.2333 174.433 31.5679 175.733 31.5195C176.997 31.4711 177.475 30.7243 179 30.7243C180.517 30.7243 180.96 31.5195 182.28 31.4918C183.643 31.4711 184.493 30.2955 185.315 29.0923C186.292 27.7301 186.685 26.3817 186.699 26.3125C186.664 26.2987 184.058 25.3168 184.03 22.3572Z" fill="white"/>
<path d="M181.534 15.0815C182.216 14.2448 182.68 13.1039 182.553 11.9421C181.569 11.9836 180.333 12.6129 179.623 13.4358C178.998 14.1618 178.435 15.3443 178.576 16.4576C179.686 16.5406 180.825 15.9044 181.534 15.0815Z" fill="white"/>
<path d="M202.382 31.3457H200.612L199.642 28.3446H196.27L195.35 31.3457H193.629L196.966 21.1323H199.031L202.382 31.3457ZM199.354 27.0861L198.476 24.4238C198.385 24.1472 198.209 23.5111 197.956 22.5015H197.921C197.816 22.9371 197.654 23.5802 197.43 24.4238L196.565 27.0861H199.354Z" fill="white"/>
<path d="M210.957 27.5758C210.957 28.8274 210.613 29.8162 209.917 30.5423C209.299 31.1923 208.526 31.5104 207.613 31.5104C206.622 31.5104 205.913 31.1646 205.477 30.4662V34.3317H203.812V26.4002C203.812 25.6119 203.791 24.8098 203.749 23.98H205.21L205.302 25.1486H205.33C205.885 24.2704 206.728 23.8279 207.852 23.8279C208.737 23.8279 209.467 24.1736 210.058 24.8582C210.662 25.5497 210.957 26.4486 210.957 27.5758ZM209.264 27.6311C209.264 26.9119 209.102 26.3242 208.772 25.8609C208.414 25.3768 207.929 25.1348 207.325 25.1348C206.917 25.1348 206.545 25.2731 206.208 25.5359C205.878 25.8056 205.653 26.1513 205.554 26.5869C205.505 26.7875 205.477 26.9534 205.477 27.0848V28.3157C205.477 28.8481 205.646 29.3045 205.976 29.671C206.306 30.0375 206.742 30.2242 207.276 30.2242C207.901 30.2242 208.386 29.9822 208.737 29.512C209.088 29.0348 209.264 28.4125 209.264 27.6311Z" fill="white"/>
<path d="M219.558 27.5758C219.558 28.8274 219.214 29.8162 218.518 30.5423C217.9 31.1923 217.127 31.5104 216.214 31.5104C215.223 31.5104 214.514 31.1646 214.078 30.4662V34.3317H212.413V26.4002C212.413 25.6119 212.392 24.8098 212.35 23.98H213.811L213.903 25.1486H213.931C214.486 24.2704 215.329 23.8279 216.453 23.8279C217.338 23.8279 218.069 24.1736 218.659 24.8582C219.263 25.5497 219.558 26.4486 219.558 27.5758ZM217.865 27.6311C217.865 26.9119 217.703 26.3242 217.373 25.8609C217.015 25.3768 216.53 25.1348 215.926 25.1348C215.518 25.1348 215.146 25.2731 214.809 25.5359C214.479 25.8056 214.261 26.1513 214.156 26.5869C214.106 26.7875 214.078 26.9534 214.078 27.0848V28.3157C214.078 28.8481 214.247 29.3045 214.577 29.671C214.907 30.0375 215.343 30.2242 215.877 30.2242C216.502 30.2242 216.994 29.9822 217.338 29.512C217.696 29.0348 217.865 28.4125 217.865 27.6311Z" fill="white"/>
<path d="M229.186 28.4834C229.186 29.3546 228.877 30.06 228.266 30.6062C227.591 31.2009 226.65 31.4983 225.441 31.4983C224.324 31.4983 223.432 31.2839 222.758 30.8621L223.144 29.4999C223.875 29.9217 224.676 30.136 225.547 30.136C226.172 30.136 226.664 29.9977 227.008 29.7211C227.359 29.4445 227.535 29.0711 227.535 28.6078C227.535 28.1929 227.387 27.8472 227.106 27.5637C226.818 27.2802 226.341 27.0174 225.673 26.7754C223.84 26.1046 222.933 25.1296 222.933 23.8503C222.933 23.0136 223.257 22.329 223.896 21.7897C224.535 21.2572 225.385 20.9875 226.446 20.9875C227.387 20.9875 228.174 21.1466 228.799 21.4716L228.378 22.7993C227.788 22.4881 227.127 22.329 226.383 22.329C225.8 22.329 225.336 22.4743 225.006 22.7509C224.732 23.0067 224.591 23.311 224.591 23.6775C224.591 24.0785 224.753 24.4174 225.069 24.6732C225.343 24.9152 225.849 25.178 226.579 25.4615C227.472 25.8142 228.125 26.2291 228.547 26.7062C228.975 27.1833 229.186 27.778 229.186 28.4834Z" fill="white"/>
<path d="M234.684 25.2132H232.85V28.7883C232.85 29.6941 233.173 30.1505 233.82 30.1505C234.115 30.1505 234.361 30.1228 234.558 30.0744L234.607 31.3191C234.277 31.4367 233.848 31.4989 233.314 31.4989C232.653 31.4989 232.148 31.2984 231.775 30.9042C231.403 30.5101 231.22 29.8462 231.22 28.9196V25.2063H230.131V23.9824H231.22V22.6339L232.85 22.1499V23.9824H234.684V25.2132Z" fill="white"/>
<path d="M242.941 27.6053C242.941 28.7394 242.61 29.666 241.957 30.392C241.269 31.1389 240.355 31.5123 239.217 31.5123C238.121 31.5123 237.243 31.1527 236.59 30.4404C235.936 29.7282 235.613 28.8223 235.613 27.7298C235.613 26.5888 235.95 25.6553 236.618 24.9292C237.292 24.2032 238.199 23.8367 239.337 23.8367C240.433 23.8367 241.318 24.1962 241.985 24.9154C242.624 25.6069 242.941 26.5058 242.941 27.6053ZM241.219 27.6399C241.219 26.9622 241.072 26.3883 240.777 25.9042C240.426 25.3165 239.927 25.026 239.28 25.026C238.613 25.026 238.1 25.3165 237.756 25.9042C237.454 26.3883 237.313 26.9761 237.313 27.6745C237.313 28.3521 237.461 28.933 237.756 29.4101C238.114 29.9979 238.62 30.2883 239.266 30.2883C239.899 30.2883 240.397 29.991 240.763 29.3963C241.065 28.8984 241.219 28.3176 241.219 27.6399Z" fill="white"/>
<path d="M248.347 25.4183C248.186 25.3907 248.01 25.3768 247.82 25.3768C247.237 25.3768 246.78 25.5912 246.464 26.0268C246.19 26.4072 246.049 26.8981 246.049 27.479V31.3444H244.384V26.2965C244.384 25.446 244.37 24.6715 244.335 23.98H245.782L245.846 25.3907H245.895C246.071 24.9066 246.345 24.5125 246.724 24.222C247.096 23.9593 247.497 23.8279 247.926 23.8279C248.08 23.8279 248.221 23.8417 248.34 23.8555L248.347 25.4183Z" fill="white"/>
<path d="M255.774 27.3111C255.774 27.6015 255.753 27.8504 255.711 28.051H250.723C250.744 28.777 250.983 29.3371 251.447 29.7175C251.868 30.0563 252.409 30.2292 253.077 30.2292C253.814 30.2292 254.489 30.1116 255.093 29.8834L255.353 31.0175C254.643 31.3217 253.807 31.4739 252.845 31.4739C251.686 31.4739 250.772 31.135 250.112 30.4643C249.452 29.7935 249.122 28.8877 249.122 27.7605C249.122 26.6541 249.431 25.7275 250.049 24.9876C250.695 24.1993 251.566 23.8052 252.662 23.8052C253.737 23.8052 254.559 24.1993 255.107 24.9876C255.55 25.6238 255.774 26.3914 255.774 27.3111ZM254.187 26.8892C254.201 26.4052 254.088 25.9834 253.864 25.6307C253.576 25.1743 253.133 24.9461 252.543 24.9461C252.002 24.9461 251.559 25.1674 251.222 25.61C250.948 25.9626 250.78 26.3914 250.73 26.8823L254.187 26.8892Z" fill="white"/>
<path d="M198.553 17.478H197.682L197.204 16.0051H195.546L195.089 17.478H194.246L195.883 12.4578H196.895L198.553 17.478ZM197.056 15.3828L196.628 14.0689C196.586 13.9376 196.501 13.6195 196.368 13.1216H196.354C196.297 13.336 196.227 13.6471 196.108 14.0689L195.686 15.3828H197.056Z" fill="white"/>
<path d="M202.656 13.8508L201.264 17.4743H200.47L199.121 13.8508H199.999L200.625 15.7663C200.73 16.0844 200.822 16.3886 200.892 16.679H200.913C200.976 16.4163 201.068 16.112 201.18 15.7663L201.798 13.8508H202.656Z" fill="white"/>
<path d="M205.617 17.4774L205.553 17.0625H205.532C205.279 17.3944 204.921 17.5604 204.457 17.5604C203.797 17.5604 203.333 17.104 203.333 16.4955C203.333 15.6035 204.12 15.1402 205.483 15.1402V15.071C205.483 14.5939 205.223 14.3588 204.717 14.3588C204.352 14.3588 204.036 14.4487 203.755 14.6285L203.586 14.1029C203.923 13.8955 204.352 13.7917 204.851 13.7917C205.813 13.7917 206.298 14.2896 206.298 15.2923V16.6269C206.298 16.9934 206.312 17.2769 206.355 17.4912L205.617 17.4774ZM205.504 15.6726C204.598 15.6726 204.141 15.887 204.141 16.4056C204.141 16.7859 204.373 16.9726 204.703 16.9726C205.118 16.9726 205.504 16.6615 205.504 16.2327V15.6726Z" fill="white"/>
<path d="M208.121 13.2605C207.847 13.2605 207.637 13.053 207.637 12.7764C207.637 12.4998 207.854 12.2993 208.135 12.2993C208.416 12.2993 208.641 12.4998 208.634 12.7764C208.634 13.0669 208.423 13.2605 208.121 13.2605ZM207.728 13.8552H208.543V17.4717H207.728V13.8552Z" fill="white"/>
<path d="M209.994 12.2H210.808V17.4761H209.994V12.2Z" fill="white"/>
<path d="M214.278 17.4799L214.215 17.065H214.194C213.941 17.397 213.582 17.5629 213.118 17.5629C212.458 17.5629 211.994 17.1065 211.994 16.498C211.994 15.606 212.781 15.1427 214.144 15.1427V15.0735C214.144 14.5964 213.884 14.3613 213.378 14.3613C213.013 14.3613 212.697 14.4512 212.416 14.631L212.247 14.0985C212.584 13.8911 213.013 13.7874 213.512 13.7874C214.475 13.7874 214.959 14.2852 214.959 15.2879V16.6225C214.959 16.989 214.973 17.2725 215.009 17.4869H214.278V17.4799ZM214.165 15.6751C213.259 15.6751 212.802 15.8895 212.802 16.4081C212.802 16.7884 213.034 16.9751 213.364 16.9751C213.779 16.9751 214.165 16.664 214.165 16.2352V15.6751Z" fill="white"/>
<path d="M218.276 17.566C217.756 17.566 217.369 17.3516 217.116 16.9229H217.102L217.053 17.483H216.357C216.379 17.1925 216.386 16.8675 216.386 16.508V12.2H217.208V14.392H217.222C217.468 13.9909 217.854 13.7904 218.395 13.7904C219.281 13.7904 219.899 14.5372 219.899 15.6229C219.899 16.7431 219.21 17.566 218.276 17.566ZM218.107 14.4197C217.636 14.4197 217.208 14.8207 217.208 15.3808V16.017C217.208 16.5149 217.594 16.9229 218.093 16.9229C218.704 16.9229 219.07 16.4319 219.07 15.6505C219.07 14.9175 218.69 14.4197 218.107 14.4197Z" fill="white"/>
<path d="M221.108 12.2H221.923V17.4761H221.108V12.2Z" fill="white"/>
<path d="M226.372 15.8666H223.919C223.933 16.5512 224.397 16.9385 225.079 16.9385C225.444 16.9385 225.774 16.8762 226.07 16.7656L226.196 17.3257C225.852 17.4778 225.444 17.547 224.966 17.547C223.814 17.547 223.132 16.8347 223.132 15.7214C223.132 14.615 223.828 13.7783 224.875 13.7783C225.81 13.7783 226.407 14.4629 226.407 15.5001C226.407 15.6454 226.4 15.7698 226.372 15.8666ZM225.627 15.2927C225.627 14.7326 225.339 14.3384 224.819 14.3384C224.348 14.3384 223.983 14.7395 223.926 15.2927H225.627Z" fill="white"/>
<path d="M231.322 17.5629C230.246 17.5629 229.551 16.7746 229.551 15.7028C229.551 14.5826 230.26 13.7874 231.385 13.7874C232.446 13.7874 233.156 14.5411 233.156 15.6406C233.156 16.7677 232.425 17.5629 231.322 17.5629ZM231.357 14.3751C230.766 14.3751 230.387 14.9214 230.387 15.6751C230.387 16.4219 230.773 16.9613 231.35 16.9613C231.926 16.9613 232.312 16.3805 232.312 15.6544C232.305 14.9214 231.933 14.3751 231.357 14.3751Z" fill="white"/>
<path d="M237.552 17.4778H236.737V15.3964C236.737 14.7533 236.484 14.4352 235.992 14.4352C235.507 14.4352 235.177 14.8432 235.177 15.3204V17.4709H234.362V14.8916C234.362 14.5735 234.355 14.2278 234.334 13.8544H235.051L235.086 14.4145H235.107C235.325 14.0273 235.774 13.7783 236.273 13.7783C237.046 13.7783 237.552 14.3592 237.552 15.3065V17.4778Z" fill="white"/>
<path d="M242.893 14.4672H241.994V16.2236C241.994 16.673 242.155 16.8943 242.471 16.8943C242.612 16.8943 242.738 16.8805 242.837 16.8597L242.858 17.4683C242.696 17.5305 242.485 17.5582 242.225 17.5582C241.579 17.5582 241.2 17.2055 241.2 16.2927V14.4672H240.666V13.8656H241.2V13.2017L242.001 12.9597V13.8587H242.9V14.4672" fill="white"/>
<path d="M247.215 17.483H246.399V15.4154C246.399 14.7654 246.147 14.4404 245.655 14.4404C245.233 14.4404 244.84 14.7239 244.84 15.2978V17.4761H244.024V12.2H244.84V14.3712H244.854C245.114 13.9771 245.479 13.7835 245.957 13.7835C246.737 13.7835 247.215 14.3782 247.215 15.3255V17.483Z" fill="white"/>
<path d="M251.393 15.8666H248.94C248.954 16.5512 249.418 16.9385 250.1 16.9385C250.465 16.9385 250.795 16.8762 251.091 16.7656L251.217 17.3257C250.873 17.4778 250.465 17.547 249.987 17.547C248.835 17.547 248.153 16.8347 248.153 15.7214C248.153 14.615 248.849 13.7783 249.896 13.7783C250.831 13.7783 251.428 14.4629 251.428 15.5001C251.428 15.6454 251.421 15.7698 251.393 15.8666ZM250.648 15.2927C250.648 14.7326 250.36 14.3384 249.84 14.3384C249.369 14.3384 248.997 14.7395 248.947 15.2927H250.648Z" fill="white"/>
<path d="M61.9419 16.3952C61.9419 17.1293 61.7557 17.7717 61.2902 18.2305C60.7315 18.7811 60.0798 19.0564 59.2418 19.0564C58.4038 19.0564 57.7521 18.7811 57.1934 18.2305C56.6348 17.6799 56.3555 17.0376 56.3555 16.2117C56.3555 15.3858 56.6348 14.7434 57.1934 14.1928C57.7521 13.6422 58.4038 13.3669 59.2418 13.3669C59.6142 13.3669 59.9867 13.4587 60.3591 13.6422C60.7315 13.8258 61.0109 14.0093 61.1971 14.2846L60.7315 14.7434C60.3591 14.2846 59.8936 14.1011 59.2418 14.1011C58.6832 14.1011 58.1245 14.2846 57.7521 14.7434C57.2865 15.1105 57.1003 15.6611 57.1003 16.3034C57.1003 16.9458 57.2865 17.4964 57.7521 17.8635C58.2176 18.2305 58.6832 18.5058 59.2418 18.5058C59.8936 18.5058 60.3591 18.3223 60.8246 17.8635C61.104 17.5882 61.2902 17.2211 61.2902 16.7623H59.2418V16.0281H61.9419V16.3952ZM66.2249 14.1011H63.711V15.8446H66.0387V16.487H63.711V18.2305H66.2249V18.9647H62.9661V13.4587H66.2249V14.1011ZM69.2975 18.9647H68.5526V14.1011H66.9698V13.4587H70.8803V14.1011H69.2975V18.9647ZM73.5804 18.9647V13.4587H74.3253V18.9647H73.5804ZM77.491 18.9647H76.7461V14.1011H75.1633V13.4587H78.9807V14.1011H77.3979V18.9647H77.491ZM86.3362 18.2305C85.7776 18.7811 85.1258 19.0564 84.2878 19.0564C83.4499 19.0564 82.7981 18.7811 82.2395 18.2305C81.6808 17.6799 81.4015 17.0376 81.4015 16.2117C81.4015 15.3858 81.6808 14.7434 82.2395 14.1928C82.7981 13.6422 83.4499 13.3669 84.2878 13.3669C85.1258 13.3669 85.7776 13.6422 86.3362 14.1928C86.8949 14.7434 87.1742 15.3858 87.1742 16.2117C87.1742 17.0376 86.8949 17.6799 86.3362 18.2305ZM82.7981 17.7717C83.1705 18.1388 83.7292 18.4141 84.2878 18.4141C84.8465 18.4141 85.4051 18.2305 85.7776 17.7717C86.15 17.4046 86.4293 16.854 86.4293 16.2117C86.4293 15.5693 86.2431 15.0187 85.7776 14.6517C85.4051 14.2846 84.8465 14.0093 84.2878 14.0093C83.7292 14.0093 83.1705 14.1928 82.7981 14.6517C82.4257 15.0187 82.1464 15.5693 82.1464 16.2117C82.1464 16.854 82.3326 17.4046 82.7981 17.7717ZM88.1984 18.9647V13.4587H89.0363L91.7365 17.7717V13.4587H92.4813V18.9647H91.7365L88.8501 14.4681V18.9647H88.1984Z" fill="white" stroke="white" stroke-width="0.370767" stroke-miterlimit="10"/>
<path d="M75.2639 26.4856C73.5832 26.4856 72.2526 27.6976 72.2526 29.3808C72.2526 30.9968 73.5832 32.2761 75.2639 32.2761C76.9447 32.2761 78.2752 31.0641 78.2752 29.3808C78.2752 27.6302 76.9447 26.4856 75.2639 26.4856ZM75.2639 31.0641C74.3535 31.0641 73.5832 30.3235 73.5832 29.3135C73.5832 28.3035 74.3535 27.5629 75.2639 27.5629C76.1743 27.5629 76.9447 28.2362 76.9447 29.3135C76.9447 30.3235 76.1743 31.0641 75.2639 31.0641ZM68.751 26.4856C67.0702 26.4856 65.7397 27.6976 65.7397 29.3808C65.7397 30.9968 67.0702 32.2761 68.751 32.2761C70.4317 32.2761 71.7623 31.0641 71.7623 29.3808C71.7623 27.6302 70.4317 26.4856 68.751 26.4856ZM68.751 31.0641C67.8406 31.0641 67.0702 30.3235 67.0702 29.3135C67.0702 28.3035 67.8406 27.5629 68.751 27.5629C69.6614 27.5629 70.4317 28.2362 70.4317 29.3135C70.4317 30.3235 69.6614 31.0641 68.751 31.0641ZM60.9775 27.3609V28.5729H63.9889C63.9188 29.2462 63.6387 29.7848 63.2886 30.1215C62.8684 30.5255 62.1681 30.9968 60.9775 30.9968C59.0867 30.9968 57.6861 29.5828 57.6861 27.7649C57.6861 25.947 59.1567 24.533 60.9775 24.533C61.958 24.533 62.7283 24.937 63.2886 25.4083L64.199 24.533C63.4286 23.8597 62.4482 23.321 61.0476 23.321C58.5264 23.321 56.3555 25.341 56.3555 27.7649C56.3555 30.1888 58.5264 32.2087 61.0476 32.2087C62.4482 32.2087 63.4286 31.8048 64.269 30.9295C65.1094 30.1215 65.3895 28.9769 65.3895 28.1015C65.3895 27.8322 65.3895 27.5629 65.3195 27.3609H60.9775ZM92.7717 28.3035C92.4916 27.6302 91.7913 26.4856 90.2506 26.4856C88.7099 26.4856 87.4493 27.6302 87.4493 29.3808C87.4493 30.9968 88.7099 32.2761 90.3906 32.2761C91.7212 32.2761 92.5616 31.4681 92.8417 30.9968L91.8613 30.3235C91.5112 30.7948 91.091 31.1314 90.3906 31.1314C89.6903 31.1314 89.2701 30.8621 88.92 30.2561L92.9118 28.6402L92.7717 28.3035ZM88.7099 29.2462C88.7099 28.1689 89.6203 27.5629 90.2506 27.5629C90.7408 27.5629 91.231 27.8322 91.3711 28.1689L88.7099 29.2462ZM85.4184 32.0068H86.749V23.5904H85.4184V32.0068ZM83.3175 27.0916C82.9673 26.7549 82.4071 26.4183 81.7068 26.4183C80.2361 26.4183 78.8355 27.6976 78.8355 29.3135C78.8355 30.9295 80.1661 32.1414 81.7068 32.1414C82.4071 32.1414 82.9673 31.8048 83.2475 31.4681H83.3175V31.8721C83.3175 32.9494 82.6872 33.5554 81.7068 33.5554C80.9364 33.5554 80.3762 33.0167 80.2361 32.5454L79.1156 33.0167C79.4658 33.7574 80.3062 34.7 81.7768 34.7C83.3175 34.7 84.5781 33.8247 84.5781 31.7374V26.6203H83.3175V27.0916ZM81.7768 31.0641C80.8664 31.0641 80.0961 30.3235 80.0961 29.3135C80.0961 28.3035 80.8664 27.5629 81.7768 27.5629C82.6872 27.5629 83.3875 28.3035 83.3875 29.3135C83.3875 30.3235 82.6872 31.0641 81.7768 31.0641ZM98.8644 23.5904H95.713V32.0068H97.0436V28.8422H98.8644C100.335 28.8422 101.736 27.8322 101.736 26.2163C101.736 24.6003 100.335 23.5904 98.8644 23.5904ZM98.9345 27.6302H97.0436V24.735H98.9345C99.9149 24.735 100.475 25.543 100.475 26.1489C100.405 26.8896 99.8449 27.6302 98.9345 27.6302ZM106.988 26.4183C106.008 26.4183 105.027 26.8223 104.677 27.6976L105.868 28.1689C106.148 27.6976 106.568 27.5629 107.058 27.5629C107.758 27.5629 108.389 27.9669 108.459 28.6402V28.7075C108.249 28.5729 107.688 28.3709 107.128 28.3709C105.868 28.3709 104.607 29.0442 104.607 30.2561C104.607 31.4008 105.657 32.1414 106.778 32.1414C107.688 32.1414 108.109 31.7374 108.459 31.3334H108.529V32.0068H109.789V28.7749C109.649 27.2936 108.459 26.4183 106.988 26.4183ZM106.848 31.0641C106.428 31.0641 105.798 30.8621 105.798 30.3235C105.798 29.6502 106.568 29.4482 107.198 29.4482C107.758 29.4482 108.039 29.5828 108.389 29.7175C108.249 30.5255 107.548 31.0641 106.848 31.0641ZM114.201 26.6203L112.731 30.2561H112.661L111.12 26.6203H109.719L112.03 31.7374L110.7 34.5653H112.03L115.602 26.6203H114.201ZM102.436 32.0068H103.767V23.5904H102.436V32.0068Z" fill="white"/>
<path d="M22.0973 10.8838C21.7812 11.195 21.6758 11.7136 21.6758 12.3359V35.259C21.6758 35.8813 21.8865 36.4 22.2027 36.7111L22.308 36.8149L35.3748 23.953V23.7456L22.0973 10.8838Z" fill="url(#paint0_linear_736_12493)"/>
<path d="M39.592 28.3161L35.2715 24.0634V23.7522L39.592 19.4995L39.6973 19.6032L44.8608 22.5075C46.3361 23.3373 46.3361 24.6857 44.8608 25.5155L39.592 28.3161Z" fill="url(#paint1_linear_736_12493)"/>
<path d="M39.6991 28.2075L35.2732 23.8511L22.1011 36.8166C22.628 37.3352 23.3656 37.3352 24.314 36.9203L39.6991 28.2075Z" fill="url(#paint2_linear_736_12493)"/>
<path d="M39.6991 19.4948L24.314 10.8856C23.3656 10.367 22.628 10.4707 22.1011 10.9894L35.2732 23.8512L39.6991 19.4948Z" fill="url(#paint3_linear_736_12493)"/>
<path opacity="0.2" d="M39.5932 28.1016L24.3135 36.607C23.4705 37.1256 22.7328 37.0219 22.206 36.607L22.1006 36.7107L22.206 36.8144C22.7328 37.2293 23.4705 37.333 24.3135 36.8144L39.5932 28.1016Z" fill="#050410"/>
<path opacity="0.2" d="M22.0978 36.6092C21.7816 36.298 21.6763 35.7794 21.6763 35.157V35.2607C21.6763 35.8831 21.887 36.4017 22.2032 36.7129V36.6092H22.0978ZM44.8593 25.1995L39.5904 28.1038L39.6958 28.2075L44.8593 25.3032C45.5969 24.8883 45.913 24.3697 45.913 23.8511C45.913 24.3697 45.4915 24.7846 44.8593 25.1995Z" fill="#050410"/>
<path opacity="0.2" d="M24.3102 10.9916L44.8588 22.505C45.491 22.9199 45.9125 23.3348 45.9125 23.8535C45.9125 23.3348 45.5964 22.8162 44.8588 22.4013L24.3102 10.8879C22.8349 10.0581 21.6758 10.6805 21.6758 12.3401V12.4438C21.6758 10.8879 22.8349 10.1619 24.3102 10.9916Z" fill="white"/>
<defs>
<linearGradient id="paint0_linear_736_12493" x1="34.1103" y1="12.1389" x2="16.7044" y2="29.8211" gradientUnits="userSpaceOnUse">
<stop stop-color="#00A0FF"/>
<stop offset="0.007" stop-color="#00A1FF"/>
<stop offset="0.26" stop-color="#00BEFF"/>
<stop offset="0.512" stop-color="#00D2FF"/>
<stop offset="0.76" stop-color="#00DFFF"/>
<stop offset="1" stop-color="#00E3FF"/>
</linearGradient>
<linearGradient id="paint1_linear_736_12493" x1="46.7934" y1="23.857" x2="21.2953" y2="23.857" gradientUnits="userSpaceOnUse">
<stop stop-color="#FFE000"/>
<stop offset="0.409" stop-color="#FFBD00"/>
<stop offset="0.775" stop-color="#FFA500"/>
<stop offset="1" stop-color="#FF9C00"/>
</linearGradient>
<linearGradient id="paint2_linear_736_12493" x1="37.3038" y1="26.2326" x2="13.7012" y2="50.2113" gradientUnits="userSpaceOnUse">
<stop stop-color="#FF3A44"/>
<stop offset="1" stop-color="#C31162"/>
</linearGradient>
<linearGradient id="paint3_linear_736_12493" x1="18.8312" y1="3.28888" x2="29.3714" y2="13.997" gradientUnits="userSpaceOnUse">
<stop stop-color="#32A071"/>
<stop offset="0.069" stop-color="#2DA771"/>
<stop offset="0.476" stop-color="#15CF74"/>
<stop offset="0.801" stop-color="#06E775"/>
<stop offset="1" stop-color="#00F076"/>
</linearGradient>
</defs>
</svg>
