<svg width="660" height="452" viewBox="0 0 660 452" fill="none" xmlns="http://www.w3.org/2000/svg">
<rect y="224" width="200" height="56" rx="16" fill="#F3FBF6"/>
<rect x="12" y="236" width="32" height="32" rx="8" fill="#22C55E"/>
<path fill-rule="evenodd" clip-rule="evenodd" d="M21.3325 244.711L26.3708 242.364C27.4134 241.879 28.6036 241.879 29.6462 242.364L34.6646 244.701C36.1321 245.385 37.0953 246.921 36.9925 248.6C36.5981 255.042 34.8406 257.954 30.0899 261.332C28.8361 262.224 27.1823 262.222 25.9276 261.332C21.1914 257.971 19.3687 255.1 19.0062 248.578C18.9134 246.909 19.8751 245.389 21.3325 244.711ZM31.5644 250.494C31.8372 250.182 31.8056 249.708 31.4938 249.436C31.1821 249.163 30.7083 249.194 30.4355 249.506L27.5656 252.786C27.4775 252.887 27.3258 252.9 27.2213 252.817L25.4685 251.414C25.145 251.156 24.6731 251.208 24.4143 251.531C24.1556 251.855 24.208 252.327 24.5314 252.586L26.2843 253.988C27.0156 254.573 28.0778 254.479 28.6945 253.774L31.5644 250.494Z" fill="white"/>
<path d="M52.672 249.552C52.672 247.568 54.272 246.224 56.656 246.224C58.864 246.224 60.288 247.456 60.416 249.456H58.832C58.752 248.304 57.936 247.632 56.64 247.632C55.184 247.632 54.24 248.368 54.24 249.504C54.24 250.432 54.768 250.992 55.856 251.248L57.76 251.696C59.648 252.128 60.608 253.152 60.608 254.784C60.608 256.864 58.992 258.192 56.528 258.192C54.176 258.192 52.608 256.96 52.512 254.976H54.112C54.144 256.08 55.072 256.784 56.528 256.784C58.064 256.784 59.04 256.064 59.04 254.912C59.04 254 58.544 253.424 57.44 253.168L55.536 252.736C53.648 252.304 52.672 251.216 52.672 249.552ZM65.6984 258.192C63.3944 258.192 61.8104 256.528 61.8104 254.096C61.8104 251.648 63.3624 249.952 65.6344 249.952C67.8584 249.952 69.3144 251.488 69.3144 253.808V254.368L63.2664 254.384C63.3784 256.032 64.2424 256.944 65.7304 256.944C66.8984 256.944 67.6664 256.464 67.9224 255.568H69.3304C68.9464 257.248 67.6344 258.192 65.6984 258.192ZM65.6344 251.216C64.3224 251.216 63.4904 252 63.2984 253.376H67.8104C67.8104 252.08 66.9624 251.216 65.6344 251.216ZM70.4823 254.096C70.4823 251.648 72.0343 249.952 74.3223 249.952C76.2903 249.952 77.6663 251.072 77.9383 252.816H76.4343C76.1783 251.824 75.3783 251.296 74.3703 251.296C72.9463 251.296 71.9703 252.384 71.9703 254.08C71.9703 255.76 72.8823 256.848 74.3063 256.848C75.3783 256.848 76.1783 256.288 76.4503 255.36H77.9543C77.6503 257.056 76.1943 258.192 74.3063 258.192C72.0023 258.192 70.4823 256.56 70.4823 254.096ZM84.9491 250.176H86.4371V258H85.0931L84.9331 256.816C84.4851 257.632 83.4451 258.192 82.2931 258.192C80.4691 258.192 79.4451 256.96 79.4451 255.04V250.176H80.9491V254.544C80.9491 256.224 81.6691 256.864 82.8211 256.864C84.1971 256.864 84.9491 255.984 84.9491 254.304V250.176ZM93.0993 250.112V251.488H92.4273C91.0033 251.488 90.1233 252.352 90.1233 253.856V258H88.6193V250.192H90.0273L90.1233 251.376C90.4433 250.56 91.2273 250.016 92.2993 250.016C92.5713 250.016 92.7953 250.048 93.0993 250.112ZM95.2459 248.32C94.7019 248.32 94.2539 247.872 94.2539 247.328C94.2539 246.768 94.7019 246.336 95.2459 246.336C95.7899 246.336 96.2379 246.768 96.2379 247.328C96.2379 247.872 95.7899 248.32 95.2459 248.32ZM94.5099 258V250.176H96.0139V258H94.5099ZM100.405 258H98.9014V251.44H97.3654V250.176H98.9014V247.728H100.405V250.176H101.941V251.44H100.405V258ZM102.539 261.504V260.272H103.547C104.267 260.272 104.843 260.16 105.211 259.168L105.483 258.416L102.331 250.176H103.915L106.187 256.48L108.507 250.176H110.059L106.363 259.76C105.835 261.104 105.051 261.664 103.851 261.664C103.355 261.664 102.939 261.6 102.539 261.504ZM120.691 258.176C117.395 258.176 115.203 255.808 115.203 252.224C115.203 248.656 117.459 246.24 120.771 246.24C123.379 246.24 125.379 247.792 125.811 250.16H124.131C123.699 248.656 122.403 247.744 120.723 247.744C118.387 247.744 116.851 249.504 116.851 252.208C116.851 254.912 118.387 256.672 120.723 256.672C122.419 256.672 123.763 255.76 124.195 254.336H125.859C125.363 256.64 123.299 258.176 120.691 258.176ZM130.902 258.192C128.598 258.192 127.014 256.528 127.014 254.096C127.014 251.648 128.566 249.952 130.838 249.952C133.062 249.952 134.517 251.488 134.517 253.808V254.368L128.47 254.384C128.582 256.032 129.446 256.944 130.934 256.944C132.102 256.944 132.87 256.464 133.126 255.568H134.534C134.15 257.248 132.838 258.192 130.902 258.192ZM130.838 251.216C129.526 251.216 128.694 252 128.502 253.376H133.014C133.014 252.08 132.166 251.216 130.838 251.216ZM140.677 250.112V251.488H140.005C138.581 251.488 137.701 252.352 137.701 253.856V258H136.197V250.192H137.605L137.701 251.376C138.021 250.56 138.805 250.016 139.877 250.016C140.149 250.016 140.373 250.048 140.677 250.112ZM144.609 258H143.105V251.44H141.569V250.176H143.105V247.728H144.609V250.176H146.145V251.44H144.609V258ZM148.23 248.32C147.686 248.32 147.238 247.872 147.238 247.328C147.238 246.768 147.686 246.336 148.23 246.336C148.774 246.336 149.222 246.768 149.222 247.328C149.222 247.872 148.774 248.32 148.23 248.32ZM147.494 258V250.176H148.998V258H147.494ZM156.478 258V251.44H153.006V258H151.502V251.44H150.35V250.176H151.502V248.928C151.502 247.008 152.542 246.224 153.902 246.224C154.19 246.224 154.542 246.24 154.83 246.288V247.584H154.158C153.246 247.584 153.006 248.08 153.006 248.928V250.176H157.982V258H156.478ZM157.23 248.256C156.686 248.256 156.27 247.84 156.27 247.296C156.27 246.752 156.686 246.336 157.23 246.336C157.758 246.336 158.174 246.752 158.174 247.296C158.174 247.84 157.758 248.256 157.23 248.256ZM163.495 258.192C161.191 258.192 159.607 256.528 159.607 254.096C159.607 251.648 161.159 249.952 163.431 249.952C165.655 249.952 167.111 251.488 167.111 253.808V254.368L161.063 254.384C161.175 256.032 162.039 256.944 163.527 256.944C164.695 256.944 165.463 256.464 165.719 255.568H167.127C166.743 257.248 165.431 258.192 163.495 258.192ZM163.431 251.216C162.119 251.216 161.287 252 161.095 253.376H165.607C165.607 252.08 164.759 251.216 163.431 251.216ZM171.927 258.192C169.655 258.192 168.279 256.496 168.279 254.112C168.279 251.712 169.671 249.952 171.991 249.952C173.191 249.952 174.199 250.48 174.727 251.44V246.224H176.215V258H174.871L174.743 256.576C174.231 257.648 173.175 258.192 171.927 258.192ZM172.231 256.832C173.767 256.832 174.711 255.696 174.711 254.064C174.711 252.464 173.767 251.312 172.231 251.312C170.695 251.312 169.799 252.464 169.799 254.064C169.799 255.68 170.695 256.832 172.231 256.832Z" fill="#5D6162"/>
<rect x="115" y="142" width="48" height="48" rx="24" fill="#FBFAFE"/>
<path fill-rule="evenodd" clip-rule="evenodd" d="M139.711 175H142.877C144.712 175 146.312 173.751 146.757 171.97L148.379 165.485C148.694 164.223 147.74 163 146.438 163H141.5L142.807 160.76C143.779 159.093 142.577 157 140.647 157H139.5L135.632 163.769C135.545 163.921 135.5 164.092 135.5 164.266V172.465C135.5 172.799 135.667 173.111 135.945 173.297L137.492 174.328C138.149 174.766 138.921 175 139.711 175ZM131 163H132C133.105 163 134 163.895 134 165V172C134 173.105 133.105 174 132 174H131C129.895 174 129 173.105 129 172V165C129 163.895 129.895 163 131 163Z" fill="#7065F0"/>
<rect x="596" y="94" width="48" height="48" rx="24" fill="#F0F6FF"/>
<path d="M625.9 116.31V113.92C625.9 110.67 623.25 108.02 620 108.02C616.75 108.02 614.1 110.67 614.1 113.92V116.31C612.34 116.68 611.01 118.25 611.01 120.12V124.11C611.01 126.27 612.76 128.02 614.92 128.02H625.09C627.24 128.02 628.99 126.27 628.99 124.11V120.12C628.99 118.25 627.66 116.68 625.9 116.31ZM620.75 122.7V124.18C620.75 124.59 620.41 124.93 620 124.93C619.59 124.93 619.25 124.59 619.25 124.18V122.7C618.64 122.41 618.22 121.8 618.22 121.09C618.22 120.11 619.02 119.31 620 119.31C620.98 119.31 621.78 120.11 621.78 121.09C621.78 121.8 621.36 122.41 620.75 122.7ZM615.6 116.22V113.92C615.6 111.49 617.57 109.52 620 109.52C622.43 109.52 624.4 111.49 624.4 113.92V116.22H615.6Z" fill="#3071D2"/>
<rect x="352" width="48" height="48" rx="24" fill="#FDEDED"/>
<path d="M380.44 15.1C378.63 15.1 377.01 15.98 376 17.33C374.99 15.98 373.37 15.1 371.56 15.1C368.49 15.1 366 17.6 366 20.69C366 21.88 366.19 22.98 366.52 24C368.1 29 372.97 31.99 375.38 32.81C375.72 32.93 376.28 32.93 376.62 32.81C379.03 31.99 383.9 29 385.48 24C385.81 22.98 386 21.88 386 20.69C386 17.6 383.51 15.1 380.44 15.1Z" fill="#F43F3E"/>
<rect x="368.5" y="308.5" width="283" height="143" rx="11.5" fill="white"/>
<rect x="368.5" y="308.5" width="283" height="143" rx="11.5" stroke="#DFE7F2"/>
<path d="M392.224 339.872V338.432H400.752V339.872H397.28V350H395.712V339.872H392.224ZM403.576 349.984H402.072V338.224H403.576V343.376C404.072 342.528 405.016 341.952 406.232 341.952C408.232 341.952 409.192 343.216 409.192 345.216V350H407.688V345.552C407.688 343.968 406.936 343.328 405.816 343.328C404.36 343.328 403.576 344.384 403.576 345.728V349.984ZM413.564 350.192C411.884 350.192 410.892 349.248 410.892 347.824C410.892 346.384 411.964 345.488 413.804 345.344L416.268 345.152V344.928C416.268 343.616 415.484 343.152 414.428 343.152C413.164 343.152 412.444 343.712 412.444 344.656H411.132C411.132 343.024 412.476 341.952 414.492 341.952C416.428 341.952 417.74 342.976 417.74 345.088V350H416.46L416.3 348.736C415.9 349.632 414.828 350.192 413.564 350.192ZM413.996 349.024C415.42 349.024 416.284 348.096 416.284 346.624V346.208L414.284 346.368C412.956 346.496 412.412 347.008 412.412 347.776C412.412 348.608 413.02 349.024 413.996 349.024ZM421.326 350H419.822V342.176H421.182L421.342 343.376C421.838 342.48 422.83 341.952 423.934 341.952C425.998 341.952 426.942 343.216 426.942 345.216V350H425.438V345.552C425.438 343.968 424.702 343.328 423.55 343.328C422.142 343.328 421.326 344.336 421.326 345.856V350ZM430.562 350H429.058V338.224H430.562V345.856L434.034 342.176H435.922L432.93 345.296L435.906 350H434.178L431.89 346.384L430.562 347.776V350ZM436.557 347.728H437.997C437.997 348.528 438.605 349.008 439.597 349.008C440.653 349.008 441.261 348.576 441.261 347.856C441.261 347.328 441.005 347.008 440.189 346.8L438.813 346.48C437.421 346.144 436.765 345.456 436.765 344.304C436.765 342.864 437.981 341.952 439.709 341.952C441.421 341.952 442.541 342.912 442.573 344.4H441.133C441.101 343.616 440.573 343.12 439.661 343.12C438.717 343.12 438.189 343.536 438.189 344.256C438.189 344.784 438.573 345.136 439.341 345.328L440.717 345.664C442.045 345.984 442.701 346.592 442.701 347.76C442.701 349.248 441.421 350.192 439.565 350.192C437.725 350.192 436.557 349.216 436.557 347.728ZM450.952 350H449.448V343.44H447.912V342.176H449.448V339.728H450.952V342.176H452.488V343.44H450.952V350ZM453.248 346.08C453.248 343.664 454.976 341.968 457.328 341.968C459.664 341.968 461.392 343.664 461.392 346.08C461.392 348.496 459.664 350.192 457.328 350.192C454.976 350.192 453.248 348.496 453.248 346.08ZM454.768 346.08C454.768 347.712 455.808 348.848 457.328 348.848C458.832 348.848 459.888 347.712 459.888 346.08C459.888 344.448 458.832 343.312 457.328 343.312C455.808 343.312 454.768 344.448 454.768 346.08ZM469.256 350H467.688V338.432H469.256V343.408H474.984V338.432H476.552V350H474.984V344.864H469.256V350ZM482.355 350.192C480.051 350.192 478.467 348.528 478.467 346.096C478.467 343.648 480.019 341.952 482.291 341.952C484.515 341.952 485.971 343.488 485.971 345.808V346.368L479.923 346.384C480.035 348.032 480.899 348.944 482.387 348.944C483.555 348.944 484.323 348.464 484.579 347.568H485.987C485.603 349.248 484.291 350.192 482.355 350.192ZM482.291 343.216C480.979 343.216 480.147 344 479.955 345.376H484.467C484.467 344.08 483.619 343.216 482.291 343.216ZM488.387 340.32C487.843 340.32 487.395 339.872 487.395 339.328C487.395 338.768 487.843 338.336 488.387 338.336C488.931 338.336 489.379 338.768 489.379 339.328C489.379 339.872 488.931 340.32 488.387 340.32ZM487.651 350V342.176H489.155V350H487.651ZM495.818 342.112V343.488H495.146C493.722 343.488 492.842 344.352 492.842 345.856V350H491.338V342.192H492.746L492.842 343.376C493.162 342.56 493.946 342.016 495.018 342.016C495.29 342.016 495.514 342.048 495.818 342.112ZM496.589 347.728H498.029C498.029 348.528 498.637 349.008 499.629 349.008C500.685 349.008 501.293 348.576 501.293 347.856C501.293 347.328 501.037 347.008 500.221 346.8L498.845 346.48C497.453 346.144 496.797 345.456 496.797 344.304C496.797 342.864 498.013 341.952 499.741 341.952C501.453 341.952 502.573 342.912 502.605 344.4H501.165C501.133 343.616 500.605 343.12 499.693 343.12C498.749 343.12 498.221 343.536 498.221 344.256C498.221 344.784 498.605 345.136 499.373 345.328L500.749 345.664C502.077 345.984 502.733 346.592 502.733 347.76C502.733 349.248 501.453 350.192 499.597 350.192C497.757 350.192 496.589 349.216 496.589 347.728ZM510.6 338.432V348.544H515.688V350H509.032V338.432H510.6ZM517.871 340.32C517.327 340.32 516.879 339.872 516.879 339.328C516.879 338.768 517.327 338.336 517.871 338.336C518.415 338.336 518.863 338.768 518.863 339.328C518.863 339.872 518.415 340.32 517.871 340.32ZM517.135 350V342.176H518.639V350H517.135ZM519.99 342.176H521.142V340.928C521.142 339.008 522.198 338.224 523.622 338.224C523.91 338.224 524.246 338.24 524.55 338.288V339.584H523.878C522.902 339.584 522.646 340.08 522.646 340.928V342.176H524.502V343.44H522.646V350H521.142V343.44H519.99V342.176ZM529.042 350.192C526.738 350.192 525.154 348.528 525.154 346.096C525.154 343.648 526.706 341.952 528.978 341.952C531.202 341.952 532.658 343.488 532.658 345.808V346.368L526.61 346.384C526.722 348.032 527.586 348.944 529.074 348.944C530.242 348.944 531.01 348.464 531.266 347.568H532.674C532.29 349.248 530.978 350.192 529.042 350.192ZM528.978 343.216C527.666 343.216 526.834 344 526.642 345.376H531.154C531.154 344.08 530.306 343.216 528.978 343.216ZM536.11 349.376C536.11 350.528 535.246 351.488 534.11 351.632V350.96C534.766 350.848 535.23 350.416 535.23 349.92C535.118 349.984 534.99 350.016 534.798 350.016C534.27 350.016 533.822 349.632 533.822 349.04C533.822 348.4 534.254 347.936 534.894 347.936C535.566 347.936 536.11 348.496 536.11 349.376ZM544.475 338.432V350H542.907V338.432H544.475ZM552.795 349.984H551.291V338.224H552.795V343.376C553.291 342.528 554.235 341.952 555.451 341.952C557.451 341.952 558.411 343.216 558.411 345.216V350H556.907V345.552C556.907 343.968 556.155 343.328 555.035 343.328C553.579 343.328 552.795 344.384 552.795 345.728V349.984ZM562.782 350.192C561.102 350.192 560.11 349.248 560.11 347.824C560.11 346.384 561.182 345.488 563.022 345.344L565.486 345.152V344.928C565.486 343.616 564.702 343.152 563.646 343.152C562.382 343.152 561.662 343.712 561.662 344.656H560.35C560.35 343.024 561.694 341.952 563.71 341.952C565.646 341.952 566.958 342.976 566.958 345.088V350H565.678L565.518 348.736C565.118 349.632 564.046 350.192 562.782 350.192ZM563.214 349.024C564.638 349.024 565.502 348.096 565.502 346.624V346.208L563.502 346.368C562.174 346.496 561.63 347.008 561.63 347.776C561.63 348.608 562.238 349.024 563.214 349.024ZM570.921 350L567.769 342.176H569.369L571.081 346.544C571.353 347.28 571.577 347.936 571.705 348.416C571.833 347.904 572.089 347.232 572.361 346.544L574.105 342.176H575.673L572.409 350H570.921ZM579.886 350.192C577.582 350.192 575.998 348.528 575.998 346.096C575.998 343.648 577.55 341.952 579.822 341.952C582.046 341.952 583.502 343.488 583.502 345.808V346.368L577.454 346.384C577.566 348.032 578.43 348.944 579.918 348.944C581.086 348.944 581.854 348.464 582.11 347.568H583.518C583.134 349.248 581.822 350.192 579.886 350.192ZM579.822 343.216C578.51 343.216 577.678 344 577.486 345.376H581.998C581.998 344.08 581.15 343.216 579.822 343.216ZM392.448 371.728H393.888C393.888 372.528 394.496 373.008 395.488 373.008C396.544 373.008 397.152 372.576 397.152 371.856C397.152 371.328 396.896 371.008 396.08 370.8L394.704 370.48C393.312 370.144 392.656 369.456 392.656 368.304C392.656 366.864 393.872 365.952 395.6 365.952C397.312 365.952 398.432 366.912 398.464 368.4H397.024C396.992 367.616 396.464 367.12 395.552 367.12C394.608 367.12 394.08 367.536 394.08 368.256C394.08 368.784 394.464 369.136 395.232 369.328L396.608 369.664C397.936 369.984 398.592 370.592 398.592 371.76C398.592 373.248 397.312 374.192 395.456 374.192C393.616 374.192 392.448 373.216 392.448 371.728ZM405.668 366.176H407.156V374H405.812L405.652 372.816C405.204 373.632 404.164 374.192 403.012 374.192C401.188 374.192 400.164 372.96 400.164 371.04V366.176H401.668V370.544C401.668 372.224 402.388 372.864 403.54 372.864C404.916 372.864 405.668 371.984 405.668 370.304V366.176ZM408.67 370.096C408.67 367.648 410.222 365.952 412.51 365.952C414.478 365.952 415.854 367.072 416.126 368.816H414.622C414.366 367.824 413.566 367.296 412.558 367.296C411.134 367.296 410.158 368.384 410.158 370.08C410.158 371.76 411.07 372.848 412.494 372.848C413.566 372.848 414.366 372.288 414.638 371.36H416.142C415.838 373.056 414.382 374.192 412.494 374.192C410.19 374.192 408.67 372.56 408.67 370.096ZM417.217 370.096C417.217 367.648 418.769 365.952 421.057 365.952C423.025 365.952 424.401 367.072 424.673 368.816H423.169C422.913 367.824 422.113 367.296 421.105 367.296C419.681 367.296 418.705 368.384 418.705 370.08C418.705 371.76 419.617 372.848 421.041 372.848C422.113 372.848 422.913 372.288 423.185 371.36H424.689C424.385 373.056 422.929 374.192 421.041 374.192C418.737 374.192 417.217 372.56 417.217 370.096ZM429.652 374.192C427.348 374.192 425.764 372.528 425.764 370.096C425.764 367.648 427.316 365.952 429.588 365.952C431.812 365.952 433.267 367.488 433.267 369.808V370.368L427.22 370.384C427.332 372.032 428.196 372.944 429.684 372.944C430.852 372.944 431.62 372.464 431.876 371.568H433.284C432.9 373.248 431.588 374.192 429.652 374.192ZM429.588 367.216C428.276 367.216 427.444 368 427.252 369.376H431.764C431.764 368.08 430.916 367.216 429.588 367.216ZM434.307 371.728H435.747C435.747 372.528 436.355 373.008 437.347 373.008C438.403 373.008 439.011 372.576 439.011 371.856C439.011 371.328 438.755 371.008 437.939 370.8L436.563 370.48C435.171 370.144 434.515 369.456 434.515 368.304C434.515 366.864 435.731 365.952 437.459 365.952C439.171 365.952 440.291 366.912 440.323 368.4H438.883C438.851 367.616 438.323 367.12 437.411 367.12C436.467 367.12 435.939 367.536 435.939 368.256C435.939 368.784 436.323 369.136 437.091 369.328L438.467 369.664C439.795 369.984 440.451 370.592 440.451 371.76C440.451 373.248 439.171 374.192 437.315 374.192C435.475 374.192 434.307 373.216 434.307 371.728ZM441.479 371.728H442.919C442.919 372.528 443.527 373.008 444.519 373.008C445.575 373.008 446.183 372.576 446.183 371.856C446.183 371.328 445.927 371.008 445.111 370.8L443.735 370.48C442.343 370.144 441.687 369.456 441.687 368.304C441.687 366.864 442.903 365.952 444.631 365.952C446.343 365.952 447.463 366.912 447.495 368.4H446.055C446.023 367.616 445.495 367.12 444.583 367.12C443.639 367.12 443.111 367.536 443.111 368.256C443.111 368.784 443.495 369.136 444.263 369.328L445.639 369.664C446.967 369.984 447.623 370.592 447.623 371.76C447.623 373.248 446.343 374.192 444.487 374.192C442.647 374.192 441.479 373.216 441.479 371.728ZM448.459 366.176H449.611V364.928C449.611 363.008 450.667 362.224 452.091 362.224C452.379 362.224 452.715 362.24 453.019 362.288V363.584H452.347C451.371 363.584 451.115 364.08 451.115 364.928V366.176H452.971V367.44H451.115V374H449.611V367.44H448.459V366.176ZM459.777 366.176H461.265V374H459.921L459.761 372.816C459.313 373.632 458.273 374.192 457.121 374.192C455.297 374.192 454.273 372.96 454.273 371.04V366.176H455.777V370.544C455.777 372.224 456.497 372.864 457.649 372.864C459.025 372.864 459.777 371.984 459.777 370.304V366.176ZM464.983 374H463.479V362.224H464.983V374ZM468.733 374H467.229V362.224H468.733V374ZM470.195 377.504V376.272H471.203C471.923 376.272 472.499 376.16 472.867 375.168L473.139 374.416L469.987 366.176H471.571L473.843 372.48L476.163 366.176H477.715L474.019 375.76C473.491 377.104 472.707 377.664 471.507 377.664C471.011 377.664 470.595 377.6 470.195 377.504ZM482.651 371.728H484.091C484.091 372.528 484.699 373.008 485.691 373.008C486.747 373.008 487.355 372.576 487.355 371.856C487.355 371.328 487.099 371.008 486.283 370.8L484.907 370.48C483.515 370.144 482.859 369.456 482.859 368.304C482.859 366.864 484.075 365.952 485.803 365.952C487.515 365.952 488.635 366.912 488.667 368.4H487.227C487.195 367.616 486.667 367.12 485.755 367.12C484.811 367.12 484.283 367.536 484.283 368.256C484.283 368.784 484.667 369.136 485.435 369.328L486.811 369.664C488.139 369.984 488.795 370.592 488.795 371.76C488.795 373.248 487.515 374.192 485.659 374.192C483.819 374.192 482.651 373.216 482.651 371.728ZM492.751 374.192C491.071 374.192 490.079 373.248 490.079 371.824C490.079 370.384 491.151 369.488 492.991 369.344L495.455 369.152V368.928C495.455 367.616 494.671 367.152 493.615 367.152C492.351 367.152 491.631 367.712 491.631 368.656H490.319C490.319 367.024 491.663 365.952 493.679 365.952C495.615 365.952 496.927 366.976 496.927 369.088V374H495.647L495.487 372.736C495.087 373.632 494.015 374.192 492.751 374.192ZM493.183 373.024C494.607 373.024 495.471 372.096 495.471 370.624V370.208L493.471 370.368C492.143 370.496 491.599 371.008 491.599 371.776C491.599 372.608 492.207 373.024 493.183 373.024ZM498.131 366.176H499.283V364.928C499.283 363.008 500.339 362.224 501.763 362.224C502.051 362.224 502.387 362.24 502.691 362.288V363.584H502.019C501.043 363.584 500.787 364.08 500.787 364.928V366.176H502.643V367.44H500.787V374H499.283V367.44H498.131V366.176ZM507.183 374.192C504.879 374.192 503.295 372.528 503.295 370.096C503.295 367.648 504.847 365.952 507.119 365.952C509.343 365.952 510.799 367.488 510.799 369.808V370.368L504.751 370.384C504.863 372.032 505.727 372.944 507.215 372.944C508.383 372.944 509.151 372.464 509.407 371.568H510.815C510.431 373.248 509.119 374.192 507.183 374.192ZM507.119 367.216C505.807 367.216 504.975 368 504.783 369.376H509.295C509.295 368.08 508.447 367.216 507.119 367.216ZM511.983 369.888C511.983 367.68 513.407 365.952 515.679 365.952C516.943 365.952 517.919 366.528 518.415 367.504L518.527 366.176H519.871V373.68C519.871 376.144 518.351 377.712 515.951 377.712C513.823 377.712 512.367 376.512 512.079 374.528H513.583C513.775 375.68 514.639 376.352 515.951 376.352C517.423 376.352 518.383 375.392 518.383 373.904V372.336C517.871 373.248 516.847 373.792 515.615 373.792C513.391 373.792 511.983 372.08 511.983 369.888ZM513.487 369.856C513.487 371.328 514.399 372.48 515.871 372.48C517.391 372.48 518.319 371.392 518.319 369.856C518.319 368.352 517.423 367.264 515.887 367.264C514.383 367.264 513.487 368.416 513.487 369.856ZM527.449 366.176H528.937V374H527.593L527.433 372.816C526.985 373.632 525.945 374.192 524.793 374.192C522.969 374.192 521.945 372.96 521.945 371.04V366.176H523.449V370.544C523.449 372.224 524.169 372.864 525.321 372.864C526.697 372.864 527.449 371.984 527.449 370.304V366.176ZM533.407 374.192C531.727 374.192 530.735 373.248 530.735 371.824C530.735 370.384 531.807 369.488 533.647 369.344L536.111 369.152V368.928C536.111 367.616 535.327 367.152 534.271 367.152C533.007 367.152 532.287 367.712 532.287 368.656H530.975C530.975 367.024 532.319 365.952 534.335 365.952C536.271 365.952 537.583 366.976 537.583 369.088V374H536.303L536.143 372.736C535.743 373.632 534.671 374.192 533.407 374.192ZM533.839 373.024C535.263 373.024 536.127 372.096 536.127 370.624V370.208L534.127 370.368C532.799 370.496 532.255 371.008 532.255 371.776C532.255 372.608 532.863 373.024 533.839 373.024ZM544.146 366.112V367.488H543.474C542.05 367.488 541.17 368.352 541.17 369.856V374H539.666V366.192H541.074L541.17 367.376C541.49 366.56 542.274 366.016 543.346 366.016C543.618 366.016 543.842 366.048 544.146 366.112ZM548.411 374.192C546.14 374.192 544.764 372.496 544.764 370.112C544.764 367.712 546.156 365.952 548.476 365.952C549.676 365.952 550.684 366.48 551.212 367.44V362.224H552.7V374H551.356L551.228 372.576C550.716 373.648 549.66 374.192 548.411 374.192ZM548.716 372.832C550.252 372.832 551.196 371.696 551.196 370.064C551.196 368.464 550.252 367.312 548.716 367.312C547.18 367.312 546.284 368.464 546.284 370.064C546.284 371.68 547.18 372.832 548.716 372.832ZM558.245 374.192C555.941 374.192 554.357 372.528 554.357 370.096C554.357 367.648 555.909 365.952 558.181 365.952C560.405 365.952 561.861 367.488 561.861 369.808V370.368L555.813 370.384C555.925 372.032 556.789 372.944 558.277 372.944C559.445 372.944 560.213 372.464 560.469 371.568H561.877C561.493 373.248 560.181 374.192 558.245 374.192ZM558.181 367.216C556.869 367.216 556.037 368 555.845 369.376H560.357C560.357 368.08 559.509 367.216 558.181 367.216ZM566.677 374.192C564.405 374.192 563.029 372.496 563.029 370.112C563.029 367.712 564.421 365.952 566.741 365.952C567.941 365.952 568.949 366.48 569.477 367.44V362.224H570.965V374H569.621L569.493 372.576C568.981 373.648 567.925 374.192 566.677 374.192ZM566.981 372.832C568.517 372.832 569.461 371.696 569.461 370.064C569.461 368.464 568.517 367.312 566.981 367.312C565.445 367.312 564.549 368.464 564.549 370.064C564.549 371.68 565.445 372.832 566.981 372.832ZM579.014 374H577.51V366.176H578.854L578.998 367.2C579.398 366.464 580.23 365.952 581.334 365.952C582.55 365.952 583.414 366.56 583.814 367.536C584.182 366.56 585.126 365.952 586.342 365.952C588.134 365.952 589.222 367.072 589.222 368.88V374H587.75V369.248C587.75 368.016 587.062 367.312 586.006 367.312C584.87 367.312 584.118 368.112 584.118 369.36V374H582.63V369.232C582.63 368 581.958 367.328 580.902 367.328C579.766 367.328 579.014 368.112 579.014 369.36V374ZM590.399 377.504V376.272H591.407C592.127 376.272 592.703 376.16 593.071 375.168L593.343 374.416L590.191 366.176H591.775L594.047 372.48L596.367 366.176H597.919L594.223 375.76C593.695 377.104 592.911 377.664 591.711 377.664C591.215 377.664 590.799 377.6 590.399 377.504ZM605.03 374H603.526V362.224H605.03V374ZM607.98 364.32C607.436 364.32 606.988 363.872 606.988 363.328C606.988 362.768 607.436 362.336 607.98 362.336C608.524 362.336 608.972 362.768 608.972 363.328C608.972 363.872 608.524 364.32 607.98 364.32ZM607.244 374V366.176H608.748V374H607.244ZM610.1 366.176H611.252V364.928C611.252 363.008 612.308 362.224 613.732 362.224C614.02 362.224 614.356 362.24 614.66 362.288V363.584H613.988C613.012 363.584 612.756 364.08 612.756 364.928V366.176H614.612V367.44H612.756V374H611.252V367.44H610.1V366.176ZM619.152 374.192C616.848 374.192 615.264 372.528 615.264 370.096C615.264 367.648 616.816 365.952 619.088 365.952C621.312 365.952 622.767 367.488 622.767 369.808V370.368L616.72 370.384C616.832 372.032 617.696 372.944 619.184 372.944C620.352 372.944 621.12 372.464 621.376 371.568H622.784C622.4 373.248 621.088 374.192 619.152 374.192ZM619.088 367.216C617.776 367.216 616.944 368 616.752 369.376H621.264C621.264 368.08 620.416 367.216 619.088 367.216ZM625.083 374.192C624.459 374.192 623.931 373.68 623.931 373.072C623.931 372.448 624.459 371.936 625.083 371.936C625.691 371.936 626.219 372.448 626.219 373.072C626.219 373.68 625.691 374.192 625.083 374.192ZM394.912 386.432V398H393.344V386.432H394.912ZM403.233 397.984H401.729V386.224H403.233V391.376C403.729 390.528 404.673 389.952 405.889 389.952C407.889 389.952 408.849 391.216 408.849 393.216V398H407.345V393.552C407.345 391.968 406.593 391.328 405.473 391.328C404.017 391.328 403.233 392.384 403.233 393.728V397.984ZM411.668 388.32C411.124 388.32 410.676 387.872 410.676 387.328C410.676 386.768 411.124 386.336 411.668 386.336C412.212 386.336 412.66 386.768 412.66 387.328C412.66 387.872 412.212 388.32 411.668 388.32ZM410.932 398V390.176H412.436V398H410.932ZM414.123 393.888C414.123 391.68 415.547 389.952 417.819 389.952C419.083 389.952 420.059 390.528 420.555 391.504L420.667 390.176H422.011V397.68C422.011 400.144 420.491 401.712 418.091 401.712C415.963 401.712 414.507 400.512 414.219 398.528H415.723C415.915 399.68 416.779 400.352 418.091 400.352C419.563 400.352 420.523 399.392 420.523 397.904V396.336C420.011 397.248 418.987 397.792 417.755 397.792C415.531 397.792 414.123 396.08 414.123 393.888ZM415.627 393.856C415.627 395.328 416.539 396.48 418.011 396.48C419.531 396.48 420.459 395.392 420.459 393.856C420.459 392.352 419.563 391.264 418.027 391.264C416.523 391.264 415.627 392.416 415.627 393.856ZM425.686 397.984H424.182V386.224H425.686V391.376C426.182 390.528 427.126 389.952 428.342 389.952C430.342 389.952 431.302 391.216 431.302 393.216V398H429.798V393.552C429.798 391.968 429.046 391.328 427.926 391.328C426.47 391.328 425.686 392.384 425.686 393.728V397.984ZM434.921 398H433.417V386.224H434.921V398ZM436.383 401.504V400.272H437.391C438.111 400.272 438.687 400.16 439.055 399.168L439.327 398.416L436.175 390.176H437.759L440.031 396.48L442.351 390.176H443.903L440.207 399.76C439.679 401.104 438.895 401.664 437.695 401.664C437.199 401.664 436.783 401.6 436.383 401.504ZM453.959 390.112V391.488H453.287C451.863 391.488 450.983 392.352 450.983 393.856V398H449.479V390.192H450.887L450.983 391.376C451.303 390.56 452.087 390.016 453.159 390.016C453.431 390.016 453.655 390.048 453.959 390.112ZM458.464 398.192C456.16 398.192 454.576 396.528 454.576 394.096C454.576 391.648 456.128 389.952 458.4 389.952C460.624 389.952 462.08 391.488 462.08 393.808V394.368L456.032 394.384C456.144 396.032 457.008 396.944 458.496 396.944C459.664 396.944 460.432 396.464 460.688 395.568H462.096C461.712 397.248 460.4 398.192 458.464 398.192ZM458.4 391.216C457.088 391.216 456.256 392 456.064 393.376H460.576C460.576 392.08 459.728 391.216 458.4 391.216ZM463.248 394.096C463.248 391.648 464.8 389.952 467.088 389.952C469.056 389.952 470.432 391.072 470.704 392.816H469.2C468.944 391.824 468.144 391.296 467.136 391.296C465.712 391.296 464.736 392.384 464.736 394.08C464.736 395.76 465.648 396.848 467.072 396.848C468.144 396.848 468.944 396.288 469.216 395.36H470.72C470.416 397.056 468.96 398.192 467.072 398.192C464.768 398.192 463.248 396.56 463.248 394.096ZM471.795 394.08C471.795 391.664 473.523 389.968 475.875 389.968C478.211 389.968 479.939 391.664 479.939 394.08C479.939 396.496 478.211 398.192 475.875 398.192C473.523 398.192 471.795 396.496 471.795 394.08ZM473.315 394.08C473.315 395.712 474.355 396.848 475.875 396.848C477.379 396.848 478.435 395.712 478.435 394.08C478.435 392.448 477.379 391.312 475.875 391.312C474.355 391.312 473.315 392.448 473.315 394.08ZM483.108 398H481.604V390.176H482.948L483.092 391.2C483.492 390.464 484.324 389.952 485.428 389.952C486.644 389.952 487.508 390.56 487.908 391.536C488.276 390.56 489.22 389.952 490.436 389.952C492.228 389.952 493.316 391.072 493.316 392.88V398H491.844V393.248C491.844 392.016 491.156 391.312 490.1 391.312C488.964 391.312 488.212 392.112 488.212 393.36V398H486.724V393.232C486.724 392 486.052 391.328 484.996 391.328C483.86 391.328 483.108 392.112 483.108 393.36V398ZM496.905 398H495.401V390.176H496.745L496.889 391.2C497.289 390.464 498.121 389.952 499.225 389.952C500.441 389.952 501.305 390.56 501.705 391.536C502.073 390.56 503.017 389.952 504.233 389.952C506.025 389.952 507.113 391.072 507.113 392.88V398H505.641V393.248C505.641 392.016 504.953 391.312 503.897 391.312C502.76 391.312 502.009 392.112 502.009 393.36V398H500.521V393.232C500.521 392 499.849 391.328 498.793 391.328C497.657 391.328 496.905 392.112 496.905 393.36V398ZM512.573 398.192C510.269 398.192 508.685 396.528 508.685 394.096C508.685 391.648 510.237 389.952 512.509 389.952C514.733 389.952 516.189 391.488 516.189 393.808V394.368L510.141 394.384C510.253 396.032 511.117 396.944 512.605 396.944C513.773 396.944 514.541 396.464 514.797 395.568H516.205C515.821 397.248 514.509 398.192 512.573 398.192ZM512.509 391.216C511.197 391.216 510.365 392 510.173 393.376H514.685C514.685 392.08 513.837 391.216 512.509 391.216ZM519.373 398H517.869V390.176H519.229L519.389 391.376C519.885 390.48 520.877 389.952 521.981 389.952C524.045 389.952 524.989 391.216 524.989 393.216V398H523.485V393.552C523.485 391.968 522.749 391.328 521.597 391.328C520.189 391.328 519.373 392.336 519.373 393.856V398ZM530.208 398.192C527.936 398.192 526.56 396.496 526.56 394.112C526.56 391.712 527.952 389.952 530.272 389.952C531.472 389.952 532.48 390.48 533.008 391.44V386.224H534.496V398H533.152L533.024 396.576C532.512 397.648 531.456 398.192 530.208 398.192ZM530.512 396.832C532.048 396.832 532.992 395.696 532.992 394.064C532.992 392.464 532.048 391.312 530.512 391.312C528.976 391.312 528.08 392.464 528.08 394.064C528.08 395.68 528.976 396.832 530.512 396.832ZM543.249 398H541.745V391.44H540.209V390.176H541.745V387.728H543.249V390.176H544.785V391.44H543.249V398ZM547.639 397.984H546.135V386.224H547.639V391.376C548.135 390.528 549.079 389.952 550.295 389.952C552.295 389.952 553.255 391.216 553.255 393.216V398H551.751V393.552C551.751 391.968 550.999 391.328 549.879 391.328C548.423 391.328 547.639 392.384 547.639 393.728V397.984ZM558.714 398.192C556.41 398.192 554.826 396.528 554.826 394.096C554.826 391.648 556.378 389.952 558.65 389.952C560.874 389.952 562.33 391.488 562.33 393.808V394.368L556.282 394.384C556.394 396.032 557.258 396.944 558.746 396.944C559.914 396.944 560.682 396.464 560.938 395.568H562.346C561.962 397.248 560.65 398.192 558.714 398.192ZM558.65 391.216C557.338 391.216 556.506 392 556.314 393.376H560.826C560.826 392.08 559.978 391.216 558.65 391.216ZM565.514 398H564.01V390.176H565.354L565.498 391.2C565.898 390.464 566.73 389.952 567.834 389.952C569.05 389.952 569.914 390.56 570.314 391.536C570.682 390.56 571.626 389.952 572.842 389.952C574.634 389.952 575.722 391.072 575.722 392.88V398H574.25V393.248C574.25 392.016 573.562 391.312 572.506 391.312C571.37 391.312 570.618 392.112 570.618 393.36V398H569.13V393.232C569.13 392 568.458 391.328 567.402 391.328C566.266 391.328 565.514 392.112 565.514 393.36V398ZM581.35 390.176H582.502V388.928C582.502 387.008 583.558 386.224 584.982 386.224C585.27 386.224 585.606 386.24 585.91 386.288V387.584H585.238C584.262 387.584 584.006 388.08 584.006 388.928V390.176H585.862V391.44H584.006V398H582.502V391.44H581.35V390.176ZM586.514 394.08C586.514 391.664 588.242 389.968 590.594 389.968C592.93 389.968 594.658 391.664 594.658 394.08C594.658 396.496 592.93 398.192 590.594 398.192C588.242 398.192 586.514 396.496 586.514 394.08ZM588.034 394.08C588.034 395.712 589.074 396.848 590.594 396.848C592.098 396.848 593.154 395.712 593.154 394.08C593.154 392.448 592.098 391.312 590.594 391.312C589.074 391.312 588.034 392.448 588.034 394.08ZM600.802 390.112V391.488H600.13C598.706 391.488 597.826 392.352 597.826 393.856V398H596.322V390.192H597.73L597.826 391.376C598.146 390.56 598.93 390.016 600.002 390.016C600.274 390.016 600.498 390.048 600.802 390.112ZM608.876 398.192C607.196 398.192 606.204 397.248 606.204 395.824C606.204 394.384 607.276 393.488 609.116 393.344L611.58 393.152V392.928C611.58 391.616 610.796 391.152 609.74 391.152C608.476 391.152 607.756 391.712 607.756 392.656H606.444C606.444 391.024 607.788 389.952 609.804 389.952C611.74 389.952 613.052 390.976 613.052 393.088V398H611.772L611.612 396.736C611.212 397.632 610.14 398.192 608.876 398.192ZM609.308 397.024C610.732 397.024 611.596 396.096 611.596 394.624V394.208L609.596 394.368C608.268 394.496 607.724 395.008 607.724 395.776C607.724 396.608 608.332 397.024 609.308 397.024ZM616.671 398H615.167V386.224H616.671V398ZM620.421 398H618.917V386.224H620.421V398ZM392.336 425.504V424.272H393.344C394.064 424.272 394.64 424.16 395.008 423.168L395.28 422.416L392.128 414.176H393.712L395.984 420.48L398.304 414.176H399.856L396.16 423.76C395.632 425.104 394.848 425.664 393.648 425.664C393.152 425.664 392.736 425.6 392.336 425.504ZM400.248 418.08C400.248 415.664 401.976 413.968 404.328 413.968C406.664 413.968 408.392 415.664 408.392 418.08C408.392 420.496 406.664 422.192 404.328 422.192C401.976 422.192 400.248 420.496 400.248 418.08ZM401.768 418.08C401.768 419.712 402.808 420.848 404.328 420.848C405.832 420.848 406.888 419.712 406.888 418.08C406.888 416.448 405.832 415.312 404.328 415.312C402.808 415.312 401.768 416.448 401.768 418.08ZM415.277 414.176H416.765V422H415.421L415.261 420.816C414.813 421.632 413.773 422.192 412.621 422.192C410.797 422.192 409.773 420.96 409.773 419.04V414.176H411.277V418.544C411.277 420.224 411.997 420.864 413.149 420.864C414.525 420.864 415.277 419.984 415.277 418.304V414.176ZM423.427 414.112V415.488H422.755C421.331 415.488 420.451 416.352 420.451 417.856V422H418.947V414.192H420.355L420.451 415.376C420.771 414.56 421.555 414.016 422.627 414.016C422.899 414.016 423.123 414.048 423.427 414.112ZM430.717 421.984H429.213V410.224H430.717V415.376C431.213 414.528 432.157 413.952 433.373 413.952C435.373 413.952 436.333 415.216 436.333 417.216V422H434.829V417.552C434.829 415.968 434.077 415.328 432.957 415.328C431.501 415.328 430.717 416.384 430.717 417.728V421.984ZM441.792 422.192C439.488 422.192 437.904 420.528 437.904 418.096C437.904 415.648 439.456 413.952 441.728 413.952C443.952 413.952 445.408 415.488 445.408 417.808V418.368L439.36 418.384C439.472 420.032 440.336 420.944 441.824 420.944C442.992 420.944 443.76 420.464 444.016 419.568H445.424C445.04 421.248 443.728 422.192 441.792 422.192ZM441.728 415.216C440.416 415.216 439.584 416 439.392 417.376H443.904C443.904 416.08 443.056 415.216 441.728 415.216ZM449.298 422.192C447.618 422.192 446.626 421.248 446.626 419.824C446.626 418.384 447.698 417.488 449.538 417.344L452.002 417.152V416.928C452.002 415.616 451.218 415.152 450.162 415.152C448.898 415.152 448.178 415.712 448.178 416.656H446.866C446.866 415.024 448.21 413.952 450.226 413.952C452.162 413.952 453.474 414.976 453.474 417.088V422H452.194L452.034 420.736C451.634 421.632 450.562 422.192 449.298 422.192ZM449.73 421.024C451.154 421.024 452.018 420.096 452.018 418.624V418.208L450.018 418.368C448.69 418.496 448.146 419.008 448.146 419.776C448.146 420.608 448.754 421.024 449.73 421.024ZM457.093 422H455.589V410.224H457.093V422ZM461.515 422H460.011V415.44H458.475V414.176H460.011V411.728H461.515V414.176H463.051V415.44H461.515V422ZM465.905 421.984H464.401V410.224H465.905V415.376C466.401 414.528 467.345 413.952 468.561 413.952C470.561 413.952 471.521 415.216 471.521 417.216V422H470.017V417.552C470.017 415.968 469.265 415.328 468.145 415.328C466.689 415.328 465.905 416.384 465.905 417.728V421.984ZM478.715 412.32C478.171 412.32 477.723 411.872 477.723 411.328C477.723 410.768 478.171 410.336 478.715 410.336C479.259 410.336 479.707 410.768 479.707 411.328C479.707 411.872 479.259 412.32 478.715 412.32ZM477.979 422V414.176H479.483V422H477.979ZM483.17 422H481.666V414.176H483.026L483.186 415.376C483.682 414.48 484.674 413.952 485.778 413.952C487.842 413.952 488.786 415.216 488.786 417.216V422H487.282V417.552C487.282 415.968 486.546 415.328 485.394 415.328C483.986 415.328 483.17 416.336 483.17 417.856V422ZM490.136 419.728H491.576C491.576 420.528 492.184 421.008 493.176 421.008C494.232 421.008 494.84 420.576 494.84 419.856C494.84 419.328 494.584 419.008 493.768 418.8L492.392 418.48C491 418.144 490.344 417.456 490.344 416.304C490.344 414.864 491.56 413.952 493.288 413.952C495 413.952 496.12 414.912 496.152 416.4H494.712C494.68 415.616 494.152 415.12 493.24 415.12C492.296 415.12 491.768 415.536 491.768 416.256C491.768 416.784 492.152 417.136 492.92 417.328L494.296 417.664C495.624 417.984 496.28 418.592 496.28 419.76C496.28 421.248 495 422.192 493.144 422.192C491.304 422.192 490.136 421.216 490.136 419.728ZM503.355 414.176H504.843V422H503.499L503.339 420.816C502.891 421.632 501.851 422.192 500.699 422.192C498.875 422.192 497.851 420.96 497.851 419.04V414.176H499.355V418.544C499.355 420.224 500.075 420.864 501.227 420.864C502.603 420.864 503.355 419.984 503.355 418.304V414.176ZM511.506 414.112V415.488H510.834C509.41 415.488 508.53 416.352 508.53 417.856V422H507.026V414.192H508.434L508.53 415.376C508.85 414.56 509.634 414.016 510.706 414.016C510.978 414.016 511.202 414.048 511.506 414.112ZM514.892 422.192C513.212 422.192 512.22 421.248 512.22 419.824C512.22 418.384 513.292 417.488 515.132 417.344L517.596 417.152V416.928C517.596 415.616 516.812 415.152 515.756 415.152C514.492 415.152 513.772 415.712 513.772 416.656H512.46C512.46 415.024 513.804 413.952 515.82 413.952C517.756 413.952 519.068 414.976 519.068 417.088V422H517.788L517.628 420.736C517.228 421.632 516.156 422.192 514.892 422.192ZM515.324 421.024C516.748 421.024 517.612 420.096 517.612 418.624V418.208L515.612 418.368C514.284 418.496 513.74 419.008 513.74 419.776C513.74 420.608 514.348 421.024 515.324 421.024ZM522.655 422H521.151V414.176H522.511L522.671 415.376C523.167 414.48 524.159 413.952 525.263 413.952C527.327 413.952 528.271 415.216 528.271 417.216V422H526.767V417.552C526.767 415.968 526.031 415.328 524.879 415.328C523.471 415.328 522.655 416.336 522.655 417.856V422ZM529.842 418.096C529.842 415.648 531.394 413.952 533.682 413.952C535.65 413.952 537.026 415.072 537.298 416.816H535.794C535.538 415.824 534.738 415.296 533.73 415.296C532.306 415.296 531.33 416.384 531.33 418.08C531.33 419.76 532.242 420.848 533.666 420.848C534.738 420.848 535.538 420.288 535.81 419.36H537.314C537.01 421.056 535.554 422.192 533.666 422.192C531.362 422.192 529.842 420.56 529.842 418.096ZM542.277 422.192C539.973 422.192 538.389 420.528 538.389 418.096C538.389 415.648 539.941 413.952 542.213 413.952C544.437 413.952 545.892 415.488 545.892 417.808V418.368L539.845 418.384C539.957 420.032 540.821 420.944 542.309 420.944C543.477 420.944 544.245 420.464 544.501 419.568H545.909C545.525 421.248 544.213 422.192 542.277 422.192ZM542.213 415.216C540.901 415.216 540.069 416 539.877 417.376H544.389C544.389 416.08 543.541 415.216 542.213 415.216ZM553.451 422H551.947V414.176H553.307L553.467 415.376C553.963 414.48 554.955 413.952 556.059 413.952C558.123 413.952 559.067 415.216 559.067 417.216V422H557.563V417.552C557.563 415.968 556.827 415.328 555.675 415.328C554.267 415.328 553.451 416.336 553.451 417.856V422ZM564.527 422.192C562.223 422.192 560.639 420.528 560.639 418.096C560.639 415.648 562.191 413.952 564.463 413.952C566.687 413.952 568.142 415.488 568.142 417.808V418.368L562.095 418.384C562.207 420.032 563.071 420.944 564.559 420.944C565.727 420.944 566.495 420.464 566.751 419.568H568.159C567.775 421.248 566.463 422.192 564.527 422.192ZM564.463 415.216C563.151 415.216 562.319 416 562.127 417.376H566.639C566.639 416.08 565.791 415.216 564.463 415.216ZM573.198 422.192C570.894 422.192 569.31 420.528 569.31 418.096C569.31 415.648 570.862 413.952 573.134 413.952C575.358 413.952 576.814 415.488 576.814 417.808V418.368L570.766 418.384C570.878 420.032 571.742 420.944 573.23 420.944C574.398 420.944 575.166 420.464 575.422 419.568H576.83C576.446 421.248 575.134 422.192 573.198 422.192ZM573.134 415.216C571.822 415.216 570.99 416 570.798 417.376H575.31C575.31 416.08 574.462 415.216 573.134 415.216ZM581.63 422.192C579.358 422.192 577.982 420.496 577.982 418.112C577.982 415.712 579.374 413.952 581.694 413.952C582.894 413.952 583.902 414.48 584.43 415.44V410.224H585.918V422H584.574L584.446 420.576C583.934 421.648 582.878 422.192 581.63 422.192ZM581.934 420.832C583.47 420.832 584.414 419.696 584.414 418.064C584.414 416.464 583.47 415.312 581.934 415.312C580.398 415.312 579.502 416.464 579.502 418.064C579.502 419.68 580.398 420.832 581.934 420.832ZM587.448 419.728H588.888C588.888 420.528 589.496 421.008 590.488 421.008C591.544 421.008 592.152 420.576 592.152 419.856C592.152 419.328 591.896 419.008 591.08 418.8L589.704 418.48C588.312 418.144 587.656 417.456 587.656 416.304C587.656 414.864 588.872 413.952 590.6 413.952C592.312 413.952 593.432 414.912 593.464 416.4H592.024C591.992 415.616 591.464 415.12 590.552 415.12C589.608 415.12 589.08 415.536 589.08 416.256C589.08 416.784 589.464 417.136 590.232 417.328L591.608 417.664C592.936 417.984 593.592 418.592 593.592 419.76C593.592 421.248 592.312 422.192 590.456 422.192C588.616 422.192 587.448 421.216 587.448 419.728Z" fill="#5D6162"/>
<rect x="353" y="283" width="48" height="48" rx="24" fill="#F43F3E"/>
<path d="M373.09 306.63H368.4C368.48 301.96 369.4 301.19 372.27 299.49C372.6 299.29 372.71 298.87 372.51 298.53C372.32 298.2 371.89 298.09 371.56 298.29C368.18 300.29 367 301.51 367 307.32V312.71C367 314.42 368.39 315.8 370.09 315.8H373.09C374.85 315.8 376.18 314.47 376.18 312.71V309.71C376.18 307.96 374.85 306.63 373.09 306.63Z" fill="white"/>
<path d="M383.91 306.63H379.22C379.3 301.96 380.22 301.19 383.09 299.49C383.42 299.29 383.53 298.87 383.33 298.53C383.13 298.2 382.71 298.09 382.37 298.29C378.99 300.29 377.81 301.51 377.81 307.33V312.72C377.81 314.43 379.2 315.81 380.9 315.81H383.9C385.66 315.81 386.99 314.48 386.99 312.72V309.72C387 307.96 385.67 306.63 383.91 306.63Z" fill="white"/>
</svg>
