<svg width="20" height="20" viewBox="0 0 20 20" fill="none" xmlns="http://www.w3.org/2000/svg">
<path fill-rule="evenodd" clip-rule="evenodd" d="M18.3332 10C18.3332 14.6024 14.6022 18.3334 9.99984 18.3334C5.39746 18.3334 1.6665 14.6024 1.6665 10C1.6665 5.39765 5.39746 1.66669 9.99984 1.66669C14.6022 1.66669 18.3332 5.39765 18.3332 10ZM10.8332 5.83335C10.8332 6.29359 10.4601 6.66669 9.99984 6.66669C9.5396 6.66669 9.1665 6.29359 9.1665 5.83335C9.1665 5.37312 9.5396 5.00002 9.99984 5.00002C10.4601 5.00002 10.8332 5.37312 10.8332 5.83335ZM9.1665 7.70835C8.82133 7.70835 8.5415 7.98818 8.5415 8.33335C8.5415 8.67853 8.82133 8.95835 9.1665 8.95835H9.37484V14.1667C9.37484 14.5119 9.65466 14.7917 9.99984 14.7917C10.345 14.7917 10.6248 14.5119 10.6248 14.1667V8.33335C10.6248 7.98818 10.345 7.70835 9.99984 7.70835H9.1665Z" fill="#7D7E7F"/>
</svg>
