<svg width="64" height="64" viewBox="0 0 64 64" fill="none" xmlns="http://www.w3.org/2000/svg">
<rect width="64" height="64" rx="32" fill="#FDEDED"/>
<path d="M40 29.4134C39.8773 28.8141 39.7215 28.2221 39.5333 27.6401C39.2881 26.951 38.9986 26.2785 38.6666 25.6267C37.5301 23.2566 35.9401 21.1321 33.9866 19.3734C33.4621 18.9157 32.7895 18.6636 32.0933 18.6636C31.3971 18.6636 30.7245 18.9157 30.2 19.3734C28.2369 21.1297 26.6377 23.2543 25.4933 25.6267C25.1864 26.2795 24.9236 26.9521 24.7066 27.6401C24.52 28.2401 24.36 28.8401 24.24 29.4267C23.7898 32.0657 23.9633 34.7734 24.7466 37.3334H39.4133C40.2235 34.7752 40.4244 32.063 40 29.4134ZM32.0933 32.7067C31.3696 32.7094 30.6614 32.497 30.0586 32.0966C29.4558 31.6962 28.9855 31.1257 28.7073 30.4576C28.4291 29.7895 28.3557 29.0539 28.4962 28.3439C28.6367 27.634 28.985 26.9818 29.4967 26.4701C30.0084 25.9584 30.6606 25.6102 31.3705 25.4696C32.0804 25.3291 32.8161 25.4026 33.4842 25.6807C34.1523 25.9589 34.7227 26.4292 35.1232 27.032C35.5236 27.6349 35.7359 28.343 35.7333 29.0667C35.7333 29.5447 35.6391 30.0181 35.4562 30.4597C35.2733 30.9013 35.0052 31.3026 34.6672 31.6406C34.3292 31.9786 33.9279 32.2467 33.4863 32.4296C33.0446 32.6126 32.5713 32.7067 32.0933 32.7067Z" fill="#F43F3E"/>
<path d="M24.8398 40.8534C24.473 39.7524 24.1922 38.6246 23.9998 37.4801C23.9654 37.3084 23.8834 37.1498 23.7632 37.0225C23.6429 36.8951 23.4893 36.8042 23.3198 36.7601C23.1505 36.7135 22.9713 36.7164 22.8036 36.7684C22.6358 36.8204 22.4865 36.9193 22.3731 37.0534L22.0131 37.4668C21.7349 37.7653 21.529 38.1237 21.4111 38.5143C21.2932 38.905 21.2665 39.3175 21.3331 39.7201L22.1331 43.6401C22.2063 43.9912 22.3669 44.3183 22.5999 44.591C22.833 44.8636 23.131 45.0731 23.4665 45.2001C23.7968 45.3234 24.1527 45.3624 24.502 45.3135C24.8512 45.2646 25.1827 45.1294 25.4665 44.9201L25.6931 44.7468C25.8733 44.6177 26.0008 44.428 26.0523 44.2124C26.1037 43.9968 26.0756 43.7699 25.9731 43.5734C25.5413 42.6902 25.1629 41.7819 24.8398 40.8534Z" fill="#F43F3E"/>
<path d="M39.2934 40.8534C39.6783 39.7539 39.9769 38.626 40.1867 37.4801C40.2211 37.3084 40.3031 37.1498 40.4233 37.0225C40.5436 36.8951 40.6972 36.8042 40.8667 36.7601C41.036 36.7135 41.2152 36.7164 41.3829 36.7684C41.5507 36.8204 41.7 36.9193 41.8134 37.0534L42.1734 37.4668C42.4329 37.7747 42.6193 38.1374 42.7186 38.5277C42.8179 38.9179 42.8275 39.3256 42.7467 39.7201L41.9467 43.6401C41.8735 43.9912 41.713 44.3183 41.4799 44.591C41.2469 44.8636 40.9488 45.0731 40.6134 45.2001C40.3749 45.2905 40.1217 45.3357 39.8667 45.3334C39.4157 45.3316 38.977 45.1869 38.6134 44.9201L38.3867 44.7468C38.2065 44.6177 38.079 44.428 38.0276 44.2124C37.9761 43.9968 38.0042 43.7699 38.1067 43.5734C38.5622 42.6941 38.9586 41.7854 39.2934 40.8534Z" fill="#F43F3E"/>
<path d="M38.8396 38.5734C38.7729 38.7601 38.7196 38.9601 38.6529 39.1601C38.3901 40.2053 37.9769 41.2069 37.4262 42.1334C37.3887 42.1779 37.3573 42.2272 37.3329 42.2801C37.0638 42.6423 36.7141 42.9369 36.3114 43.1406C35.9087 43.3442 35.4641 43.4513 35.0129 43.4534H29.2129C28.7597 43.454 28.313 43.3467 27.9095 43.1404C27.5061 42.934 27.1576 42.6345 26.8929 42.2667C26.8543 42.223 26.8229 42.1735 26.7996 42.1201C26.2491 41.1982 25.8359 40.2011 25.5729 39.1601C25.5062 38.9467 25.4529 38.7467 25.3862 38.5601L38.8396 38.5734Z" fill="#F43F3E"/>
</svg>
