<svg width="68" height="189" viewBox="0 0 68 189" fill="none" xmlns="http://www.w3.org/2000/svg">
<g id="Group">
<path id="Vector" d="M135.542 47.4398H125.838C122.699 39.1395 116.257 33.193 108.205 32.2432C91.9757 30.385 84.6252 41.2868 84.6252 41.2868C84.6252 41.2868 77.316 30.385 61.0458 32.2432C50.3504 33.4821 42.4631 43.6819 41.4307 56.3182H32.1807C32.511 50.6195 33.9976 45.1273 36.5992 40.0893C41.6372 30.385 50.144 24.1494 59.9722 23.0345C61.5414 22.8693 63.1519 22.7454 64.6798 22.7454C73.0626 22.7454 79.7524 25.4709 84.5839 28.7332C89.4155 25.4709 96.1052 22.7454 104.488 22.7454C106.016 22.7454 107.585 22.828 109.196 23.0345C119.024 24.1494 127.572 30.385 132.569 40.0893C133.849 42.4431 134.799 44.8795 135.542 47.4398Z" fill="#FFEFDD"/>
<path id="Vector_2" d="M131.784 80.5996C131.661 80.8887 131.495 81.1778 131.33 81.4255C119.024 104.303 89.7049 118.013 88.4661 118.591L84.6256 120.367L80.7852 118.591C79.5876 118.054 51.7135 105.005 38.9121 83.1599H49.9379C62.4502 99.967 84.5843 110.167 84.5843 110.167C84.5843 110.167 109.031 98.8933 121.048 80.5996H131.784Z" fill="#FFEFDD"/>
<path id="Vector_3" d="M127.201 147.085C127.201 147.085 126.416 135.811 110.476 128.873C94.5364 121.936 59.1879 127.924 60.4268 138.495C61.6656 149.067 86.4013 144.029 92.3477 146.217" stroke="#80582A" stroke-width="1.5" stroke-miterlimit="10" stroke-linecap="round" stroke-linejoin="round"/>
<path id="Vector_4" d="M63.2761 133.003C63.2761 133.003 60.5506 132.714 49.2771 122.308C38.0036 111.901 26.7713 124.207 38.9533 139.321C51.1354 154.435 64.4736 163.85 87.1445 164.635C97.8399 165.006 101.598 165.626 104.984 167.608" stroke="#80582A" stroke-width="1.5" stroke-miterlimit="10" stroke-linecap="round" stroke-linejoin="round"/>
<path id="Vector_5" d="M133.684 76.3876C132.982 78.0807 132.197 79.7738 131.33 81.4256C119.024 104.303 89.7049 118.013 88.4661 118.591L84.6256 120.367L80.7852 118.591C79.5464 118.013 50.2269 104.303 37.921 81.4256C37.0952 79.8977 36.3518 78.3698 35.7324 76.8006" stroke="#FFD8A9" stroke-width="1.5" stroke-miterlimit="10" stroke-linecap="round" stroke-linejoin="round"/>
<path id="Vector_6" d="M32.924 67.2613C31.1896 57.8461 32.3872 48.307 36.6406 40.0893C41.6785 30.385 50.1853 24.1494 60.0135 23.0345C61.5827 22.8693 63.1932 22.7454 64.7211 22.7454C73.104 22.7454 79.7938 25.4709 84.6253 28.7332C89.4568 25.4709 96.1466 22.7454 104.529 22.7454C106.057 22.7454 107.668 22.828 109.237 23.0345C119.065 24.1494 127.613 30.385 132.61 40.0893C135.418 45.5402 136.946 51.6106 137.111 57.8048" stroke="#FFD8A9" stroke-width="1.5" stroke-miterlimit="10" stroke-linecap="round" stroke-linejoin="round"/>
<path id="Vector_7" d="M0.755371 70.854H15.9932L20.5769 61.3975L29.6205 80.5996L34.7411 70.854H43.3718C37.0949 52.3126 46.5102 33.895 61.0873 32.2432C77.3162 30.385 84.6667 41.2868 84.6667 41.2868C84.6667 41.2868 91.9759 30.385 108.246 32.2432C121.419 33.7711 130.38 48.9264 127.366 65.4857" stroke="#80582A" stroke-width="1.5" stroke-miterlimit="10" stroke-linecap="round" stroke-linejoin="round"/>
<path id="Vector_8" d="M46.0146 77.007C56.9991 97.448 84.6254 110.167 84.6254 110.167C84.6254 110.167 112.252 97.448 123.236 77.007C124.31 75.0249 125.177 73.0014 125.879 71.0192H134.014L138.598 61.5627L147.642 80.7649L152.762 71.0192H168" stroke="#80582A" stroke-width="1.5" stroke-miterlimit="10" stroke-linecap="round" stroke-linejoin="round"/>
</g>
</svg>
