<svg width="161" height="186" viewBox="0 0 161 186" fill="none" xmlns="http://www.w3.org/2000/svg">
<path d="M146.363 167.855C146.363 171.802 143.03 175.003 138.996 174.783C135.576 174.608 132.726 171.802 132.463 168.382C132.331 166.628 132.858 165.005 133.778 163.734C134.962 162.111 135.488 160.138 135.357 158.121C135.357 158.033 135.357 157.902 135.357 157.814C135.357 155.534 137.242 153.692 139.566 153.78C141.671 153.868 143.381 155.578 143.469 157.683C143.469 157.814 143.469 157.99 143.469 158.121C143.337 160.138 143.82 162.155 145.003 163.777C145.837 164.874 146.363 166.321 146.363 167.855Z" fill="#FEF8F8"/>
<path d="M129.7 173.38C129.7 177.326 126.368 180.527 122.334 180.308C118.913 180.133 116.063 177.326 115.8 173.906C115.669 172.152 116.195 170.53 117.116 169.258C118.3 167.636 118.826 165.663 118.694 163.646C118.694 163.558 118.694 163.426 118.694 163.339C118.694 161.059 120.58 159.217 122.904 159.305C125.008 159.392 126.718 161.103 126.806 163.207C126.806 163.339 126.806 163.514 126.806 163.646C126.675 165.663 127.157 167.68 128.341 169.302C129.174 170.398 129.7 171.845 129.7 173.38Z" stroke="#FEDCDC" stroke-width="1.5" stroke-miterlimit="10" stroke-linecap="round" stroke-linejoin="round"/>
<path d="M122.729 170.135V184.825" stroke="#FEDCDC" stroke-width="1.5" stroke-miterlimit="10" stroke-linecap="round" stroke-linejoin="round"/>
<path d="M146.363 167.855C146.363 171.802 143.03 175.003 138.996 174.783C135.576 174.608 132.726 171.802 132.463 168.382C132.331 166.628 132.858 165.005 133.778 163.734C134.962 162.111 135.488 160.138 135.357 158.121C135.357 158.033 135.357 157.902 135.357 157.814C135.357 155.534 137.242 153.692 139.566 153.78C141.671 153.868 143.381 155.578 143.469 157.683C143.469 157.814 143.469 157.99 143.469 158.121C143.337 160.138 143.82 162.155 145.003 163.777C145.837 164.874 146.363 166.321 146.363 167.855Z" stroke="#FEDCDC" stroke-width="1.5" stroke-miterlimit="10" stroke-linecap="round" stroke-linejoin="round"/>
<path d="M139.391 164.61V184.824" stroke="#FEDCDC" stroke-width="1.5" stroke-miterlimit="10" stroke-linecap="round" stroke-linejoin="round"/>
<path d="M61.166 122.955V147.729" stroke="#FEDCDC" stroke-width="1.5" stroke-miterlimit="10" stroke-linecap="round" stroke-linejoin="round"/>
<path d="M61.166 156.367V181.141" stroke="#FEDCDC" stroke-width="1.5" stroke-miterlimit="10" stroke-linecap="round" stroke-linejoin="round"/>
<path d="M80.8534 122.56L61.1217 102.872L41.4339 122.56H0.830566L13.6342 95.7249H108.653L121.457 122.56H80.8534Z" fill="#FC4F4E"/>
<path d="M61.1221 63.2772C53.7118 63.2772 47.7046 69.2843 47.7046 76.6947C47.7046 84.105 54.2818 90.1122 61.1221 90.1122C67.9624 90.1122 74.5396 84.105 74.5396 76.6947C74.5835 69.2843 68.5763 63.2772 61.1221 63.2772ZM61.1221 86.122C55.9042 86.122 51.6948 81.9126 51.6948 76.6947C51.6948 71.4768 55.9042 67.2235 61.1221 67.2235C66.34 67.2235 70.5495 71.4768 70.5495 76.6947C70.5933 81.9126 66.34 86.122 61.1221 86.122Z" fill="#FEDCDC"/>
<path d="M93.1744 -16C93.1744 -16 79.4061 -3.1525 76.0298 1.45155C72.6535 6.0556 99.0062 34.5569 105.452 33.943C111.898 33.3291 140.136 15.176 150.572 5.92406L161.007 -2.75786C160.964 -2.75786 129.656 2.98623 93.1744 -16Z" fill="#FEDCDC"/>
<path d="M93.1744 -16C93.1744 -16 79.4061 -3.1525 76.0298 1.45155C72.6535 6.0556 99.0062 34.5569 105.452 33.943" stroke="#A83534" stroke-width="1.5" stroke-miterlimit="10" stroke-linecap="round" stroke-linejoin="round"/>
<path d="M76.7757 5.92398C76.7757 5.92398 68.3569 14.1236 67.5238 16.1844C66.6906 18.2453 74.7148 33.4168 90.2371 41.9671C94.008 44.028 102.646 33.1537 102.646 33.1537" stroke="#A83534" stroke-width="1.5" stroke-miterlimit="10" stroke-linecap="round" stroke-linejoin="round"/>
<path d="M67.4803 17.8069C67.4803 17.8069 53.8436 17.8069 45.907 21.8848C39.0229 25.3927 28.1924 35.5654 21.7906 42.2304C12.2755 52.0962 21.3959 57.5334 33.1472 47.8429" stroke="#A83534" stroke-width="1.5" stroke-miterlimit="10" stroke-linecap="round" stroke-linejoin="round"/>
<path d="M43.0126 33.9429C43.0126 33.9429 37.9262 41.2656 38.1016 53.7623C38.3208 66.2152 42.1356 76.081 47.4851 74.1955C52.133 72.5731 50.9053 64.812 51.1684 56.2178C51.4753 45.9135 61.1657 38.4593 70.5931 45.6065C80.0204 52.7538 67.1291 63.5843 72.8293 69.723C78.5296 75.8617 92.9556 57.5771 90.237 42.011" stroke="#A83534" stroke-width="1.5" stroke-miterlimit="10" stroke-linecap="round" stroke-linejoin="round"/>
<path d="M35.2074 29.5142C35.2074 29.5142 18.7205 33.899 14.5988 35.9598C10.5209 37.933 12.6257 42.7124 17.3612 42.4932" stroke="#A83534" stroke-width="1.5" stroke-miterlimit="10" stroke-linecap="round" stroke-linejoin="round"/>
<path d="M47.9677 74.1076C47.7923 74.9408 47.7046 75.8177 47.7046 76.6947C47.7046 84.105 54.2818 90.1122 61.1221 90.1122C67.9624 90.1122 74.5396 84.105 74.5396 76.6947C74.5396 69.2843 68.5324 63.2772 61.1221 63.2772C57.0442 63.2772 53.4049 65.0749 50.9494 67.9251" stroke="#A83534" stroke-width="1.5" stroke-miterlimit="10" stroke-linecap="round" stroke-linejoin="round"/>
<path d="M56.5186 74.5631H57.6787V70.9069H58.8389L60.8228 74.5631H63.4795V70.9069H64.6397V74.5631H65.7999V75.7819H64.6397V77.0007H65.7999V78.2194H64.6397V81.8757H63.4795L61.4899 78.2194H58.8389V81.8757H57.6787V78.2194H56.5186V77.0007H57.6787V75.7819H56.5186V74.5631ZM58.8389 74.5631H59.4944L58.8389 73.3627V74.5631ZM58.8389 75.7819V77.0007H60.8228L60.1615 75.7819H58.8389ZM63.4795 79.4382V78.2194H62.8124L63.4795 79.4382ZM61.4841 75.7819L62.1512 77.0007H63.4795V75.7819H61.4841Z" fill="#FC4F4E"/>
<path d="M12.5821 151.325L12.5821 185H3.8125" stroke="#A83534" stroke-width="1.5" stroke-miterlimit="10" stroke-linecap="round" stroke-linejoin="round"/>
<path d="M12.5811 128.26L12.5811 147.466" stroke="#A83534" stroke-width="1.5" stroke-miterlimit="10" stroke-linecap="round" stroke-linejoin="round"/>
<path d="M109.706 151.325V185H146.363" stroke="#A83534" stroke-width="1.5" stroke-miterlimit="10" stroke-linecap="round" stroke-linejoin="round"/>
<path d="M109.706 122.56V147.597" stroke="#A83534" stroke-width="1.5" stroke-miterlimit="10" stroke-linecap="round" stroke-linejoin="round"/>
<path d="M0.830566 122.56L13.6342 95.7249H108.653L121.457 122.56H80.8534L61.1217 102.872" stroke="#A83534" stroke-width="1.5" stroke-miterlimit="10" stroke-linecap="round" stroke-linejoin="round"/>
<path d="M75.2412 181.141H47.0469V185" stroke="#A83534" stroke-width="1.5" stroke-miterlimit="10" stroke-linecap="round" stroke-linejoin="round"/>
<path d="M70.6373 156.367H51.7388V181.141H70.6373V156.367Z" stroke="#A83534" stroke-width="1.5" stroke-miterlimit="10" stroke-linecap="round" stroke-linejoin="round"/>
<path d="M70.6373 122.955H51.7388V147.729H70.6373V122.955Z" stroke="#A83534" stroke-width="1.5" stroke-miterlimit="10" stroke-linecap="round" stroke-linejoin="round"/>
<path d="M102.559 156.367H80.2842V170.968H102.559V156.367Z" stroke="#FEDCDC" stroke-width="1.5" stroke-miterlimit="10" stroke-linecap="round" stroke-linejoin="round"/>
<path d="M87.7383 156.367V170.969" stroke="#FEDCDC" stroke-width="1.5" stroke-miterlimit="10" stroke-linecap="round" stroke-linejoin="round"/>
<path d="M95.1045 156.367V170.968" stroke="#FEDCDC" stroke-width="1.5" stroke-miterlimit="10" stroke-linecap="round" stroke-linejoin="round"/>
<path d="M42.0043 156.367H19.7295V170.968H42.0043V156.367Z" stroke="#FEDCDC" stroke-width="1.5" stroke-miterlimit="10" stroke-linecap="round" stroke-linejoin="round"/>
<path d="M27.1831 156.367V170.969" stroke="#FEDCDC" stroke-width="1.5" stroke-miterlimit="10" stroke-linecap="round" stroke-linejoin="round"/>
<path d="M34.5503 156.367V170.969" stroke="#FEDCDC" stroke-width="1.5" stroke-miterlimit="10" stroke-linecap="round" stroke-linejoin="round"/>
<path d="M61.1658 117.167C62.6672 117.167 63.8844 115.95 63.8844 114.448C63.8844 112.947 62.6672 111.73 61.1658 111.73C59.6644 111.73 58.4473 112.947 58.4473 114.448C58.4473 115.95 59.6644 117.167 61.1658 117.167Z" stroke="#FEDCDC" stroke-width="1.5" stroke-miterlimit="10" stroke-linecap="round" stroke-linejoin="round"/>
<path d="M26.5256 127.734H18.8521V142.95H26.5256V127.734Z" stroke="#FEDCDC" stroke-width="1.5" stroke-miterlimit="10" stroke-linecap="round" stroke-linejoin="round"/>
<path d="M40.2063 127.734H32.5327V142.95H40.2063V127.734Z" stroke="#FEDCDC" stroke-width="1.5" stroke-miterlimit="10" stroke-linecap="round" stroke-linejoin="round"/>
<path d="M89.7546 127.734H82.0811V142.95H89.7546V127.734Z" stroke="#FEDCDC" stroke-width="1.5" stroke-miterlimit="10" stroke-linecap="round" stroke-linejoin="round"/>
<path d="M103.435 127.734H95.7617V142.95H103.435V127.734Z" stroke="#FEDCDC" stroke-width="1.5" stroke-miterlimit="10" stroke-linecap="round" stroke-linejoin="round"/>
<path d="M113.126 147.817H9.16162V151.193H113.126V147.817Z" stroke="#FEDCDC" stroke-width="1.5" stroke-miterlimit="10" stroke-linecap="round" stroke-linejoin="round"/>
<path d="M47.7046 99.6713H74.145" stroke="#A83534" stroke-width="1.5" stroke-miterlimit="10" stroke-linecap="round" stroke-linejoin="round"/>
<path d="M91.5958 36.0477C92.5402 36.0477 93.3058 35.2821 93.3058 34.3376C93.3058 33.3932 92.5402 32.6276 91.5958 32.6276C90.6514 32.6276 89.8857 33.3932 89.8857 34.3376C89.8857 35.2821 90.6514 36.0477 91.5958 36.0477Z" stroke="#A83534" stroke-width="1.5" stroke-miterlimit="10" stroke-linecap="round" stroke-linejoin="round"/>
</svg>
