<svg width="111" height="92" viewBox="0 0 111 92" fill="none" xmlns="http://www.w3.org/2000/svg">
<g id="Group 12">
<g id="Oval Copy" filter="url(#filter0_d_736_12483)">
<path d="M55.9707 49.7008C69.7746 49.7008 80.9649 38.5749 80.9649 24.8504C80.9649 11.1259 69.7746 0 55.9707 0C42.1668 0 30.9766 11.1259 30.9766 24.8504C30.9766 38.5749 42.1668 49.7008 55.9707 49.7008Z" fill="white"/>
<path d="M55.9707 49.7008C69.7746 49.7008 80.9649 38.5749 80.9649 24.8504C80.9649 11.1259 69.7746 0 55.9707 0C42.1668 0 30.9766 11.1259 30.9766 24.8504C30.9766 38.5749 42.1668 49.7008 55.9707 49.7008Z" stroke="white"/>
</g>
<g id="logo-twitter">
<path id="Shape" d="M63.2545 20.228C62.7189 20.4962 62.1834 20.5857 61.5585 20.6751C62.1834 20.3174 62.6297 19.7809 62.8082 19.0656C62.2726 19.4232 61.6478 19.6021 60.9337 19.7809C60.3981 19.2444 59.5947 18.8867 58.7913 18.8867C57.2738 18.8867 55.9348 20.228 55.9348 21.8375C55.9348 22.1058 55.9348 22.2846 56.0241 22.4634C53.6139 22.374 51.3823 21.2116 49.9541 19.4232C49.6863 19.8703 49.597 20.3174 49.597 20.9433C49.597 21.9269 50.1326 22.8211 50.936 23.3576C50.4897 23.3576 50.0433 23.1788 49.597 22.9999C49.597 24.4306 50.5789 25.5931 51.9179 25.8613C51.6501 25.9507 51.3823 25.9507 51.1145 25.9507C50.936 25.9507 50.7575 25.9507 50.5789 25.8613C50.936 27.0238 52.0072 27.9179 53.3461 27.9179C52.3642 28.7227 51.1145 29.1698 49.6863 29.1698C49.4185 29.1698 49.24 29.1698 48.9722 29.1698C50.3111 29.9746 51.8286 30.5111 53.4354 30.5111C58.7913 30.5111 61.737 26.0402 61.737 22.1952C61.737 22.1058 61.737 21.9269 61.737 21.8375C62.3619 21.3904 62.8975 20.8539 63.2545 20.228Z" fill="#2E2F35"/>
</g>
</g>
<defs>
<filter id="filter0_d_736_12483" x="0.976562" y="-18" width="109.988" height="109.701" filterUnits="userSpaceOnUse" color-interpolation-filters="sRGB">
<feFlood flood-opacity="0" result="BackgroundImageFix"/>
<feColorMatrix in="SourceAlpha" type="matrix" values="0 0 0 0 0 0 0 0 0 0 0 0 0 0 0 0 0 0 127 0" result="hardAlpha"/>
<feOffset dy="12"/>
<feGaussianBlur stdDeviation="15"/>
<feColorMatrix type="matrix" values="0 0 0 0 0 0 0 0 0 0 0 0 0 0 0 0 0 0 0.08 0"/>
<feBlend mode="normal" in2="BackgroundImageFix" result="effect1_dropShadow_736_12483"/>
<feBlend mode="normal" in="SourceGraphic" in2="effect1_dropShadow_736_12483" result="shape"/>
</filter>
</defs>
</svg>
