<svg width="96" height="44" viewBox="0 0 96 44" fill="none" xmlns="http://www.w3.org/2000/svg">
<g clip-path="url(#clip0_759_11177)">
<mask id="mask0_759_11177" style="mask-type:luminance" maskUnits="userSpaceOnUse" x="0" y="0" width="96" height="44">
<path d="M0 0H96V44H0V0Z" fill="white"/>
</mask>
<g mask="url(#mask0_759_11177)">
<path d="M1.49925 37.6328L0.796463 41.3391C0.702759 41.6242 0.702759 41.8618 0.702759 42.1469C0.702759 42.9546 1.17128 43.3348 1.82721 43.3348C2.67055 43.3348 3.27963 42.7646 3.51389 41.3391L4.26352 37.6328H5.01315L4.31037 41.3391C3.98241 43.1922 3.09222 43.9525 1.78036 43.9525C0.702759 43.9525 -0.046875 43.3823 -0.046875 42.0993L-2.2877e-05 41.1965L0.655907 37.5853H1.49925V37.6328ZM6.09075 43.9525L6.65298 40.7689C6.79353 40.2462 6.79353 39.8186 6.88724 39.4384H7.54317L7.40261 40.2937C7.77743 39.6285 8.38651 39.2959 9.04244 39.2959C9.55781 39.2959 10.12 39.6285 10.12 40.5313L10.0732 41.2916L9.55781 43.8574H8.76132L9.22985 41.2916L9.2767 40.6739C9.2767 40.2462 9.08929 39.9136 8.57392 39.9136C8.05854 39.9136 7.26206 40.5313 7.07465 41.6717L6.65298 43.8574H6.09075V43.9525ZM11.7599 43.9525L12.6032 39.4384H13.3997L12.5563 43.9525H11.7599ZM12.7438 38.1555C12.7438 37.9179 13.0249 37.6328 13.2591 37.6328C13.5402 37.6328 13.7276 37.8229 13.7276 38.108C13.7276 38.4406 13.5402 38.6307 13.2123 38.6307C12.9312 38.6307 12.7438 38.4406 12.7438 38.1555ZM16.6793 38.2505L16.4919 39.4384H17.5227L17.3821 40.0086H16.3514L15.9766 42.1944C15.8828 42.4795 15.8828 42.6695 15.8828 42.9546C15.8828 43.1922 16.0234 43.3348 16.3045 43.3348H16.6325L16.5388 43.9525L15.9766 44C15.3206 44 15.0395 43.6199 15.0395 43.1447L15.0864 42.2894L15.5549 40.0086H14.899L15.0395 39.4384H15.6954L15.8828 38.4406L16.6793 38.2505ZM21.5988 43.6674C21.2708 43.8574 20.7086 44 20.1464 44C18.9751 44 18.4597 43.1922 18.4597 42.1944C18.4597 40.8639 19.4436 39.2959 20.8492 39.2959C21.6925 39.2959 22.161 39.8186 22.161 40.4363C22.161 41.6242 20.8492 41.9568 19.2093 41.8618C19.1625 42.0993 19.2093 42.4795 19.3031 42.7646C19.4905 43.1447 19.8184 43.3348 20.2869 43.3348C20.8023 43.3348 21.1771 43.1447 21.4583 43.0022L21.5988 43.6674ZM20.7086 39.9136C20.0058 39.9136 19.4905 40.6263 19.3031 41.2916C20.4744 41.2916 21.3645 41.149 21.3645 40.4363C21.3645 40.1037 21.1303 39.9136 20.7086 39.9136ZM28.0644 37.3002L27.0805 42.4795C26.9868 42.9546 26.8931 43.4773 26.8931 43.8574H26.1435L26.284 43.0022C25.9092 43.6674 25.3001 44 24.7379 44C23.8477 44 23.426 43.2873 23.426 42.3369C23.426 40.7689 24.5973 39.2959 26.1435 39.2959C26.4246 39.2959 26.7525 39.3434 26.9399 39.4384L27.3148 37.3002H28.0644ZM26.7994 40.1037C26.6588 39.9611 26.4246 39.9136 26.0966 39.9136C25.0659 39.9136 24.1757 41.0065 24.1757 42.1944C24.1757 42.7646 24.4099 43.3348 25.0659 43.3348C25.6281 43.3348 26.3777 42.6695 26.5651 41.6717L26.7994 40.1037ZM32.6091 37.7279C33.0307 37.6328 33.4992 37.5853 33.9209 37.5853C34.5768 37.5853 35.0454 37.7279 35.3733 38.013C35.6544 38.2981 35.8419 38.6307 35.8419 39.0108C35.8419 39.8186 35.1859 40.4363 34.53 40.6263C35.1391 40.8164 35.5607 41.2916 35.5607 42.0043C35.5607 42.6695 35.2328 43.1447 34.858 43.4773C34.3894 43.8574 33.6867 44 32.8433 44L31.5315 43.9525L32.6091 37.7279ZM32.3748 43.2873L33.0307 43.3348C33.9209 43.3348 34.8111 42.9546 34.8111 41.9568C34.8111 41.1965 34.202 40.8639 33.4992 40.8639H32.8902L32.3748 43.2873ZM32.937 40.2937H33.5461C34.3894 40.2937 35.1391 39.8186 35.1391 39.1058C35.1391 38.4881 34.6705 38.2505 34.0146 38.2505L33.3587 38.2981L32.937 40.2937ZM39.9648 43.9525L40.1054 42.8121C39.6369 43.7149 38.9809 44.0475 38.3719 44.0475C37.6222 44.0475 37.1537 43.3823 37.1537 42.622C37.1537 41.0065 38.2782 39.4384 40.1991 39.4384C40.6208 39.4384 41.1361 39.486 41.4173 39.6285L40.9487 41.9568C40.8082 42.7646 40.7613 43.5248 40.7613 44H39.9648V43.9525ZM40.4802 39.9611L39.9648 39.9136C38.8404 39.9136 37.8565 41.1015 37.8565 42.3369C37.8565 42.8596 38.0439 43.3348 38.653 43.3348C39.3089 43.3348 40.0117 42.4795 40.1991 41.2916L40.4802 39.9611ZM42.6354 43.9525L43.2445 40.7689L43.4319 39.4384H44.0878L43.9473 40.2937C44.3221 39.6285 44.9312 39.2959 45.5871 39.2959C46.1025 39.2959 46.7115 39.6285 46.7115 40.5313L46.6178 41.2916L46.1025 43.8574H45.306L45.7745 41.2916L45.8214 40.6739C45.8214 40.2462 45.6339 39.9136 45.1186 39.9136C44.6032 39.9136 43.8067 40.5313 43.6193 41.6717L43.2445 43.8574H42.6354V43.9525ZM48.3982 43.9525L49.6164 37.3952H50.366L49.5695 41.4816C49.7101 41.3391 49.8975 41.149 49.9443 41.0065L51.5373 39.4384H52.4275L50.5066 41.2916L51.7716 43.9525H50.9282L49.8975 41.7667L49.2884 42.2894L48.9604 44H48.3982V43.9525ZM55.9883 43.9525L56.691 40.0086H56.1288L56.2225 39.4384H56.8316L56.8785 39.1533C57.019 38.4881 57.2064 37.9654 57.6281 37.5853C57.8624 37.3002 58.284 37.1577 58.6588 37.1577C58.9868 37.1577 59.1742 37.2527 59.2679 37.3002L59.0337 37.9179C58.9399 37.8229 58.7994 37.8229 58.612 37.8229C58.0029 37.8229 57.6749 38.4406 57.5344 39.1533V39.4384H58.5183L58.3777 40.0086H57.4407L56.691 43.9525H55.9883ZM63.4846 41.1965C63.4846 42.622 62.5007 44.0475 61.0014 44.0475C59.9238 44.0475 59.3148 43.1922 59.3148 42.1944C59.3148 40.7689 60.3455 39.3434 61.7979 39.3434C62.9692 39.2959 63.4846 40.2462 63.4846 41.1965ZM60.1113 42.1469C60.1113 42.8596 60.4861 43.3823 61.142 43.3823C62.079 43.3823 62.735 42.1944 62.735 41.1965C62.735 40.6739 62.4539 39.9611 61.6574 39.9611C60.7672 39.9136 60.1113 41.1015 60.1113 42.1469ZM64.8902 43.9525L65.4055 41.0065C65.5461 40.4363 65.5929 39.8186 65.6398 39.4384H66.2957L66.202 40.4363C66.4363 39.8186 66.9517 39.3434 67.5607 39.3434H67.7481L67.6076 40.1037H67.4202C66.7643 40.1037 66.202 40.8639 65.9678 41.9568L65.5929 43.9525H64.8902ZM72.3865 41.9568L71.4026 43.9525H70.6061L73.8389 37.7279H74.7291L75.6193 43.9525H74.8228L74.5417 41.9568H72.3865ZM74.4949 41.2916L74.2137 39.486C74.1669 39.1533 74.1669 38.6782 74.0732 38.3456L73.5578 39.486L72.6676 41.2916H74.4949ZM77.1654 43.9525L77.8682 40.0086H77.306L77.4465 39.4384H78.0088L78.1025 39.1533C78.1962 38.4881 78.4304 37.9654 78.8052 37.5853C79.0395 37.3002 79.4612 37.1577 79.836 37.1577C80.164 37.1577 80.3514 37.2527 80.4451 37.3002L80.2577 37.9179C80.1171 37.8229 79.9766 37.8229 79.7891 37.8229C79.1801 37.8229 78.8521 38.4406 78.7584 39.1533L78.6647 39.3434H79.6486L79.508 39.9611H78.5241L77.8214 43.8574H77.1654V43.9525ZM80.4919 43.9525L81.0073 41.0065L81.2884 39.4384H81.9443L81.8038 40.4363C82.0849 39.8186 82.6003 39.3434 83.1625 39.3434H83.3968L83.2562 40.1037H83.0688C82.4129 40.1037 81.8038 40.8639 81.6164 41.9568L81.2416 43.9525H80.4919ZM84.2401 43.9525L85.0834 39.4384H85.8799L85.0366 43.9525H84.2401ZM85.224 38.1555C85.224 37.9179 85.4114 37.6328 85.7394 37.6328C85.9736 37.6328 86.2079 37.8229 86.2079 38.108C86.2079 38.4406 85.9736 38.6307 85.6457 38.6307C85.4114 38.6307 85.224 38.4406 85.224 38.1555ZM90.1903 43.7149C89.9092 43.8574 89.4407 44 88.8785 44C87.7072 44 87.1918 43.1922 87.1918 42.2894C87.1918 40.7689 88.2694 39.3434 89.8624 39.3434C90.2372 39.3434 90.6588 39.486 90.7525 39.581L90.5651 40.1512C90.3777 40.1037 90.1903 39.9611 89.8624 39.9611C88.691 39.9611 87.9414 41.1015 87.9414 42.1469C87.9414 42.8596 88.3631 43.3348 89.0659 43.3348C89.5344 43.3348 89.8624 43.1922 90.0966 43.0497L90.1903 43.7149ZM94.6413 43.9525L94.735 42.8121C94.3133 43.7149 93.6574 44.0475 93.0483 44.0475C92.2518 44.0475 91.8301 43.3823 91.8301 42.622C91.8301 41.0065 92.9077 39.4384 94.8755 39.4384C95.2972 39.4384 95.8126 39.486 96.0468 39.6285L95.6252 41.9568C95.4846 42.7646 95.3909 43.5248 95.3909 44H94.6413V43.9525ZM95.1566 39.9611L94.6413 39.9136C93.5168 39.9136 92.5329 41.1015 92.5329 42.3369C92.5329 42.8596 92.7203 43.3348 93.3294 43.3348C93.9853 43.3348 94.6881 42.4795 94.8755 41.2916L95.1566 39.9611ZM19.0219 11.0238L16.2108 24.2333C15.3675 27.0842 13.8214 29.0799 10.5417 29.2225C7.73058 29.2225 6.60613 27.3218 7.30891 23.3305L9.79207 11.0238H5.66908L2.8111 25.1361C2.29573 30.5529 5.43482 32.0734 10.2137 31.9309C14.7584 31.7883 17.8975 29.6976 19.6779 25.5162L22.817 11.0238H19.0219ZM53.7394 17.676L55.3792 24.5184H49.2884L53.7394 17.676ZM55.0044 11.0238L41.183 31.4557H44.9312L47.5549 27.5119H56.1757L57.019 31.4557H61.47L56.5505 11.0238H55.0044ZM68.4509 31.5983H76.3689C83.4905 31.2657 85.0366 27.987 82.7408 22.5227L74.0732 5.36933L68.4509 31.5983ZM87.8946 0C80.773 0.332613 79.2738 3.65875 81.5695 9.07559L90.1903 26.2289L95.8126 0H87.8946ZM28.2518 28.8898L29.7042 22H31.344C33.7335 22 35.7481 22.8553 35.7481 25.1361C35.7481 27.892 33.0776 29.0324 30.079 29.0324L28.2518 28.8898ZM31.3909 13.6371H33.3587C35.5139 13.6371 36.8257 14.1598 36.8257 15.9179C36.8257 18.0086 34.858 19.3391 31.9063 19.3391H30.2664L31.3909 13.6371ZM28.2518 11.0238L27.9238 11.0713L23.754 31.5508H31.7657C34.4831 31.5508 36.0293 30.7905 37.06 30.1728C38.6998 29.0799 39.8711 27.3218 40.2928 25.1836C40.8082 22.2851 38.8404 20.7646 36.4041 20.527C38.8872 19.9568 40.9956 18.1037 41.1361 15.4428C41.4641 11.0238 36.5446 11.0238 36.5446 11.0238H28.2518Z" fill="#787878"/>
</g>
</g>
<defs>
<clipPath id="clip0_759_11177">
<rect width="96" height="44" fill="white"/>
</clipPath>
</defs>
</svg>
