<svg width="64" height="64" viewBox="0 0 64 64" fill="none" xmlns="http://www.w3.org/2000/svg">
<rect width="64" height="64" rx="32" fill="#FDEDED"/>
<path d="M27.8665 27.3866H25.1465L26.6399 25.48H28.5465L27.8665 27.3866Z" fill="#F43F3E"/>
<path d="M27.8401 29.3867L29.6268 35.2934L25.1201 29.3867H27.8401Z" fill="#F43F3E"/>
<path d="M34.0135 27.3866H29.9868L30.6668 25.48H33.3468L34.0135 27.3866Z" fill="#F43F3E"/>
<path d="M29.9199 29.3867H34.1199L32.1333 36.6801L29.9199 29.3867Z" fill="#F43F3E"/>
<path d="M36.1335 27.3866L35.4668 25.48H37.3601L38.8535 27.3866H36.1335Z" fill="#F43F3E"/>
<path d="M36.1866 29.3867H38.9333L34.5732 35.3467L36.1866 29.3867Z" fill="#F43F3E"/>
<path d="M40.3332 18.6666H23.6665C20.9065 18.6666 18.6665 20.9066 18.6665 23.6666V40.3333C18.6665 43.08 20.9065 45.3333 23.6665 45.3333H40.3332C43.0932 45.3333 45.3332 43.08 45.3332 40.3333V23.6666C45.3332 20.9066 43.0932 18.6666 40.3332 18.6666ZM41.8932 28.4133C41.8932 28.52 41.8665 28.6266 41.8265 28.7333C41.8132 28.7733 41.7865 28.8 41.7732 28.84C41.7465 28.8933 41.7332 28.9333 41.7065 28.9733L32.9998 40.8933C32.9865 40.9066 32.9732 40.9066 32.9598 40.92C32.9465 40.9466 32.9199 40.9733 32.8932 41L32.8132 41.08C32.7732 41.1066 32.7332 41.1333 32.6932 41.16C32.6665 41.1733 32.6265 41.1866 32.5999 41.2C32.5599 41.2266 32.5332 41.24 32.4932 41.2533C32.4932 41.2533 32.4932 41.2533 32.4798 41.2666C32.3998 41.28 32.3065 41.2933 32.2132 41.2933C32.2132 41.2933 32.2132 41.3066 32.1998 41.3066C32.1998 41.3066 32.1999 41.3066 32.1865 41.3066C32.1065 41.3066 32.0132 41.2933 31.9332 41.2666C31.9199 41.2666 31.9198 41.2666 31.9065 41.2533C31.8665 41.24 31.8398 41.2266 31.7998 41.2133C31.7598 41.2 31.7332 41.1866 31.7065 41.16C31.6665 41.1466 31.6265 41.12 31.5865 41.0933C31.5598 41.08 31.5465 41.0533 31.5199 41.04C31.4932 41 31.4665 40.9733 31.4265 40.9333C31.4265 40.9333 31.3998 40.92 31.3998 40.9066L22.3065 28.9866C22.2665 28.9466 22.2532 28.8933 22.2265 28.84C22.2132 28.8133 22.1865 28.7733 22.1732 28.7333C22.1332 28.6266 22.1065 28.52 22.1065 28.4C22.1065 28.3866 22.0932 28.3866 22.0932 28.3866C22.0932 28.3866 22.0932 28.3866 22.0932 28.3733C22.0932 28.2533 22.1332 28.1333 22.1732 28.0266C22.1865 27.9866 22.2132 27.9466 22.2265 27.92C22.2532 27.8666 22.2799 27.8133 22.3065 27.76L25.3732 23.8666C25.5598 23.6133 25.8532 23.48 26.1598 23.48H37.8532C38.1599 23.48 38.4399 23.6133 38.6399 23.8666L41.6932 27.76C41.7198 27.8133 41.7465 27.8666 41.7732 27.92C41.7865 27.9466 41.8132 27.9866 41.8265 28.0266C41.8665 28.1333 41.8932 28.2533 41.8932 28.3733C41.8932 28.3733 41.9065 28.3733 41.9065 28.3866C41.9065 28.4 41.8932 28.4 41.8932 28.4133Z" fill="#F43F3E"/>
</svg>
